<svg width="48" height="48" viewBox="0 0 48 48" fill="none" xmlns="http://www.w3.org/2000/svg">
<g clip-path="url(#clip0_124_209)">
<path d="M24 48C37.2548 48 48 37.2548 48 24C48 10.7452 37.2548 0 24 0C10.7452 0 0 10.7452 0 24C0 37.2548 10.7452 48 24 48Z" fill="#988430"/>
<path d="M23.9998 47.2312C36.83 47.2312 47.231 36.8303 47.231 24C47.231 11.1697 36.83 0.768768 23.9998 0.768768C11.1695 0.768768 0.768555 11.1697 0.768555 24C0.768555 36.8303 11.1695 47.2312 23.9998 47.2312Z" fill="#7A6A2A"/>
<path d="M24.0001 46.7418C36.56 46.7418 46.7418 36.5599 46.7418 24C46.7418 11.4401 36.56 1.25824 24.0001 1.25824C11.4401 1.25824 1.2583 11.4401 1.2583 24C1.2583 36.5599 11.4401 46.7418 24.0001 46.7418Z" fill="#BA9F33"/>
<path fill-rule="evenodd" clip-rule="evenodd" d="M10.4932 21.4369C10.3572 21.3128 10.2136 21.1884 10.0815 21.0642C9.94943 20.94 9.81375 20.8156 9.67781 20.6915L9.27384 20.3075C9.20779 20.2414 9.13791 20.1833 9.07186 20.117C9.00581 20.0589 8.92824 19.9928 8.86219 19.9345C8.32613 19.4258 7.78699 18.9171 7.25835 18.4082C7.80594 18.9092 8.342 19.4066 8.88959 19.915L9.07979 20.1055C9.14584 20.1713 9.21573 20.2296 9.28178 20.2957L9.68549 20.6684C9.82143 20.7926 9.95352 20.917 10.0895 21.0524C10.2254 21.1878 10.3575 21.3125 10.4934 21.4364L10.4932 21.4369ZM3.37867 21.3601C3.37867 21.3601 5.32811 21.5619 6.27967 21.6978C7.16107 21.8222 9.91845 22.2454 9.91845 22.2454L3.37867 21.3601ZM3.37867 21.3601C3.92626 21.4067 4.47384 21.4648 5.02143 21.5232C5.30098 21.5503 5.56901 21.5813 5.83704 21.6085L6.24843 21.6553C6.38437 21.6745 6.51647 21.694 6.6524 21.7134L8.28363 21.9735L9.09899 22.1094C9.36703 22.156 9.63506 22.2067 9.91461 22.2533C9.64658 22.2262 9.36703 22.1873 9.09899 22.1484L8.28363 22.0319L6.6524 21.7912C6.51647 21.7718 6.38437 21.7444 6.24843 21.7252L5.83679 21.6778C5.56875 21.6507 5.2892 21.6118 5.02117 21.5805C4.47359 21.5148 3.926 21.4446 3.37842 21.3594L3.37867 21.3601ZM9.7244 22.7533C9.7244 22.7533 7.64287 23.2817 6.93989 23.4837C6.24869 23.6739 4.15538 24.3108 4.15538 24.3108L9.72415 22.7535L9.7244 22.7533Z" fill="#CFB66C"/>
<path fill-rule="evenodd" clip-rule="evenodd" d="M9.72405 22.7533C9.26197 22.8892 8.80245 23.0213 8.33371 23.1457L6.94338 23.5185C6.4813 23.6544 6.02178 23.7865 5.56098 23.9224L4.86978 24.1126C4.64066 24.1787 4.4077 24.2368 4.1709 24.3031C4.39976 24.2263 4.63298 24.1477 4.8621 24.0817L5.5533 23.8605C6.01538 23.7166 6.4749 23.5807 6.9357 23.4371C7.40546 23.3206 7.86779 23.1962 8.33755 23.0835C8.78402 22.9709 9.25403 22.8585 9.72405 22.7535V22.7533ZM4.44661 25.5923C4.67547 25.5068 7.31637 24.276 7.93 23.9885C8.2372 23.8446 9.13013 23.5277 9.13013 23.5277L4.44661 25.5923Z" fill="#CFB66C"/>
<path fill-rule="evenodd" clip-rule="evenodd" d="M4.44654 25.5923C4.64827 25.5155 4.83874 25.4216 5.03279 25.3322L5.60751 25.0642L6.76104 24.5089C7.14504 24.3264 7.51829 24.1249 7.91432 23.9534C8.11631 23.8682 8.31829 23.7983 8.52002 23.7322L8.82722 23.6352C8.93192 23.6081 9.0292 23.5768 9.13442 23.5497C8.75042 23.7322 8.34619 23.8876 7.96168 24.0661C7.57768 24.2565 7.18498 24.4119 6.78869 24.5827L5.61595 25.099C5.22223 25.2585 4.83823 25.4293 4.44629 25.5923H4.44654ZM4.70254 26.6675C4.70254 26.6675 7.09461 25.2657 7.9179 24.8151C8.34901 24.5745 9.74319 23.883 9.74319 23.883L4.70254 26.6675Z" fill="#CFB66C"/>
<path fill-rule="evenodd" clip-rule="evenodd" d="M4.70312 26.668C5.10684 26.4195 5.51848 26.167 5.93013 25.9108L6.54453 25.5378C6.7542 25.4136 6.95618 25.2972 7.16994 25.173C7.37961 25.0486 7.58159 24.9244 7.79509 24.8079C7.89673 24.7452 8.00323 24.6906 8.11356 24.6449L8.4397 24.4818C8.87081 24.2721 9.30191 24.0584 9.75631 23.8758C9.34466 24.1362 8.92124 24.3576 8.49807 24.5865C8.28841 24.703 8.07464 24.8079 7.86498 24.9244C7.65532 25.0409 7.45333 25.1653 7.23957 25.278C7.02991 25.4021 6.82792 25.5186 6.61442 25.6312L5.98133 25.9768L4.70364 26.668H4.70312ZM9.72431 24.1902C9.72431 24.1902 8.23695 25.332 7.75541 25.697C7.27388 26.0621 5.8564 27.0874 5.8564 27.0874L9.72431 24.1902Z" fill="#CFB66C"/>
<path fill-rule="evenodd" clip-rule="evenodd" d="M18.2601 33.398L17.499 31.9572L17.9416 30.1553L21.0989 28.9359L19.7552 26.1788L20.4192 23.3943L21.6659 20.9009L25.5185 20.2952L28.3493 17.5962L34.4621 18.0582L35.662 24.5942L33.3513 32.8233L32.035 37.0836L26.6989 37.2856L24.2213 35.5692L21.3203 34.3572L18.2601 33.398Z" fill="#E2CC85"/>
<path fill-rule="evenodd" clip-rule="evenodd" d="M27.6195 33.3514C27.6195 33.3514 26.8815 33.6893 25.6227 33.6115C25.2584 33.1223 22.7071 32.8932 22.7071 32.8932C22.7071 32.8932 22.3887 32.7962 21.8255 33.0291C21.2587 33.2595 20.7226 33.2311 20.2216 33.3553C19.7206 33.4794 19.2232 32.8271 18.8392 32.6912C18.4552 32.5476 17.946 32.202 17.946 32.202L16.8708 32.097L14.7117 31.1844L11.2816 27.767L10.3495 29.2262L10.062 31.0321L11.0991 33.172L13.8913 35.7156L19.3359 37.098L22.563 36.1472L26.6058 34.4384L27.6195 33.3512V33.3514Z" fill="#F1D789"/>
<path fill-rule="evenodd" clip-rule="evenodd" d="M8.27584 21.2739L8.96704 19.1808L9.79059 17.8291L12.4427 17.6077L11.6466 19.9301L9.42937 23.8758L10.3497 27.3981L8.71872 28.2135L8.21747 27.4447L7.81376 25.6817L7.78662 23.701L8.27584 21.2739Z" fill="#F4ECB4"/>
<path fill-rule="evenodd" clip-rule="evenodd" d="M11.2503 33.2078L10.7416 32.4972C10.7416 32.4972 10.6056 32.1592 10.6835 31.8641C10.7603 31.5651 10.7493 31.5456 10.7106 31.433C10.672 31.3203 10.3456 30.932 10.365 30.5979C10.3842 30.26 10.3379 30.1473 10.5862 29.8796C10.8463 29.6195 10.7687 29.1689 10.7687 29.1689L11.1066 29.3786L11.1834 29.2621C11.1834 29.2621 11.3076 29.3591 11.3076 29.5107C11.3347 29.301 11.2221 28.33 11.4784 28.1088C11.7346 27.8876 12.189 29.1456 12.189 29.1456L11.9095 27.3203L11.1909 25.4487L9.91317 23.7399L9.83637 21.8563V21.6932C9.83637 21.6932 9.24987 22.5943 9.0868 23.306C8.97032 23.7952 9.24987 24.3894 9.19176 25.0924C9.14491 25.7915 9.0868 25.737 9.25755 26.014C9.4283 26.2909 9.84405 26.8605 9.68097 27.2722C9.53736 27.6257 9.04789 27.3772 9.04789 27.3772C9.04789 27.3772 8.95086 27.6644 8.81877 27.7693C8.77217 27.5986 8.72174 27.4898 8.62856 27.3853C8.62062 27.4514 8.60142 27.5407 8.60142 27.5407C8.60142 27.5407 8.51592 27.2727 8.43041 26.9348C8.31419 26.4845 8.18977 25.8903 8.07713 25.5718C8.03054 25.7544 7.91406 26.3096 7.91406 26.3096L7.98011 27.1642L8.29857 28.3369L8.60577 29.1049L8.90478 30.0447L9.16462 30.676L9.37429 31.1575L9.55681 32.2412L10.4382 33.173L10.9082 33.3829L11.2497 33.2081L11.2503 33.2078Z" fill="#F3E19D"/>
<path fill-rule="evenodd" clip-rule="evenodd" d="M8.73801 19.5651C8.73801 19.5651 8.10493 20.6403 7.92265 21.7242C7.74038 22.8081 7.57705 23.9534 7.69225 25.429C7.80873 26.9166 8.03017 27.829 8.20886 28.4815C8.51606 29.5652 9.31171 31.072 9.31171 31.072L9.33885 31.0136C9.20511 30.7601 9.09837 30.4933 9.02038 30.2175C8.91542 29.8058 8.87651 29.3166 8.77949 29.0952C8.69398 28.874 8.55037 28.6835 8.48048 28.4116C8.41443 28.1515 8.40368 27.7399 8.20093 27.4332C8.11542 27.3088 8.01046 26.9827 7.97949 26.6565C7.94057 26.167 7.99894 25.6195 7.95235 25.1691C7.86685 24.4196 7.80873 23.9109 7.8863 23.5185C7.96387 23.126 8.36809 22.0119 8.61667 21.1264C8.77974 20.5594 8.68246 20.0817 8.98147 19.5884C9.28048 19.0991 9.46326 18.668 9.52905 18.369C9.60585 18.0971 8.73699 19.5651 8.73699 19.5651H8.73801Z" fill="#F2E8B0"/>
<path fill-rule="evenodd" clip-rule="evenodd" d="M11.7399 19.1339C11.7399 19.1339 11.4138 19.2312 11.2584 19.402C11.103 19.5651 11.037 19.701 10.8273 19.9767C10.6176 20.2524 10.6058 20.4777 10.4348 20.8233C10.2641 21.1612 9.88726 21.6699 9.84066 21.8524C9.79407 22.0349 9.7165 22.8892 9.61948 23.2932C9.53398 23.6971 9.7165 24.1943 9.7165 24.1943L9.93769 24.1475C9.93769 24.1475 9.93769 24.4349 10.1591 24.6292C10.3803 24.8195 10.4192 23.9844 10.4192 23.9844L11.2464 21.1922L12.4928 20.3456L12.6288 19.6621L11.7394 19.1339H11.7399Z" fill="#F5EEC0"/>
<path fill-rule="evenodd" clip-rule="evenodd" d="M12.3458 20.4001C12.3458 20.4001 11.7593 20.4388 11.4721 20.6487C11.3556 20.734 11.309 20.8038 11.1848 20.9088C10.9557 21.099 10.7225 21.2739 10.6101 21.5232C10.4857 21.7715 10.3498 22.1484 10.2566 22.859C10.2177 23.158 10.2177 23.4337 10.1905 23.6746C10.1516 24.0008 10.0935 24.2609 10.1245 24.4426C10.1634 24.8154 10.5479 25.0097 10.5853 25.4328L11.3814 25.0291L12.131 22.0736L13.7233 21.0752L12.8222 20.0655L12.3448 20.3983L12.3458 20.4001Z" fill="#E6DB9D"/>
<path fill-rule="evenodd" clip-rule="evenodd" d="M8.14527 40.3018C8.1486 40.2726 8.15193 40.2435 8.15526 40.2135C8.27148 39.2151 8.29119 38.4584 8.37644 37.9845C8.5006 37.3128 8.58611 37.0629 8.56665 36.8115C8.53952 36.4078 8.50854 36.1126 8.54745 35.8019C8.60556 35.3902 9.00953 34.901 8.99801 34.5631C8.99007 34.295 8.85414 34.1204 8.73766 33.9574C8.62118 33.7943 8.528 33.6584 8.528 33.6584C8.528 33.6584 9.32415 33.1108 9.31647 30.9048C9.33273 30.9094 9.34838 30.9159 9.36307 30.9243L9.75526 32.0387L10.0233 32.3648L11.0524 34.2833L12.3767 35.5689L14.3338 36.8852L15.5611 38.2208L15.6852 41.782L14.0814 43.8636L13.8187 44.3392C11.732 43.2916 9.81848 41.9299 8.14502 40.3016L8.14527 40.3018Z" fill="#E5CB7A"/>
<path fill-rule="evenodd" clip-rule="evenodd" d="M13.0449 43.7087C13.0449 43.7087 13.0721 43.266 13.4371 42.9786C13.4955 43.0756 13.5341 43.169 13.5226 43.2387C13.5887 43.1224 14.0507 42.3767 15.0955 42.1824C16.1402 41.9922 16.3926 41.2311 16.3926 41.2311L18.6099 39.2156L21.1458 36.8817L24.2293 35.798L25.6703 35.4445C25.6703 35.4445 25.6975 35.5494 25.6432 35.7824C25.911 35.7632 26.5051 35.6273 27.1226 35.4097C27.3712 35.3126 27.6044 35.2737 27.7286 35.402C27.9111 35.5727 27.9382 35.9767 27.9498 36.2173C28.2488 36.1513 28.5944 35.8641 28.8714 35.8912C29.3142 35.9378 29.7064 36.4582 30.157 36.4582C30.7512 36.4582 31.0189 36.0932 31.4347 35.8057C31.6833 35.6349 32.0404 35.4217 32.2424 35.2776C32.7239 34.924 37.8191 33.3668 37.8191 33.3668L39.6054 33.4833L39.8929 35.4017L39.7393 40.4168C39.7204 40.4349 39.7014 40.4539 39.6822 40.4721L31.5599 44.7142L20.301 46.4402C17.779 46.0281 15.3452 45.191 13.1033 43.9644L13.0457 43.7084L13.0449 43.7087Z" fill="#D8C173"/>
<path fill-rule="evenodd" clip-rule="evenodd" d="M8.82812 40.9398C8.98812 40.6052 9.132 40.3254 9.15734 40.2253C9.17731 40.427 9.21392 40.8696 9.28764 41.3402C9.13285 41.2086 8.97968 41.075 8.82812 40.9395V40.9398Z" fill="#F1D789"/>
<path fill-rule="evenodd" clip-rule="evenodd" d="M17.0526 45.6594L18.5087 45.2544L18.6329 45.2933C18.6329 45.2933 18.6989 45.3322 18.6989 45.4641C18.8814 45.3594 19.0368 45.3786 19.1495 45.3089C19.2076 45.4331 19.2657 45.8447 19.5222 45.8952C19.79 45.9535 20.0775 45.7787 20.3688 45.5575C20.656 45.3284 20.9832 45.0409 21.2308 44.9244C21.3216 45.0914 21.402 45.2639 21.4716 45.4408C21.7978 45.1807 22.3648 44.1244 23.1725 44.1436C23.406 43.5919 23.796 43.1208 24.2943 42.7884C25.0439 42.2797 25.5136 42.2408 26.1001 42.2874C26.3331 41.9848 26.6201 41.728 26.9467 41.5301C27.0437 41.569 27.3118 41.7321 27.6459 41.5767C27.9838 41.4216 28.3642 40.8195 28.8652 40.7419C29.1352 40.7047 29.4097 40.7624 29.6419 40.905C29.6419 40.905 31.1011 39.4563 32.1079 38.9747C32.069 38.8582 31.9915 38.4195 33.1719 37.4484C33.2379 37.5068 33.1913 37.6699 33.2379 37.6788C33.2571 37.6788 33.5451 37.5547 33.9097 37.2749C34.3602 36.9372 34.8999 36.5837 35.226 36.4867C35.8404 36.3041 36.4922 36.6769 36.4922 36.6769C36.5476 36.638 36.6094 36.6091 36.6747 36.5914C36.8299 36.5642 36.9425 36.5448 37.028 36.5146C37.0203 36.7165 37.133 37.0621 37.028 37.3612C37.1496 37.4295 37.2784 37.4842 37.412 37.5242C37.3462 37.6678 37.2023 38.0329 36.9617 38.2077C37.1634 38.3048 37.1906 38.4174 37.478 38.5149C37.3616 38.678 37.1708 38.9578 37.0859 39.1293C37.0004 39.3119 36.6934 40.0691 36.5575 40.3564C36.4139 40.6438 36.2198 41.172 36.1264 41.278C36.0329 41.3839 35.6953 41.8332 35.4352 42.0544C35.6656 41.9689 36.6082 41.6817 37.008 41.5729C36.889 41.7475 36.2856 42.6427 35.7055 43.5036C32.928 45.1684 29.8276 46.222 26.611 46.5944C23.3943 46.9668 20.1351 46.6494 17.0508 45.6632L17.0526 45.6594Z" fill="#E0CD81"/>
<path fill-rule="evenodd" clip-rule="evenodd" d="M12.4417 20.2952C12.4417 20.2952 12.1041 20.2952 12.038 20.3418C11.972 20.3884 12.3759 20.4856 12.5001 20.5322C12.6242 20.5788 12.8923 20.7923 12.9622 20.9633C13.0282 21.1264 15.3893 22.0777 15.3893 22.0777L17.0592 21.9922L17.6349 21.1968L16.5398 20.2376L17.3078 17.9735L16.2904 18.1366L13.8438 19.5958L12.6166 20.0658L12.4417 20.2952Z" fill="#DFC57C"/>
<path fill-rule="evenodd" clip-rule="evenodd" d="M16.1086 21.0447C16.1328 21.0838 16.1668 21.1159 16.2072 21.1377C16.2477 21.1595 16.2931 21.1702 16.339 21.1689C16.6846 21.1689 17.0028 21.2544 17.1349 21.429C17.3564 21.7088 17.97 22.602 17.97 22.602L19.4379 23.1301L19.5326 21.4016L17.9288 20.2872L16.1035 20.959V21.0445H16.1076L16.1086 21.0447Z" fill="#E5CC7C"/>
<path fill-rule="evenodd" clip-rule="evenodd" d="M15.8207 21.6855C15.8207 21.6855 16.0885 21.705 16.4264 21.5805C16.7643 21.4561 17.3196 21.1884 17.5605 21.2933C17.8982 21.4369 17.8283 21.8875 18.1936 22.2917C18.4148 22.5403 18.8187 22.5326 19.0479 22.8006C19.277 23.0687 20.0652 22.9443 20.0652 22.9443L20.3642 24.5571L19.1643 26.0951L18.7719 28.0056H17.1494L15.6671 27.4176L14.937 25.6512L15.3021 23.8648L15.8207 21.6855Z" fill="#D2C281"/>
<path fill-rule="evenodd" clip-rule="evenodd" d="M18.9595 21.7631C18.9997 21.7755 19.0415 21.782 19.0836 21.7825C19.0371 21.8214 18.9398 21.9067 18.9787 22.1281C19.0176 22.3496 19.1418 22.6291 19.0371 22.7999C19.1206 22.8913 19.183 23 19.2196 23.1183C19.2856 23.3088 19.3051 23.4834 19.7359 23.5108C19.6738 23.5491 19.6164 23.5947 19.5652 23.6467C19.5652 23.6467 19.8642 23.9068 20.0157 24.1475C20.1709 24.1408 20.5825 24.0128 20.5825 24.0128L20.668 24.0712L20.8506 23.9944C20.8506 23.9944 20.6798 23.9283 20.804 23.5128C20.9204 23.1478 21.0254 23.1672 21.0344 23.1401C21.0433 23.113 21.1199 22.7285 21.1199 22.5731C21.178 22.3713 21.2246 21.7577 21.2246 21.7577L21.1004 20.4024L20.4015 19.979L19.8332 19.4304L19.2972 20.4401L18.9441 20.7921L18.917 21.6658L18.9595 21.7631Z" fill="#E2C270"/>
<path fill-rule="evenodd" clip-rule="evenodd" d="M20.6406 20.6292C20.6406 20.6292 20.7648 20.9825 20.8116 21.2544C20.8281 21.2015 20.8373 21.1467 20.8388 21.0913C20.8388 21.0913 20.9358 21.6274 20.955 21.8488C20.9939 21.8409 21.0318 21.8294 21.0405 21.868C21.0492 21.9067 21.1378 22.338 21.1173 22.5787C21.279 22.3119 21.5028 22.0881 21.7696 21.9264C21.925 21.8291 22.1075 21.7244 22.298 21.7165C22.597 21.7088 22.8143 21.9069 23.1717 21.9069C24.0336 21.9069 24.8144 21.2739 25.3892 21.0798C25.8123 20.9359 26.1774 20.8312 26.4336 20.598C26.5581 20.4933 26.7795 20.2603 26.9812 19.9145C27.2493 19.4537 27.5288 19.0525 27.8086 19.0021C27.682 19.0254 27.5532 19.0345 27.4246 19.0292C27.4246 19.0292 27.5101 18.9437 27.655 18.8273C27.7999 18.7108 27.9735 18.5672 28.2218 18.5672C28.6647 18.5672 28.8859 18.633 29.1344 18.633C29.383 18.6253 29.5266 18.5672 29.5266 18.5672C29.5266 18.5672 29.787 18.7497 30.3732 18.7497C30.9597 18.7574 31.3519 18.8078 31.6589 18.8352C31.9658 18.8626 32.9947 18.7497 33.2898 18.7584C33.4823 18.7658 33.6712 18.8121 33.8454 18.8943L32.8938 16.1295L29.4757 13.142L27.4408 14.5828L24.3104 17.7129L21.2814 18.8352L20.6483 19.5459V20.6292H20.6406Z" fill="#CCB360"/>
<path fill-rule="evenodd" clip-rule="evenodd" d="M27.437 19.0446C27.437 19.0446 27.5225 18.9594 27.6659 18.8429C27.8092 18.7264 27.9846 18.5825 28.2329 18.5825C28.6755 18.5825 28.897 18.6486 29.1456 18.6486C29.3941 18.6409 29.5378 18.5825 29.5378 18.5825C29.5378 18.5825 29.7984 18.7648 30.3843 18.7648C30.9708 18.7725 31.363 18.8229 31.67 18.85C31.9769 18.8772 33.0058 18.7648 33.301 18.7732C33.4933 18.7805 33.6822 18.8267 33.8562 18.9092L33.4251 17.6625L32.9244 16.7112L31.4951 15.146C31.4951 15.146 29.7799 14.1363 29.7669 14.1286C29.7592 14.121 29.1727 13.9656 29.1727 13.9656L27.6193 14.9053L26.2098 18.5521L26.1826 19.3201L27.095 19.7512C27.3241 19.3672 27.5768 19.06 27.8136 19.0211C27.5998 19.0444 27.4368 19.0444 27.4368 19.0444L27.437 19.0446Z" fill="#D5B457"/>
<path fill-rule="evenodd" clip-rule="evenodd" d="M27.4174 19.305C27.2815 19.3126 27.1691 19.2855 27.1379 19.1885C27.0214 18.8623 26.9282 18.8157 26.8307 18.8157C26.7331 18.8157 26.6016 19.0254 26.5235 19.0446C26.4454 19.0638 26.3527 18.804 26.3527 18.804L26.2672 18.7651C26.2672 18.7651 25.7662 19.0912 25.413 19.4757C25.0597 19.8602 24.4809 20.5128 24.2208 20.629C23.9607 20.7452 23.0672 20.7844 22.7616 20.8504C22.4559 20.9165 22.117 21.1379 22.0704 21.1884C22.0238 21.2388 22.2066 21.2931 22.2337 21.3435C22.2608 21.3901 21.9344 21.3706 21.9073 21.4203C21.8881 21.4592 21.9841 21.6804 22.0317 21.793C22.115 21.7516 22.2065 21.7291 22.2995 21.727C22.5985 21.7193 22.8161 21.9174 23.1732 21.9174C24.0354 21.9174 24.816 21.2844 25.3907 21.0901C25.8141 20.9464 26.1792 20.8415 26.4354 20.6085C26.5596 20.5038 26.781 20.2706 26.983 19.925C27.1305 19.6882 27.2743 19.4668 27.4182 19.3037L27.4174 19.305Z" fill="#D2B257"/>
<path fill-rule="evenodd" clip-rule="evenodd" d="M15.0526 38.5244C15.0526 38.5244 14.9758 38.2369 14.2641 37.4953C14.0621 37.2856 13.9379 37.1113 13.802 36.9866C13.4641 36.6679 13.2659 36.5827 13.0253 36.4001C12.4972 36.0079 11.9225 36.0079 11.4798 35.5264C11.0372 35.0449 10.5214 34.1248 10.163 33.1845C9.80968 32.2447 9.7124 31.9457 9.7124 31.9186C9.7124 31.8915 9.80968 31.7089 9.93384 31.7361C10.058 31.7632 10.058 32.0038 10.0892 32.0622C10.1511 32.1575 10.2213 32.2471 10.2989 32.33C10.4814 32.5399 10.7415 32.7908 10.8736 33.1651C10.8465 32.8466 10.7377 32.4933 10.7377 32.4933C10.7377 32.4933 11.4212 32.9244 12.0036 33.3747C12.5901 33.8253 12.8307 33.9807 13.002 34.2679C13.1733 34.5551 13.5767 35.3126 13.77 35.5341C13.9633 35.7555 16.6116 36.5903 16.6116 36.5903L17.8714 37.5296L18.4968 38.9005L18.0073 39.6685L17.0675 39.8705L15.5413 39.1869L15.0526 38.5242V38.5244Z" fill="#D2B159"/>
<path fill-rule="evenodd" clip-rule="evenodd" d="M11.6621 33.802C11.6621 33.802 11.9806 34.3107 12.7573 34.7922C13.4564 35.2156 14.5631 35.6001 15.5497 35.8292C16.1165 35.9652 16.6835 36.0699 17.1922 36.0778C18.5631 36.097 19.5067 35.7051 20.6759 35.5768C21.309 35.5108 22.0857 35.4603 22.8933 35.2696C23.9301 35.0211 24.5438 34.7412 25.3788 34.348C25.9845 34.0685 26.5401 33.8588 26.9904 33.5908C27.6235 33.218 28.0855 32.8026 28.6216 32.6784C28.5555 32.8609 28.4857 33.1871 27.9575 33.525C28.2371 33.5171 28.6216 33.4979 28.6216 33.4979C28.6216 33.4979 28.2489 33.719 27.5925 34.2162C27.1885 34.5234 26.6527 35.0433 26.1051 35.3889C25.7516 35.6104 25.3671 35.7729 25.1147 35.9055C24.5003 36.2435 24.2524 36.4142 23.8487 36.8271C23.9923 36.8195 24.0041 36.8271 24.0041 36.8271C24.0041 36.8271 23.4952 36.8932 23.1304 37.0872C23.0536 37.0872 22.9205 37.0601 22.6875 37.1261C22.505 37.1843 22.2641 37.3166 22.0158 37.3862C21.6622 37.4912 21.546 37.4446 21.546 37.4446L21.6041 37.5611C21.6041 37.5611 21.1433 37.5532 20.9897 37.5688C21.0169 37.5764 21.0092 37.5882 21.0092 37.5882C20.9822 37.5927 20.9562 37.6019 20.9324 37.6154C20.8585 37.6632 20.7772 37.6986 20.6917 37.7201C20.6451 37.7277 20.6062 37.7277 20.5479 37.7395C20.5673 37.7861 20.7189 38.0467 20.7888 38.2003C20.7307 38.2392 19.8567 38.8995 19.8567 38.8995C19.8838 38.9421 19.9059 38.9877 19.9227 39.0354C19.9499 39.1206 19.9616 39.2451 19.9888 39.3032C20.0546 39.4196 20.0935 39.4391 20.0935 39.4391C20.0935 39.4391 19.9888 39.4586 19.806 39.5052C19.6508 39.5441 19.4604 39.6099 19.1916 39.6488C19.1091 39.6595 19.0261 39.666 18.943 39.6682C18.9819 39.7537 19.1527 40.0799 18.838 40.4564C18.5234 40.833 18.4264 40.8878 18.3294 41.1284C18.2805 41.0915 18.2285 41.059 18.174 41.0312C18.0693 40.9846 17.9254 40.9149 17.875 40.8215C17.8456 40.946 17.8066 41.068 17.7585 41.1866C17.6615 41.4467 17.5179 41.7032 17.4907 41.8972C17.3858 41.7807 17.1917 41.5516 16.9237 41.5982C16.6556 41.6448 16.4421 42.0099 16.3955 42.1148C16.3955 42.0488 16.349 41.9983 16.3374 42.0759C16.3295 42.1614 16.182 43.0543 15.3587 43.7768C15.3511 43.5942 15.3511 43.1903 15.3316 43.0584C15.2548 43.1352 15.1609 43.2486 14.6015 43.4895C14.0539 43.7302 14.1407 43.9711 14.1407 43.9711C14.1407 43.9711 14.0941 43.5871 14.3893 43.1826C14.6883 42.7789 14.8708 42.5884 14.8708 42.5574C14.866 42.5259 14.8525 42.4963 14.8319 42.4719C14.793 42.433 14.7154 42.3864 14.7154 42.3555C14.762 42.3363 15.2241 42.1148 15.197 41.6563C15.1698 41.2449 14.9952 41.0312 14.8708 40.8799C14.8516 40.8604 15.0536 40.7168 15.0262 40.6702C15.0067 40.6431 14.7584 40.4603 14.7272 40.363C14.7345 40.305 14.7476 40.2478 14.7661 40.1923C14.7932 40.1068 14.8127 40.0484 14.805 39.9903C14.7856 39.8932 14.6806 39.6252 14.6496 39.5981C14.6768 39.6058 14.8708 39.5981 14.8708 39.5981C14.8708 39.5981 14.7157 39.3495 14.6883 39.233C14.6609 39.1165 14.6028 38.8096 14.5718 38.7515C14.6379 38.7592 14.8009 38.7707 14.8009 38.7515C14.8089 38.6931 14.6573 38.5961 14.7241 38.5211C14.7707 38.5288 14.8601 38.5677 14.9453 38.6765C14.8987 38.5521 14.8211 38.3114 14.6578 38.2144C14.7346 38.1873 14.9957 38.1171 15.2249 38.2531C15.454 38.389 15.5321 38.5792 15.5321 38.5792C15.5321 38.5792 15.668 38.6842 15.8779 38.8396C16.1186 39.0298 16.4252 39.3004 16.9147 39.4918C17.0197 39.5502 17.2875 39.5502 17.4818 39.5113C17.5664 39.4911 17.6475 39.4584 17.7224 39.4143C17.7495 39.3983 17.7781 39.3853 17.8079 39.3754C17.7662 39.2916 17.7181 39.211 17.6643 39.1345C17.7303 39.1345 17.8079 39.1424 17.8079 39.1424C17.8079 39.1424 17.8545 39.0374 17.6448 38.8352C17.6914 38.7886 17.7498 38.7584 17.7498 38.6798C17.6837 38.6721 17.5673 38.5751 17.5401 38.5362C17.5788 38.5091 17.6371 38.4197 17.7032 38.3926C17.6448 38.346 17.5012 38.1517 17.4352 38.1325C17.4983 38.1091 17.5593 38.0805 17.6177 38.047C17.6177 38.047 17.2915 37.9615 17.1866 37.8916C17.0816 37.8148 16.9265 37.6819 16.8333 37.643C16.736 37.6041 16.5653 37.5849 16.4954 37.5071C16.5612 37.5265 16.6661 37.5071 16.744 37.5071C16.8021 37.5071 16.8295 37.5148 16.8487 37.5148C16.841 37.4876 16.841 37.4292 16.9925 37.41C17.0654 37.3991 17.1362 37.3768 17.2022 37.344C17.2022 37.344 17.0583 37.3363 16.895 37.1809C16.7317 37.0255 16.596 36.9014 16.5028 36.8819C16.4058 36.8625 16.2233 36.948 16.1106 36.94C15.9552 36.9208 15.8892 36.843 15.8892 36.843C15.8892 36.843 15.3728 36.8896 14.2272 36.1907C13.2368 35.5848 12.8057 35.049 12.8057 35.049C12.713 35.0153 12.6234 34.9737 12.5379 34.9245C12.1651 34.7305 11.6485 34.3265 11.6642 33.7981L11.6621 33.802Z" fill="#C2A44D"/>
<path fill-rule="evenodd" clip-rule="evenodd" d="M25.9495 10.4932C26.0393 10.5224 26.1192 10.5762 26.1799 10.6486C26.3624 10.8582 26.4789 11.2543 26.0634 11.6777C26.2265 11.7358 26.2938 11.7545 26.4361 11.7358C26.2925 11.9068 25.9664 12.2719 25.9469 12.5903C25.9275 12.8504 26.0905 12.9283 26.0905 12.9283C26.0905 12.9283 25.842 13.2155 25.8304 13.6963C25.9478 13.5639 26.0763 13.4417 26.2144 13.3312C26.5019 13.1021 26.898 12.842 27.166 12.6789C27.1624 12.7473 27.1716 12.8157 27.1931 12.8806C27.1931 12.8806 27.6939 12.469 28.1147 12.6518C28.3049 12.7373 28.2194 13.0051 28.2194 13.0051C28.2194 13.0051 28.4798 12.908 28.6623 13.0906C28.8448 13.2731 29.1029 13.7439 29.2352 13.9264C29.2934 14.0119 29.4449 14.175 29.6 14.4274C29.812 14.7808 29.9889 15.154 30.1284 15.5418C30.1361 15.3398 30.1865 15.0254 30.7615 15.2233C31.3362 15.4253 31.9885 15.8487 32.5361 16.6825C33.0837 17.5163 33.2194 18.4576 33.4951 18.816C33.7746 19.1616 34.0621 19.7363 34.0816 19.9772C34.101 20.2181 33.9961 20.9946 34.5708 23.0956C34.7339 22.4433 34.9824 20.9946 34.9824 20.9946L35.1184 19.7169L35.2738 15.7635L31.1455 12.3338L27.9184 9.99194L25.8174 10.1939L25.9492 10.4929L25.9495 10.4932Z" fill="#CAA13E"/>
<path fill-rule="evenodd" clip-rule="evenodd" d="M33.6196 16.3766C33.6196 16.3766 33.5612 15.9926 32.5905 15.3398C31.6195 14.6952 30.8622 14.6952 30.1633 14.1476C29.6273 13.7165 29.0682 12.726 28.7041 12.3999C28.3506 12.0776 28.2925 11.1455 28.2925 11.1455L29.4847 10.1471L31.2577 7.58425L32.7566 5.93382L33.4749 6.93222L34.4733 8.10496L35.0286 10.4584L35.2306 13.9031L33.6178 16.3768L33.6196 16.3766Z" fill="#B59544"/>
<path fill-rule="evenodd" clip-rule="evenodd" d="M34.8196 20.5056C34.849 19.9832 34.7844 19.4598 34.6291 18.9601C34.3731 18.164 33.8137 16.7503 33.5539 16.2209C33.4489 15.6344 33.5268 15.5878 33.6394 15.5218C33.7521 15.4557 34.1755 15.2146 34.4074 14.3685C34.6393 13.5224 35.359 13.4948 35.359 13.4948L35.8016 13.1686L36.4736 14.85L37.0598 16.3686L37.2424 17.5299L37.3783 18.5201L37.0598 20.6134L35.4872 22.0347L34.8193 20.5056H34.8196Z" fill="#C89D3A"/>
<path fill-rule="evenodd" clip-rule="evenodd" d="M12.874 43.8372V43.7942C12.9067 43.7737 12.9356 43.7478 12.9593 43.7174C12.9864 43.6785 13.0061 43.6319 13.0253 43.6204C13.0642 43.6009 13.2468 43.5436 13.3438 43.562C13.4408 43.5804 13.6973 43.6861 13.8333 43.6785C14.1128 43.6708 14.439 43.457 14.9556 43.5543C15.7323 43.6979 15.9148 44.2261 16.3654 44.5251C16.6726 44.735 16.9905 44.6415 17.0371 44.6415H17.1418C17.1613 44.6415 17.3049 44.4785 17.3827 44.4864C17.5381 44.4941 17.5534 44.6223 17.6505 44.63C17.8796 44.6572 18.3225 44.5135 18.5439 44.5719C18.6096 44.5925 18.6693 44.6286 18.718 44.6772C18.7666 44.7259 18.8028 44.7856 18.8235 44.8512C18.8701 44.9948 18.8311 45.1773 18.7185 45.2823C18.4779 45.5035 18.2487 45.7134 18.2022 45.8967C18.2614 45.9419 18.3183 45.9901 18.3726 46.0411C16.4512 45.5515 14.6024 44.8113 12.874 43.8395V43.8372Z" fill="#CEB052"/>
<path fill-rule="evenodd" clip-rule="evenodd" d="M33.5532 36.0778C33.5532 36.0778 34.1589 35.2701 34.3688 34.87C34.5785 34.4576 33.7048 29.2352 33.7048 29.2352L35.4602 23.4839L35.4133 21.612C35.4133 21.612 35.4988 19.8838 35.7008 19.1342C35.9417 19.5653 36.6913 20.0858 36.8543 20.3615C36.9311 19.8331 37.192 18.7187 37.1534 17.5304C37.297 17.7515 37.6426 19.977 37.6426 19.977L37.9882 21.4758L38.4387 23.0682L38.9397 24.7498L39.2387 25.911L39.4095 26.1906L39.5534 26.6798L39.6893 27.2082L40.0815 28.447L40.3119 29.4643L40.4944 31.3091C40.5341 31.4503 40.5627 31.5944 40.5799 31.7402C40.5876 31.9421 40.5528 32.0586 40.5528 32.0937C40.5528 32.1288 40.6188 32.5363 40.5917 32.8433C40.5528 33.1505 40.5528 33.3908 40.3119 33.6113C40.071 33.8317 39.9197 35.1491 39.9197 35.1491L39.4886 34.8618C39.4886 34.8618 39.5741 34.4694 39.3721 34.1123C39.1701 33.7551 38.7779 33.6811 38.5565 33.7395C38.3353 33.7861 37.8927 33.8557 37.7488 33.9802C37.6129 34.1043 37.279 34.4888 36.9721 34.6637C36.5881 34.8941 35.9624 34.9123 35.6286 34.9898C35.2907 35.0666 34.918 35.297 34.5255 35.5645C34.2178 35.7638 33.8929 35.9351 33.5548 36.0765L33.5532 36.0778Z" fill="#CCA847"/>
<path fill-rule="evenodd" clip-rule="evenodd" d="M33.5532 44.5632C33.5532 44.5632 33.5788 44.5798 33.6282 44.607C36.3873 43.3143 38.8594 41.482 40.8986 39.2182C40.8764 38.4323 40.8474 37.6266 40.8157 37.3281C40.7499 36.695 40.7965 36.0504 40.777 35.6777C40.7576 35.305 40.5479 33.7864 40.4509 33.3942C40.3459 33.002 40.1437 32.8077 40.113 32.8077C40.0858 32.8156 39.9225 33.5457 39.9225 33.7293C39.9225 33.9128 39.8836 34.3547 39.8836 34.4673C39.8565 34.4594 39.8449 34.3905 39.8449 34.3624C39.806 34.4594 39.7594 34.6304 39.74 34.6499C39.7205 34.6693 39.7671 34.4868 39.74 34.4479C39.7128 34.409 39.6632 34.4284 39.6739 34.3314C39.6785 34.2739 39.6876 34.2168 39.7011 34.1606C39.7011 34.1606 39.5846 34.3314 39.4993 34.7663C39.4138 35.1974 39.4138 35.2092 39.3829 35.2479C39.3557 35.2947 39.2003 35.4499 39.1924 35.5082C39.1847 35.6129 39.3363 35.7179 39.3478 35.776C39.3555 35.8733 39.2118 36.3236 39.1653 36.544C39.1187 36.7644 39.1381 37.1963 39.0885 37.4177C39.0495 37.6197 39.0117 37.7362 38.8788 37.8214C38.9758 37.8409 39.069 37.868 39.069 37.868C39.069 37.868 39.2049 38.4427 38.8593 38.9322C38.7352 39.103 38.7042 39.1808 38.5721 39.3362C38.3117 39.6234 38.1098 39.9506 38.0903 40.1633C38.0769 40.1005 38.0678 40.0369 38.0632 39.9729C38.0632 39.9729 37.6595 40.4429 37.4885 40.7109C37.2673 41.0565 36.9603 41.0371 36.8741 41.1226C36.7878 41.2081 36.7691 41.3632 36.7973 41.4876C36.7205 41.5068 36.5761 41.5342 36.4788 41.8332C36.4322 41.9883 36.3157 42.1404 36.1332 42.2449C35.9507 42.3493 35.7292 42.3808 35.6166 42.4079C35.7136 42.4351 35.7525 42.4351 35.7991 42.466C35.741 42.5631 35.473 42.7146 35.174 42.9089C34.8749 43.0915 34.7311 43.3592 34.6574 43.5341C34.5806 43.6972 34.4671 43.8021 34.2846 43.8216C34.3614 43.8682 34.4751 43.9767 34.5332 44.0118C34.4477 44.0312 34.3028 44.0312 34.044 44.2527C33.7721 44.4779 33.6789 44.544 33.5545 44.5635L33.5532 44.5632Z" fill="#C39D3C"/>
<path fill-rule="evenodd" clip-rule="evenodd" d="M28.1497 46.3629C28.2984 46.2586 28.4595 46.1733 28.6292 46.1087C29.2349 45.868 29.8757 45.8214 30.1281 45.7439C30.369 45.6671 30.5592 45.5611 30.8582 45.503C30.8503 45.5711 30.8436 45.6351 30.8364 45.6955C29.9549 45.9726 29.0572 46.1955 28.1484 46.3629H28.1497Z" fill="#D2BA6B"/>
<path fill-rule="evenodd" clip-rule="evenodd" d="M39.3218 30.4312C39.3218 30.4312 39.1977 31.103 38.9762 31.5264C38.7548 31.9498 38.5154 32.5361 38.5154 32.5361C38.5169 32.404 38.5325 32.2724 38.562 32.1436C38.2825 32.3067 37.6028 32.6991 37.41 32.8737C37.2275 33.0368 36.9205 33.3243 36.843 33.4602C37.0255 32.9244 37.2157 32.4429 37.2469 32.2214C36.9674 32.4234 35.6623 33.4991 34.9829 34.2098L32.8663 35.9224C32.622 36.0542 32.3705 36.172 32.1129 36.2752C31.7481 36.4303 31.3169 36.5624 30.9985 36.6868C31.084 36.4577 31.2197 36.2555 31.4101 36.0614C31.6121 35.8712 32.2178 35.2148 32.311 34.9094C32.3965 34.591 32.416 34.4008 32.3033 34.1327C32.1984 34.1599 31.9577 34.1716 31.7946 34.2182C31.6316 34.2648 31.4567 34.4394 31.4567 34.4394C31.4567 34.4394 31.5809 33.7288 31.8489 33.057C31.6469 33.0647 31.3013 33.1228 31.3013 33.1228C31.3013 33.1228 31.7829 32.3151 32.6069 31.7522C32.3546 31.8059 32.1076 31.8825 31.8691 31.9811C31.3876 32.183 30.8595 32.482 30.4673 32.6451C30.6885 32.3379 32.2419 30.121 33.1663 28.0548C34.0879 25.9927 34.4322 25.4646 34.6342 24.3579C34.7389 23.8103 34.711 23.0011 34.7389 22.2764C34.766 21.5578 34.8554 20.9132 34.7973 20.482C35.0379 20.7811 35.939 21.6238 35.97 23.5075C35.9971 25.3908 35.1081 27.9347 34.1642 29.3053C34.3946 29.3714 34.9916 29.4492 35.605 28.3837C36.2183 27.3183 36.2109 27.0208 36.4323 26.5779C36.4595 26.7994 36.4515 26.8769 36.4515 26.8769C36.4515 26.8769 37.345 25.7935 37.7682 24.4303C37.8537 25.0168 38.1061 25.5334 37.7098 26.6092C37.3565 27.5799 36.8944 27.817 36.8944 27.817C36.8944 27.817 37.1235 27.778 37.4612 27.5761C37.5196 27.7197 37.5081 27.8833 37.6051 27.9411C37.7021 27.999 37.8342 28.0965 37.8537 28.1897C37.9584 28.0343 38.1214 27.8362 38.1721 27.6887C38.1332 27.9959 38.1061 29.3391 38.2489 30.0227C38.5482 29.9955 38.8549 29.9761 39.0645 29.4362C38.9209 29.9645 38.9209 30.2828 39.0179 30.7333C39.1772 30.6248 39.3208 30.4305 39.3208 30.4305L39.3218 30.4312Z" fill="#C0993A"/>
<path fill-rule="evenodd" clip-rule="evenodd" d="M29.2313 9.02528C29.2313 9.02528 28.9323 9.14944 28.4236 9.14944C27.981 9.14944 28.1052 8.97869 27.414 8.97869C26.35 8.97869 22.6334 9.59309 21.9809 9.58438C21.5575 9.5767 23.4099 9.76691 23.4099 9.76691L28.1441 9.83296L29.0954 9.75616L29.4489 9.0368L29.2313 9.02528Z" fill="#A88F33"/>
<path fill-rule="evenodd" clip-rule="evenodd" d="M16.9554 18.2797C16.9554 18.2797 16.3494 18.7418 16.0932 19.0953C15.8369 19.4488 15.701 19.6815 15.4097 19.969C15.4781 19.9716 15.5464 19.9624 15.6117 19.9419C15.6117 19.9419 15.6117 20.0187 15.5651 20.0389C15.6053 20.0344 15.6461 20.039 15.6844 20.0523C15.7226 20.0655 15.7574 20.0872 15.7862 20.1157C15.7007 20.1623 15.4678 20.3955 15.6503 20.6712C15.7862 20.8809 16.0737 20.9001 16.0737 20.9001C16.0737 20.9001 16.0077 21.0906 16.2834 21.0711C16.8776 21.044 17.5416 20.7836 17.8483 20.8497C18.1555 20.9265 18.3301 20.9546 18.5475 21.3315C18.7779 21.7042 18.9786 21.7626 18.9786 21.7626C18.9786 21.7626 19.1145 21.4167 19.0835 20.9003C19.195 20.622 19.2568 20.3263 19.2661 20.0266L19.0641 18.5393L18.1827 17.4246L17.0409 18.0577L16.9554 18.2789V18.2797Z" fill="#E3C571"/>
<path fill-rule="evenodd" clip-rule="evenodd" d="M18.0386 18.0582C18.0386 18.0582 18.1241 18.2602 18.4815 18.2794C18.4425 18.3649 18.4425 18.3767 18.4543 18.4425C18.462 18.5085 18.4735 18.6056 18.4735 18.6056C18.5129 18.5865 18.5484 18.5605 18.5785 18.5288C18.5979 18.6143 18.559 18.75 18.5785 18.8472C18.5905 18.9064 18.61 18.9638 18.6366 19.018C18.6423 19.0047 18.6488 18.9918 18.656 18.9793C18.6637 18.9599 18.7328 19.189 18.9241 19.3633C18.9239 19.3365 18.9305 19.3101 18.9433 19.2865C18.9462 19.3352 18.9623 19.3822 18.9899 19.4225C18.9756 19.4156 18.9625 19.4065 18.9512 19.3953C18.9512 19.3953 18.9704 20.0097 19.0754 20.3274C19.0929 20.3069 19.1085 20.2848 19.122 20.2614C19.122 20.2422 19.1143 20.4324 19.0948 20.5686C19.0677 20.7045 19.0871 20.8947 19.0871 20.8947C19.1572 20.8396 19.2341 20.7939 19.316 20.7588C19.4325 20.7119 19.6232 20.5683 19.7394 20.2499C19.8069 20.0695 19.8588 19.8837 19.8948 19.6946C19.9324 19.7669 19.9583 19.8446 19.9716 19.925C19.9796 20.022 20.1621 19.9716 20.1621 19.9716L20.201 19.5482L20.4314 18.5889L20.6411 17.9948L21.6507 16.4221L23.475 15.0172L25.0673 15.3823L26.4108 13.557L24.0963 12.1667L21.906 12.3958L19.9181 15.1491L18.3261 17.6463L18.0386 18.058V18.0582Z" fill="#D8B65B"/>
<path fill-rule="evenodd" clip-rule="evenodd" d="M29.5106 14.0739C29.5106 14.0739 29.3747 14.101 28.9825 14.3043C28.5903 14.5075 28.3184 14.572 28.1669 14.871C28.0153 15.17 28.0038 15.4071 28.0038 15.4071C28.0038 15.4071 28.2718 15.2906 28.4272 15.2517C28.5903 15.2131 28.7728 15.2246 28.7534 15.2906C28.7347 15.3359 28.7088 15.3779 28.6766 15.4148C28.6766 15.4148 28.9838 15.4071 28.9756 15.5587C28.9674 15.7102 28.9175 15.8771 28.8594 15.9508C28.801 16.0276 28.5603 16.1413 28.5332 16.2307C28.4672 16.4132 28.5603 16.4209 28.5253 16.5683C28.4981 16.7122 28.3701 16.9917 27.9506 17.481C27.5194 17.9704 27.3362 18.316 27.3362 18.316C27.3362 18.316 27.1265 17.9238 27.0177 17.5859C26.9409 17.6246 26.5285 17.8537 26.5285 17.8537L25.5731 14.5257L25.5923 14.3043C25.5923 14.3043 25.6778 14.1996 25.6972 14.0052C25.5536 13.9587 25.5342 13.9197 25.3437 13.7375C25.1532 13.5552 24.9981 13.3335 24.6799 13.182C24.6333 13.0964 24.5749 12.9802 24.342 12.9334C24.109 12.8865 23.9692 12.8481 23.9692 12.8481C23.9692 12.8481 24.0934 12.8013 24.1518 12.7043C24.0079 12.7237 23.8917 12.7703 23.577 12.7626C23.2586 12.7547 23.2235 12.7432 23.0489 12.7703C22.8743 12.7974 22.6649 12.8753 22.5868 12.6072C22.5013 12.5412 22.3188 12.5996 22.1634 12.8284C22.008 13.0573 21.9538 13.2401 21.6547 13.3294C21.6337 13.4612 21.5876 13.5877 21.5188 13.7021C21.4333 13.846 21.2974 13.9896 21.1148 14.2031C20.8274 14.5411 20.8739 15.0963 20.4157 15.5197C19.9536 15.9429 20.4925 14.3468 20.4925 14.3468L21.2303 12.5804L23.3313 10.526L26.5935 10.3048L26.912 11.9944L28.5043 12.542L29.5101 14.0759L29.5106 14.0739Z" fill="#D3AE4D"/>
<path fill-rule="evenodd" clip-rule="evenodd" d="M30.0272 14.4466L28.6563 12.47L27.6971 11.732C27.6971 11.732 27.0136 10.474 26.967 10.4351C26.9281 10.4079 26.2835 10.338 25.8718 10.3109L25.9486 10.5011C26.0385 10.5303 26.1183 10.5841 26.179 10.6565C26.3616 10.8662 26.478 11.2622 26.0626 11.6856C26.2256 11.7437 26.293 11.7624 26.4353 11.7437C26.2917 11.9148 25.9655 12.2798 25.9461 12.5983C25.9266 12.8584 26.0897 12.9359 26.0897 12.9359C26.0897 12.9359 25.8411 13.2234 25.8296 13.7039C25.947 13.5716 26.0754 13.4494 26.2136 13.3389C26.5011 13.1085 26.8971 12.8494 27.1651 12.6863C27.1615 12.7548 27.1707 12.8233 27.1923 12.8883C27.1923 12.8883 27.693 12.4767 28.1139 12.6592C28.3041 12.7447 28.2186 13.0127 28.2186 13.0127C28.2186 13.0127 28.4789 12.9157 28.6615 13.0982C28.844 13.2808 29.1041 13.7505 29.2362 13.9333C29.2943 14.0188 29.4458 14.1819 29.601 14.4341C29.813 14.7875 29.9899 15.1608 30.1294 15.5487C30.137 15.3933 30.1683 15.1759 30.4366 15.1759L30.0288 14.4458L30.0272 14.4466Z" fill="#CAA13E"/>
<path fill-rule="evenodd" clip-rule="evenodd" d="M9.47574 20.0622C9.47574 20.0622 9.37871 19.8213 9.47574 19.3516C9.57276 18.8818 9.72431 18.6604 9.77475 17.9692C9.82518 17.278 10.2757 16.4157 10.2757 16.4157L11.5222 15.849L12.4039 16.0896L12.664 17.2703L11.5493 17.8847C11.5493 17.8847 11.4912 18.1448 11.1766 18.3544C10.862 18.5641 10.427 18.7272 10.3223 18.9409C10.2597 19.0718 10.2141 19.2102 10.1864 19.3526C10.1864 19.3526 9.86793 19.2865 9.67772 19.4962C9.47574 19.71 9.48342 19.9002 9.47574 20.0632V20.0622Z" fill="#F4EFC8"/>
<path fill-rule="evenodd" clip-rule="evenodd" d="M11.9922 19.7476C11.9922 19.7476 11.8873 19.8136 11.8097 19.978C11.7329 19.8538 11.5494 19.1158 11.5417 18.4517C11.534 17.7877 11.4943 17.623 11.6479 17.3942C11.8015 17.1653 12.4039 16.9242 12.3184 16.512C12.2329 16.1198 11.8755 15.9567 11.4367 16.0694C11.1295 16.1462 10.9009 16.7995 10.5824 17.1256C10.3415 17.3742 10.0543 17.3353 9.97675 17.4712C9.87179 17.6538 9.96881 17.8363 9.93783 17.9528C9.9299 17.9917 9.83287 18.2013 9.65803 18.4538C9.30475 18.9624 8.70673 19.681 8.62891 20.3256C8.65604 19.9606 8.63684 19.9529 8.73387 19.5489L8.6755 19.4519L9.0595 18.1937L9.30807 17.1569L9.86359 15.4207L10.842 13.6461L11.7936 12.5819L12.7838 12.6479L12.9003 14.1353L13.4673 16.9277L14.6595 18.3957L12.7487 19.6815L11.9915 19.7476H11.9922Z" fill="#EBCC73"/>
<path fill-rule="evenodd" clip-rule="evenodd" d="M12.5863 20.2752C12.5863 20.2752 12.4232 20.3141 12.3648 20.2831C12.3065 20.2522 12.2486 20.2171 12.2678 20.1782C12.287 20.1393 12.392 20.0735 12.392 20.0422C12.3941 20.014 12.3852 19.9861 12.3671 19.9643C12.349 19.9426 12.3231 19.9287 12.2949 19.9258C12.2056 19.9142 12.1785 19.9723 12.1785 19.9723C12.1785 19.9723 12.093 19.9066 12.0233 19.8955C12.0645 19.8905 12.106 19.8879 12.1475 19.8876C12.0402 19.839 11.9263 19.8063 11.8096 19.7906C11.9066 19.7325 12.0971 19.5615 12.2212 19.5615C12.3454 19.5615 12.4232 19.5423 12.4037 19.4762C12.3843 19.4102 12.2873 19.3131 12.1826 19.2742C12.2212 19.2276 12.2486 19.1578 12.1554 18.967C12.0581 18.7768 12.0971 18.6486 12.1283 18.6022C12.1554 18.5439 12.2525 18.4392 12.299 18.3731C12.3456 18.3071 12.3845 18.2177 12.4621 18.1711C12.501 18.144 12.6252 18.0943 12.7496 18.047C12.8855 18.0004 12.9982 17.942 13.0757 18.0004C13.1612 18.0585 13.1223 18.1363 13.1223 18.1363C13.1223 18.1363 13.3904 18.039 13.631 18.1635C13.8719 18.2797 14.4584 18.3537 14.4584 18.3537L14.6686 18.7771L13.2782 19.9693L12.7035 20.2568L12.587 20.276L12.5863 20.2752Z" fill="#E5C66B"/>
<path fill-rule="evenodd" clip-rule="evenodd" d="M14.5166 18.3263C14.5166 18.3263 14.0855 18.6138 13.9885 18.7185C14.0466 18.7264 14.1436 18.7653 14.1047 18.8234C14.0581 18.8815 13.7786 19.0835 13.6232 19.274C13.4601 19.4642 13.3047 19.7051 13.2504 19.8216C13.1923 19.9263 12.7494 20.2332 12.5981 20.2719C12.9166 20.2719 13.5574 19.8797 13.798 19.8797C13.7903 19.9962 13.8641 20.1283 14 20.1398C14.1359 20.1513 14.5281 20.2253 15.0563 19.8991C15.5844 19.5807 15.4098 19.3436 15.631 19.1885C16.0544 18.9087 16.2252 18.6601 16.4581 18.505C16.6911 18.3498 16.8116 18.3145 16.8116 18.3145C16.8116 18.3145 16.8193 18.198 16.8884 18.2098C16.9074 18.212 16.9253 18.2193 16.9404 18.2309C16.9555 18.2425 16.9671 18.2581 16.974 18.2758C16.974 18.2758 17.3779 17.9884 17.8956 17.9108C17.8835 17.9054 17.8738 17.8957 17.8684 17.8837C17.8684 17.8837 17.9071 17.8642 17.915 17.8447C17.915 17.8447 17.9421 17.8058 17.9616 17.8253C17.9811 17.8447 18.0082 17.9884 18.0471 18.0467C18.1326 18.0078 18.2957 17.6428 18.2957 17.6428L18.6881 16.5205V15.4952L18.3809 15.5535L16.0769 16.532L14.6787 17.9807L14.5156 18.3263H14.5166Z" fill="#E6BD62"/>
<path fill-rule="evenodd" clip-rule="evenodd" d="M21.1493 13.2972C21.2739 13.2669 21.3934 13.2184 21.5039 13.1533C21.4573 13.2777 21.4573 13.4136 21.2553 13.7088C21.0533 14.004 21.0456 14.0467 20.8826 14.3534C20.7195 14.6719 20.7 15.1301 20.5446 15.3318C20.6143 15.298 20.689 15.2758 20.7658 15.2661C20.7658 15.2661 20.6107 15.402 20.5446 15.5456C20.4786 15.6892 20.3621 15.9882 20.0749 16.171C19.7876 16.3538 19.4223 16.47 19.0301 16.9011C18.6377 17.3243 18.234 17.8604 18.0317 18.0531C18.1367 17.8706 18.2803 17.5055 18.3192 17.2649C18.3581 17.0243 18.3113 16.7365 18.3773 16.4183C18.4434 16.1001 18.4434 15.8707 18.7613 15.3152C19.0793 14.7597 19.6235 12.8297 19.6235 12.8297L20.7963 12.457L21.1498 13.2959L21.1493 13.2972Z" fill="#B6933F"/>
<path fill-rule="evenodd" clip-rule="evenodd" d="M20.3027 12.5865C20.3027 12.5865 19.9494 13.0952 19.8524 13.5457C19.7553 13.9963 19.8444 13.9574 19.7863 14.1788C19.7516 14.3138 19.7516 14.4554 19.7863 14.5905C19.9087 14.3934 20.0762 14.2282 20.275 14.1087C20.6091 13.9069 20.881 13.7631 21.043 13.5923C21.2061 13.4098 21.342 13.1108 21.6953 12.8817C21.5517 12.8622 21.3497 12.7962 21.3113 12.8049C21.4552 12.6418 21.886 12.3932 22.321 12.0942C22.7521 11.787 22.7249 11.6631 23.4241 11.3564C23.195 11.3953 23.0862 11.337 22.8957 11.3564C22.9725 11.1933 23.2413 11.1155 23.5101 10.8477C23.7789 10.58 23.3393 10.1837 23.3393 10.1837L21.2913 11.4225L20.3011 12.5875L20.3027 12.5865Z" fill="#C49937"/>
<path fill-rule="evenodd" clip-rule="evenodd" d="M14.7456 11.6621L14.7922 11.2893L15.3787 10.3496L15.9923 8.69913V6.44275L15.9457 5.13792L16.0428 4.28339L16.1165 4.01177L16.1943 3.90681L16.695 4.16691L17.3865 5.10669L17.4525 6.92045L16.7805 9.78253L14.8621 11.8758L14.7456 11.6621Z" fill="#DFC068"/>
<path fill-rule="evenodd" clip-rule="evenodd" d="M16.2719 3.80186C16.2719 3.80186 15.9647 3.80979 15.8992 5.08749C15.8337 6.36519 15.8019 7.03693 15.7553 7.67002C15.7087 8.30311 15.6002 8.68736 15.5457 9.06035C15.4911 9.43335 15.4602 9.94176 15.2856 10.2525C15.2088 10.3962 15.0447 10.8467 14.6602 11.1846C14.2291 11.5574 13.585 11.8177 13.4874 11.8372C13.3164 11.8758 12.4504 11.9613 12.0971 12.1556C11.9729 12.2217 11.7592 12.2993 11.5224 12.5207C11.0524 12.9439 10.4272 13.7011 9.97664 14.6138C9.28544 15.977 8.59424 19.8254 8.59424 19.8254L8.74963 19.5653C8.74963 19.5653 8.76909 19.2197 9.11469 18.6138C9.45261 18.0081 9.35558 17.3284 9.82534 16.1672C10.0079 15.7245 10.237 15.1498 10.5165 14.6604C10.9594 13.8642 11.4952 13.1807 12.0351 12.8079C12.9165 12.2022 13.8876 12.0701 13.8876 12.0701L14.9323 11.3789C14.9323 11.3789 15.1148 11.0257 15.3557 10.6217C15.6934 10.0549 16.1237 9.42183 16.2177 8.50151C16.3615 7.13831 16.0157 6.24512 16.0351 5.43744C16.0546 4.62976 16.0623 4.03559 16.2256 3.89171C16.3889 3.74784 16.2722 3.80237 16.2722 3.80237L16.2719 3.80186Z" fill="#A88F33"/>
<path fill-rule="evenodd" clip-rule="evenodd" d="M16.272 9.89901C16.272 9.89901 16.7328 8.76493 16.9437 7.75911C16.9826 7.55712 17.0602 7.35539 17.0797 7.19232C17.1767 6.24077 17.2038 5.84858 17.0797 5.32813C16.9826 4.94413 16.6099 4.59802 16.4156 4.32973C16.2254 4.04992 16.1361 3.94573 16.175 3.88685C16.2139 3.82797 16.3652 3.73171 16.5126 3.74323C16.6694 3.7478 16.8236 3.78419 16.9658 3.8502C17.108 3.91622 17.2354 4.01047 17.34 4.12723C17.639 4.47283 17.8758 5.64583 17.8758 5.64583L18.1249 7.1936L18.758 9.14304L16.2725 9.90055L16.272 9.89901Z" fill="#C99E3D"/>
<path fill-rule="evenodd" clip-rule="evenodd" d="M20.6018 8.71859C20.6018 8.71859 20.5163 8.75725 20.3611 8.71859C20.3678 8.78199 20.3568 8.84598 20.3293 8.90353C20.3019 8.96107 20.2592 9.00993 20.2058 9.04474C20.0427 8.97869 18.5162 9.11078 18.5162 9.11078C18.5162 9.11078 17.8055 8.98637 17.5841 8.04659C17.4289 7.42118 17.7005 6.55923 17.6112 5.99219C17.4753 5.15712 17.2851 4.99379 17.2656 4.73395C17.2461 4.47411 17.2267 4.40781 17.2267 4.24473C17.1412 4.22528 17.0907 4.19814 17.0055 4.19814C16.986 4.12134 17.0247 4.05427 16.9395 3.91833C16.986 3.93779 17.3045 3.9767 17.6772 4.32998C17.9844 4.61747 17.9844 4.72218 18.0308 4.78054C18.0889 4.83866 18.5589 5.24134 18.7609 5.64275C18.9629 6.04416 19.3551 7.32416 19.4444 7.53382C19.4715 7.61933 19.5299 7.70483 19.6748 7.89888C19.9001 8.17869 20.2301 8.64128 20.6028 8.71808L20.6018 8.71859Z" fill="#B58634"/>
<path fill-rule="evenodd" clip-rule="evenodd" d="M18.0854 4.8C18.3207 5.18003 18.5321 5.57435 18.7183 5.98067C18.9474 6.49702 19.0833 6.92045 19.3708 7.26605C19.2154 6.81574 18.9397 5.93024 18.7766 5.61562C18.5941 5.28282 18.2214 4.92442 18.0854 4.80026V4.8Z" fill="#A88F33"/>
<path fill-rule="evenodd" clip-rule="evenodd" d="M15.4449 11.1846C15.4449 11.1846 15.0527 11.2817 14.3226 11.6662C14.0817 11.7903 13.8528 11.895 13.6314 11.9923C13.0561 12.2524 12.4392 12.4928 11.9497 12.6254C11.9886 12.672 12.0078 12.6912 12.0078 12.6912C12.0078 12.6912 12.0078 12.8817 12.1128 12.9902C12.0547 13.0486 11.2777 13.5767 11.5071 15.3436C11.6622 15.2855 11.8447 15.2077 11.8719 15.2077C11.9187 15.2156 11.9302 15.3436 11.9884 15.3436C12.0465 15.3436 12.2369 15.2668 12.4389 15.0057C12.4312 15.1107 12.3148 16.1669 12.9399 16.8776C13.0564 16.7416 13.3516 16.2911 13.3516 16.2911L13.3592 16.1475C13.3592 16.1475 13.3864 15.6465 13.5497 15.1882C13.713 14.73 14.0312 14.3921 14.0312 14.3921L15.6929 12.0192L15.4444 11.1844L15.4449 11.1846Z" fill="#E6C367"/>
<path fill-rule="evenodd" clip-rule="evenodd" d="M13.8915 14.6688C13.8154 14.7226 13.7316 14.7644 13.6429 14.793C13.6158 14.6959 13.5769 14.3619 13.806 14.0357C14.074 13.6433 14.6602 13.1346 14.8233 12.7301C14.9283 12.4698 14.8817 11.8175 15.8138 10.9824C16.7459 10.1473 17.1107 9.8601 17.1107 9.8601L18.6175 9.10285L20.4699 9.83296L19.5496 13.44L18.8351 15.1296L15.9935 14.5938L13.8912 14.6688H13.8915Z" fill="#DCBA5A"/>
<path fill-rule="evenodd" clip-rule="evenodd" d="M14.9761 13.6893L15.3296 13.2467V12.9321C15.3296 12.9321 15.7218 12.8271 16.145 12.396C16.5681 11.9649 17.1546 11.1378 17.6712 11.1882C18.1879 11.2466 18.2383 12.3105 18.2577 12.6098C18.2772 12.9091 18.3432 13.5882 18.4479 13.9535C18.5644 14.3186 17.1897 15.701 17.1897 15.701L16.2561 16.4116L14.9761 13.6893Z" fill="#E9CE77"/>
<path fill-rule="evenodd" clip-rule="evenodd" d="M16.0698 17.3747C16.0698 17.3747 16.3573 16.9242 16.1466 16.8271C16.2708 16.5476 16.4999 16.2524 16.4999 16.2524C16.4999 16.2524 16.663 15.8487 17.1911 15.3516C17.7192 14.8544 18.0456 14.5242 18.1311 14.1903C18.1838 13.9728 18.2125 13.7501 18.2166 13.5263C18.2737 13.5729 18.3348 13.6145 18.3992 13.6504C18.4847 13.6893 18.8884 14.0232 18.8303 14.6952C18.7722 15.3672 18.5231 15.6467 18.5231 15.6467C18.5231 15.6467 18.2824 15.8874 18.1117 16.0118C17.9289 16.1359 17.8631 16.2796 17.5562 16.2913C17.5877 16.2662 17.6232 16.2465 17.6611 16.233C17.6611 16.233 17.3427 16.1943 17.1716 16.3494C17.0006 16.5046 16.6371 16.9825 16.4546 17.1264C16.2721 17.2429 16.0706 17.375 16.0706 17.375L16.0698 17.3747Z" fill="#CDAE50"/>
<path fill-rule="evenodd" clip-rule="evenodd" d="M28.9823 9.82119C28.5235 9.65397 28.0414 9.55964 27.5533 9.54163C26.7377 9.5145 25.5455 9.56109 24.3766 9.56877C23.1184 9.57645 21.9766 9.13767 20.3923 9.0601C20.1322 8.90471 19.4707 8.22503 17.4058 9.66579C17.5299 9.65811 18.9049 9.34733 19.3823 9.9456C19.8639 10.5398 19.7279 11.5494 19.6621 11.7901C19.5377 12.3261 19.1338 13.1067 18.9709 13.6543C18.8081 14.2019 18.8465 14.4896 18.7301 14.8736C18.6136 15.2576 18.3573 15.4483 18.5086 15.8909C18.7106 15.7668 18.8158 15.7668 19.1532 15.0095C19.4906 14.2523 19.4213 13.7124 19.9806 13.0716C20.5282 12.427 21.4398 11.5453 21.7864 11.3239C22.1331 11.1025 24.8853 9.67347 27.7671 11.0367C28.4621 10.9629 28.9826 9.82093 28.9826 9.82093L28.9823 9.82119Z" fill="#D2A83E"/>
<path fill-rule="evenodd" clip-rule="evenodd" d="M18.5669 9.2928C18.564 9.26361 18.5576 9.2349 18.5477 9.20729C18.5208 9.1505 18.4854 9.09811 18.4427 9.0519C18.4427 9.0519 17.7592 8.92774 17.4136 8.9664C16.8077 9.03245 16.2601 9.78201 16.0038 10.1665C15.7476 10.551 15.4291 11.145 15.0835 11.4519C15.0873 11.422 15.0804 11.3917 15.0641 11.3664C15.0641 11.3664 15.0835 11.3935 15.0449 11.4324C15.0062 11.4714 15.0059 11.4906 15.0254 11.5092L15.0838 11.5674C15.103 11.5674 15.639 11.3265 16.3691 10.6458C17.1458 9.9351 17.74 9.57056 18.0508 9.44563C18.2165 9.3752 18.3898 9.32392 18.5672 9.2928H18.5669Z" fill="#C29637"/>
<path fill-rule="evenodd" clip-rule="evenodd" d="M31.8256 6.37286C31.8256 6.37286 31.7012 6.528 31.5458 6.69901C31.2002 7.06406 30.7496 7.47546 30.3651 7.89888C30.0003 8.30285 29.5887 8.61747 29.1263 9.1456C28.664 9.67373 28.1279 10.26 27.9922 10.431C27.8681 10.602 27.7711 10.8815 27.7711 11.0252C27.705 10.9786 27.6274 10.9281 27.6274 10.9281C27.6601 10.9891 27.6991 11.0464 27.7439 11.0991C27.8409 11.2351 27.9922 11.4063 28.0701 11.5108C28.1655 11.6437 28.2341 11.7941 28.2718 11.9534C28.3184 11.9611 28.6174 12.0195 28.9904 11.4058C29.3634 10.7922 29.8523 10.1204 29.8523 10.1204L30.629 8.96691L31.1185 7.98848L31.7329 6.89331L31.8264 6.37286H31.8256Z" fill="#AC8132"/>
<path fill-rule="evenodd" clip-rule="evenodd" d="M32.6214 5.58848C32.6214 5.58848 32.1514 5.97248 31.9689 6.20288C31.7864 6.43328 31.3545 7.03795 31.3545 7.03795L31.5099 7.0185L32.2984 6.31962L32.6056 5.77203L32.6212 5.58951L32.6214 5.58848Z" fill="#A88F33"/>
<path fill-rule="evenodd" clip-rule="evenodd" d="M32.4776 36.4506C32.4776 36.4506 32.47 36.1321 32.6486 35.9419C32.8312 35.7514 33.2933 35.4719 33.7438 34.4233C34.1944 33.3747 34.2445 33.1379 34.2445 33.1379C34.2445 33.1379 33.4369 33.8291 32.9389 33.9922C33.0554 33.7513 33.1215 33.5805 33.1798 33.4561C33.1138 33.398 32.8342 33.332 32.8071 33.301C32.9622 33.1456 33.0477 32.7649 33.3624 32.5125C33.7663 32.2053 34.5041 31.6774 35.0776 31.2069C35.651 30.7364 36.7784 29.642 36.9223 29.3235C37.0078 29.4477 37.027 29.5252 37.027 29.5252C37.027 29.5252 36.4602 30.2633 36.1651 30.7331C35.9047 31.137 35.9242 31.3661 35.9242 31.3661L36.4602 31.1357C36.4602 31.1357 36.6154 31.7105 35.9126 32.5844C36.2198 32.468 36.3437 32.5379 36.5183 32.4406C36.2309 32.6234 35.8348 32.8719 35.4621 33.5552C35.097 34.2387 34.5999 35.0349 33.7612 35.5318C32.9456 36.0561 32.4756 36.4483 32.4756 36.4483L32.4776 36.4506Z" fill="#A67A2E"/>
<path fill-rule="evenodd" clip-rule="evenodd" d="M30.3729 10.2254C30.3729 10.2254 30.0544 10.8892 30.0078 11.4058C30.0001 11.5302 29.9689 11.6273 29.9689 11.7709C29.9612 12.233 29.996 12.7496 29.8921 12.9902C29.8532 12.8932 29.8337 12.8271 29.7948 12.7885C29.7367 12.9516 29.6317 13.4602 29.5462 13.6504C29.5076 13.5263 29.4221 13.0952 29.43 12.5865C29.4379 12.0778 29.4492 11.9805 29.4492 11.8758C29.43 12.031 29.3251 12.2409 29.2861 12.3651C29.228 12.2604 29.162 12.1244 29.0842 12.0118C29.0376 12.0886 28.9795 12.202 28.929 12.2604C28.9211 12.2138 28.9019 12.0893 28.8901 11.9148C28.8824 11.7128 28.8707 11.4527 28.8824 11.3981C28.9016 11.2934 29.065 10.8818 29.4106 10.505C29.8222 10.0544 30.2456 9.18861 30.3698 8.92058C30.4939 8.65255 31.0221 7.53818 31.0221 7.53818H31.426L30.8395 8.87399C30.8395 8.87399 30.4863 9.6041 30.3037 9.87239C30.1212 10.1407 29.7367 10.9094 29.5657 11.2084C29.6899 11.0454 29.7948 10.9599 29.9192 10.8045C30.0395 10.6957 30.3734 10.2259 30.3734 10.2259L30.3729 10.2254Z" fill="#8C6228"/>
<path fill-rule="evenodd" clip-rule="evenodd" d="M32.6292 5.53779C32.5632 5.74088 32.4589 5.92946 32.322 6.09331C32.0811 6.3808 31.5645 6.76506 31.3123 7.07174C31.0819 7.37075 30.6211 8.18637 30.8305 9.15328C30.9073 8.94362 31.052 8.52813 31.4365 8.05811C31.821 7.5881 32.2327 7.04845 32.4349 6.62912C32.6366 6.2057 32.6638 5.87187 32.6638 5.87187L32.7406 5.77485L32.694 5.55341L32.6279 5.53779H32.6292Z" fill="#CBA94C"/>
<path fill-rule="evenodd" clip-rule="evenodd" d="M40.4935 31.297C40.4935 31.297 40.3381 30.8739 40.2915 30.4893C40.2449 30.1048 40.3683 30.0285 40.2255 29.5885C40.14 29.3204 39.9848 29.3581 39.9459 29.3204C39.907 29.2828 39.8799 28.8778 39.8875 28.6564C39.8952 28.4349 39.8799 28.1477 39.8409 28.0233C39.7828 27.9767 39.7439 27.9378 39.6584 27.6506C39.5614 27.3631 39.5148 27.2195 39.4682 27.1342C39.4216 27.049 39.2854 26.9711 39.2854 26.8856C39.2854 26.7146 39.4408 26.6255 39.4408 26.5784C39.4331 26.4814 39.3167 26.5592 39.2854 26.5318C39.2468 26.4852 39.3827 26.2057 39.3323 26.1668C39.3128 26.1476 39.1769 26.3107 39.1418 26.2641C39.1029 26.2172 39.0563 25.7551 38.9864 25.4484C38.9206 25.1494 38.8505 24.9321 38.8428 24.8428C38.8351 24.7572 38.3067 23.2504 38.1787 22.8854C38.0756 22.5769 37.9888 22.2632 37.9186 21.9456C37.8797 21.7631 37.8526 21.3901 37.8331 21.429C37.8137 21.4679 37.8255 21.6581 37.7942 21.6504C37.7671 21.6425 37.6701 20.9787 37.6391 20.8737C37.612 20.7688 37.4486 20.4129 37.4087 20.1554C37.3698 19.895 37.2845 19.2154 37.2262 18.7533C37.1678 18.2912 37.1407 18.101 37.1407 17.9853C37.1502 17.7023 37.1346 17.419 37.0941 17.1387C37.0173 16.6492 36.8637 16.055 36.729 15.7097C36.4689 15.0572 35.7775 13.3873 35.6538 12.9718C35.6538 12.8668 35.7897 12.9252 35.7897 12.9252C35.7897 12.9252 36.1274 13.7718 36.376 14.4241C36.6169 15.0766 36.846 15.6513 36.9044 15.7097C36.951 15.7678 37.316 16.4086 37.4791 17.4572C37.6422 18.5057 37.7003 19.4726 37.7976 20.1172C37.8441 20.4244 37.8831 20.7503 37.9801 21.0765C38.0848 21.43 38.2479 21.7951 38.4616 22.3542C38.6441 22.8242 38.7801 23.2164 38.8538 23.5543C38.9393 23.9854 38.9393 24.3116 38.9897 24.5253C39.0366 24.7078 39.1062 25.0726 39.2696 25.6005C39.4329 26.1284 39.6733 26.8083 39.8363 27.2315C40.1551 28.0781 40.2971 28.7849 40.3453 29.1617C40.3878 29.5501 40.5316 30.8938 40.4927 31.2975L40.4935 31.297Z" fill="#A88F33"/>
<path fill-rule="evenodd" clip-rule="evenodd" d="M32.6487 5.4912L32.6292 5.53779C32.6292 5.53779 32.6873 5.55725 32.6758 5.63507C32.6766 5.74155 32.6701 5.84795 32.6564 5.95354C32.6372 6.08947 32.5983 6.19418 32.5906 6.27968C32.5906 6.46221 32.6177 6.67187 32.3602 7.19232C32.2834 7.33594 32.236 7.4601 32.1971 7.5456C32.1001 7.75526 32.0806 7.7865 31.9951 7.88352C32.1311 7.80672 32.6205 7.49952 32.8688 7.5456C32.6981 7.64262 32.4377 7.83309 32.2747 8.08167C32.3136 8.08934 32.4767 8.12058 32.7355 8.08167C33.1666 8.01562 33.6481 7.86022 34.0713 7.8912C34.5336 7.91834 34.3511 7.33594 34.3511 7.33594L33.8176 6.1632L32.8079 5.4528L32.6487 5.49146V5.4912Z" fill="#BE9C44"/>
<path fill-rule="evenodd" clip-rule="evenodd" d="M35.2815 14.2758C35.2815 14.2758 34.8309 13.8253 34.6484 12.279C34.4658 10.7256 34.5048 8.43904 34.5048 8.43904L34.1397 7.54586C34.1397 7.54586 34.0629 6.95168 33.8717 6.7305C33.6804 6.50931 33.3049 6.13632 33.1339 5.95379C32.9629 5.77126 32.7688 5.52269 32.6523 5.48378C32.7105 5.38675 32.9708 4.83917 33.9687 4.83149C34.9666 4.82381 35.2743 5.37907 35.3785 5.58106C35.4827 5.78304 35.9532 6.65626 36.1278 8.32026C36.2909 9.98221 36.2988 10.1066 36.2717 10.6813C36.2522 10.9998 36.1473 11.7376 35.9645 12.5258C35.7976 13.194 35.615 13.9397 35.281 14.2774L35.2815 14.2758Z" fill="#A17C34"/>
<path fill-rule="evenodd" clip-rule="evenodd" d="M33.8688 15.6001C34.019 15.611 34.169 15.5771 34.2999 15.5028C34.4436 15.4952 34.964 15.5612 35.3639 15.0525C35.391 15.1688 35.4612 15.4836 35.2784 15.7632C35.3757 15.6659 35.5193 15.6273 35.5387 15.6001C35.5464 15.7437 35.6823 16.1864 35.1076 17.2621C35.2628 17.0913 35.4453 17.099 35.6084 17.0796C35.6163 17.2815 35.7248 17.961 35.4376 18.3263C35.2474 18.5748 34.9366 18.497 34.9366 18.497C34.9412 18.4428 34.9412 18.3882 34.9366 18.334C34.9289 18.229 34.89 18.1243 34.9174 18.0544C34.7672 17.9858 34.6305 17.8911 34.5134 17.7746C34.1755 17.4561 33.7367 16.9126 33.7058 16.5087C33.6669 16.0581 34.0708 15.9611 34.0708 15.9611C34.037 15.9308 34.0081 15.8954 33.9853 15.8561C33.9659 15.7903 33.9464 15.6854 33.8688 15.6001Z" fill="#8C6228"/>
<path fill-rule="evenodd" clip-rule="evenodd" d="M30.8737 10.7146C30.8737 10.7146 30.8542 10.6875 30.7495 10.8116C30.769 10.6875 30.7884 10.5708 30.7961 10.4581C30.8457 10.3538 30.9098 10.2571 30.9866 10.1709C30.9282 10.2871 30.8893 10.3921 30.8893 10.3921C30.8893 10.3921 31.0332 10.124 31.2428 9.96096C31.3864 9.84448 31.569 9.79021 31.6465 9.68141C31.732 9.56493 31.7126 9.54547 31.732 9.52602C31.732 9.52602 31.9225 9.40186 32.2138 9.03654C32.2525 8.98995 32.3109 8.93952 32.3498 8.89293C32.4156 8.86579 32.571 8.7959 32.7535 8.70246C32.9439 8.59776 33.1574 8.45414 33.2895 8.39526C33.5496 8.27878 33.8256 8.29056 33.9536 8.10778C34.0506 8.08064 34.1553 7.78931 34.1361 7.54099C34.2797 7.5991 35.0175 8.05734 35.2702 9.05933C35.4527 9.76998 35.1263 10.8652 34.9904 11.3935C34.8545 11.9219 34.8353 12.3139 34.6448 12.5545C34.4039 12.8732 33.6275 13.3225 33.437 13.545C33.2739 13.7275 32.7847 14.1896 32.8039 14.5234C32.8234 14.772 33.1301 14.9074 33.1964 14.9545C33.2627 15.0016 33.2622 15.0595 33.3866 15.0313C33.511 15.0031 33.5573 14.9458 33.608 14.9458C33.6661 14.9535 33.6661 14.9652 33.6933 14.9652C33.7129 14.9647 33.7325 14.962 33.7516 14.9573C33.7516 14.9573 33.7322 15.3108 32.905 15.4181C32.8467 15.426 32.7886 15.4452 32.7146 15.457C32.8118 15.4104 32.87 15.4104 32.9749 15.2668C32.8584 15.2474 32.5244 15.2279 32.4389 15.2008C32.466 15.1542 32.5553 15.0298 32.6291 14.9716C32.6951 14.9135 32.6214 14.8948 32.5633 14.9251C32.4632 14.9931 32.3672 15.067 32.2758 15.1462C32.1788 15.2317 32.0933 15.3482 31.9379 15.4534C31.8913 15.298 31.8989 15.0029 32.0817 14.7894C32.0349 14.7971 31.9455 14.933 31.8603 14.9059C31.8449 14.7642 31.8541 14.621 31.8874 14.4824C31.934 14.3076 32.1864 14.0009 32.1864 14.0009L33.4058 11.8221L33.6659 10.1716L30.8737 10.7141V10.7146Z" fill="#92723A"/>
<path fill-rule="evenodd" clip-rule="evenodd" d="M30.8076 10.8078C30.8076 10.8078 30.7416 10.8544 30.8737 10.9437C30.8542 10.9709 30.8076 11.0679 30.7493 11.134C30.6835 11.2108 30.6133 11.2584 30.5862 11.3244C30.5281 11.4604 30.4815 11.5535 30.4815 11.6119C30.4815 11.6703 30.462 12.043 30.299 12.2836C30.2406 12.3692 30.1746 12.5128 30.128 12.6098C30.0309 12.7805 29.9454 12.917 29.926 12.9938C29.8873 13.1297 29.8602 13.5025 29.8602 13.5025C29.8602 13.5025 29.9457 13.3975 29.9767 13.3589C29.9298 13.4559 29.8794 13.5606 29.8057 13.6384C29.8523 13.5995 29.9882 13.5025 30.2173 13.3005C30.5358 13.0327 31.0329 12.5821 31.6389 12.2253C31.4561 12.2913 31.301 12.2913 31.1768 12.3108C31.2738 12.2138 32.1476 11.1885 32.6058 11.0915C32.6336 11.0562 32.6475 11.0119 32.6447 10.967L32.2523 10.9284L31.4561 11.0991L31.3399 10.4847L30.8076 10.807V10.8078Z" fill="#B18E3E"/>
<path fill-rule="evenodd" clip-rule="evenodd" d="M32.0741 14.303C32.0741 14.303 31.9692 14.4077 31.8721 14.668C31.7975 14.59 31.7334 14.5025 31.6817 14.4077C31.5381 14.167 31.3169 13.8601 30.8003 14.0349C30.7926 13.8719 30.7808 13.7864 30.8003 13.6699C30.8858 13.6507 31.1459 13.441 31.406 13.1341C31.5888 12.9244 31.7595 12.6835 31.876 12.3768C31.9528 12.3185 32.0857 12.2214 32.26 12.1088C32.5086 11.938 32.8076 11.7048 32.8542 11.4447C32.7377 11.4913 32.4891 11.6078 32.1161 11.5886C32.26 11.5226 32.4812 11.4527 32.454 11.1652C32.5124 11.1263 32.559 11.0991 32.559 11.0991C32.5152 11.0845 32.4692 11.0779 32.4231 11.0797C32.4151 11.0525 32.4036 11.0139 32.3376 11.0331C32.2715 11.0523 32.2608 11.0525 32.2521 11.0797C32.2249 11.0876 32.1356 11.0797 32.0695 11.1265C32.0035 11.1734 31.8209 11.3283 31.7511 11.3554C31.7782 11.3088 31.8169 11.2392 31.8169 11.2392C31.8169 11.2392 31.6266 11.2584 31.4907 11.316C31.2421 11.4015 30.9549 11.5569 30.6636 11.7082C30.6907 11.6616 30.7025 11.6314 30.7217 11.6227C30.7409 11.614 30.7877 11.6035 30.7877 11.5955C30.7877 11.5876 30.7685 11.5187 30.7801 11.4908C30.8671 11.3063 30.9699 11.1296 31.0873 10.9627C31.2232 10.7799 31.2503 10.5198 31.2503 10.5198L31.8445 10.2208L33.5144 9.8368L34.598 9.90285L34.4621 10.6524L33.8221 11.9611L33.2745 13.1533L32.6491 13.8836L32.0744 14.303H32.0741Z" fill="#543E26"/>
<path fill-rule="evenodd" clip-rule="evenodd" d="M34.7806 11.0592C34.7806 11.0592 34.1281 11.8669 33.9456 11.9913C34.062 11.7427 34.7806 10.263 35.0407 9.85139C34.9826 9.8048 34.9048 9.8048 35.0873 9.08339C34.9322 9.44819 34.8777 9.63866 34.7497 9.73568C34.6217 9.8327 34.6058 9.80173 34.5193 9.80173C34.5356 9.77217 34.5423 9.73826 34.5385 9.7047C34.5385 9.7047 33.9909 9.63866 33.6169 9.63866C33.2429 9.63866 32.5025 9.84064 32.0906 10.0037C31.7645 10.1396 31.5819 10.1396 31.4654 10.2249C31.349 10.3219 31.2829 10.4269 31.2245 10.454C31.178 10.4812 30.9568 10.551 30.9061 10.6248C30.8595 10.7016 30.7819 10.7878 30.7819 10.8073C30.7819 10.8268 30.7625 10.8541 30.8208 10.8344C30.84 10.8268 30.9839 10.7489 31.147 10.6519C31.3682 10.5277 31.6362 10.3841 31.8305 10.2986C32.3858 10.0772 32.5606 10.1161 32.8089 10.0695C33.069 10.0229 33.442 9.91411 33.6903 9.91411C33.9389 9.90643 34.4089 9.91411 34.5177 9.93357C34.4711 9.97248 34.4322 10.0191 34.4517 10.1821C34.4517 10.2287 34.4128 10.2792 34.3749 10.3918C34.2587 10.7103 34.0372 11.2384 33.9141 11.5064C33.7433 11.8712 33.5493 12.1782 33.4533 12.3684C33.3573 12.5586 33.1461 13.0596 32.9369 13.3276C32.7278 13.5956 32.6185 13.7587 32.5529 13.8171C32.4874 13.8755 32.0169 14.2208 32.0519 14.3452C32.1374 14.3181 32.6773 14.1148 33.0693 13.6735C33.4612 13.2321 33.5393 12.9628 33.846 12.7219C34.1527 12.481 34.3936 12.0773 34.5372 11.7435C34.6575 11.4327 34.6304 11.3357 34.7817 11.06L34.7806 11.0592Z" fill="#806031"/>
<path fill-rule="evenodd" clip-rule="evenodd" d="M20.7187 17.0875C20.7187 17.0875 20.6332 17.4408 20.4389 17.6156C20.2487 17.7866 19.9107 17.9341 19.8721 18.2216C19.8255 18.5088 20.21 18.6527 20.21 18.6527C20.21 18.6527 20.0001 18.9983 20.0001 19.2584C20.0001 19.5264 19.9924 19.5768 20.0195 19.8331C19.9887 19.8529 19.9625 19.8791 19.9427 19.9099C19.9427 19.9099 19.9619 20.1585 20.1524 20.3136C20.3429 20.4687 20.5057 20.5622 20.6027 20.5233C20.6175 20.5549 20.6305 20.5874 20.6416 20.6205C20.6416 20.6205 20.7855 20.2555 20.8825 19.937C20.9795 19.6109 21.065 19.6572 21.1037 19.2184C21.1424 18.7796 21.5645 18.0262 21.5645 18.0262L21.8525 17.3824L21.3827 17.0173L20.7187 17.0872V17.0875Z" fill="#B6903C"/>
<path fill-rule="evenodd" clip-rule="evenodd" d="M21.5923 17.7203C21.4954 17.8198 21.406 17.9262 21.3248 18.0388C21.2006 18.2098 21.1036 18.3649 20.9211 18.4312C20.7386 18.4975 20.6221 18.497 20.6336 18.6798C20.6451 18.8626 20.8161 18.9399 20.9131 19.0331C21.0181 19.1301 21.1036 19.2932 21.057 19.476C21.1151 19.4488 21.2201 19.4176 21.3171 19.2079C21.4141 18.9983 22.0928 17.7206 22.0928 17.7206H21.5923V17.7203Z" fill="#685026"/>
<path fill-rule="evenodd" clip-rule="evenodd" d="M24.269 14.7727C24.269 14.7727 24.3271 14.6176 24.269 14.505C24.2106 14.3885 23.8573 14.3496 23.6825 14.2175C23.5 14.0815 23.2785 13.9871 23.096 14.0467C23.1231 13.9807 23.2319 13.8368 23.1426 13.8058C23.0571 13.7787 22.7389 13.9223 22.6534 13.9884C22.5679 14.0544 22.3736 14.132 22.3349 14.1788C22.2963 14.2257 22.23 14.3148 22.191 14.2758C22.1521 14.2487 22.1329 14.1788 22.0669 14.2175C22.0008 14.2561 21.6829 14.5165 21.6243 14.668C21.5656 14.8196 21.4338 15.1575 21.0378 15.5418C20.6417 15.926 20.4707 16.1748 20.5872 16.3185C20.7037 16.4621 20.7582 16.3574 20.7777 16.4815C20.7926 16.6034 20.786 16.727 20.7582 16.8466C20.7116 17.0486 20.634 17.2388 20.7388 17.2777C21.0068 17.3632 21.2671 17.2009 21.3253 17.2506C21.4417 17.3553 21.2592 17.7321 21.5349 17.8058C21.8147 17.8826 22.0904 17.7398 22.0904 17.7398L23.1078 17.1922L24.0865 16.6758L24.5872 15.6854L24.3187 14.8582L24.2675 14.7727H24.269Z" fill="#D4B968"/>
<path fill-rule="evenodd" clip-rule="evenodd" d="M23.3088 17.1379C23.3088 17.1379 23.1378 16.8778 23.3477 16.6484C23.5577 16.4191 23.8564 16.3223 23.9729 16.1787C23.9507 16.1513 23.921 16.1311 23.8874 16.1206C23.9647 15.9822 24.0827 15.871 24.2253 15.8019C24.1672 15.7437 24.0894 15.6972 24.0041 15.6972C23.8137 15.6972 23.6969 15.8136 23.5223 15.8136C23.3516 15.8136 23.3321 15.7281 23.3321 15.7281C23.3321 15.7281 23.6196 15.701 23.5922 15.5727C23.5651 15.4368 23.5154 15.4368 23.5154 15.4368C23.5154 15.4368 24.0707 15.2064 24.1677 15.0835C24.2647 14.9606 24.2532 14.8155 24.2727 14.7574C24.3385 14.7574 24.723 14.5554 24.8784 14.6409C25.0338 14.7264 24.925 14.9594 24.925 14.9594C24.925 14.9594 25.3952 14.6058 25.6348 14.2592C25.8445 14.2787 25.942 14.1156 26.0956 14.1156C26.2861 14.1156 26.5851 14.3757 26.6432 14.9309C26.6821 15.2494 26.7403 15.4319 26.6821 15.9951C26.655 16.3136 26.6627 16.9935 26.7589 17.3309C26.8247 17.599 26.9801 17.5718 26.9801 17.5718C26.9563 17.6535 26.909 17.7264 26.8442 17.7815C26.7392 17.8785 26.7277 18.135 26.7392 18.2321C26.7547 18.303 26.7742 18.373 26.7976 18.4417C26.7976 18.4417 26.6734 18.5853 26.6422 18.6826C26.6151 18.7796 26.4871 18.8457 26.3936 18.8457C26.3002 18.8457 26.347 18.8378 26.2229 18.8457C26.0987 18.8536 26.0598 18.8728 25.982 18.8457C25.9042 18.8186 25.846 18.7873 25.8773 18.5385C25.9044 18.2899 24.918 17.7114 24.918 17.7114L23.3052 17.1366L23.3088 17.1379Z" fill="#CCA849"/>
<path fill-rule="evenodd" clip-rule="evenodd" d="M21.4564 19.5922C21.4564 19.5922 21.8096 20.0622 23.2622 20.0622C23.9534 20.0622 24.1943 19.9962 24.3374 19.9572C24.4928 19.9183 25.0752 19.6895 25.6617 18.998C26.1898 18.3729 26.0733 18.1166 26.0733 18.1166L25.7661 18.07L24.7677 18.206L21.8135 19.4642L21.4551 19.5922H21.4564Z" fill="#585136"/>
<path fill-rule="evenodd" clip-rule="evenodd" d="M22.54 19.7087C22.54 19.7087 21.2817 19.9885 21.2817 19.1923C21.2817 18.4156 22.0584 17.6 22.2527 17.4564C22.4547 17.3125 22.9363 17.1492 22.9363 17.1492H24.0975L24.3187 17.7357L24.2216 19.0016L22.54 19.7084V19.7087Z" fill="#252211"/>
<path fill-rule="evenodd" clip-rule="evenodd" d="M23.7011 17.3865C23.7011 17.3865 23.4604 17.1651 22.9128 17.4633C22.3652 17.7615 21.9224 18.3849 21.8952 18.9509C21.8681 19.4516 22.3069 19.8246 22.9904 19.8441C23.4991 19.8633 23.806 19.8052 23.9614 19.7673C23.9225 19.7207 23.7205 19.4683 23.7205 19.4683L23.7013 17.3868L23.7011 17.3865Z" fill="#C3B378"/>
<path fill-rule="evenodd" clip-rule="evenodd" d="M23.4643 17.5104C23.4643 17.5104 23.4062 17.4638 23.2339 17.557C23.0903 17.6338 22.8806 17.8368 22.7175 17.9804C22.6126 18.0659 22.5465 18.1046 22.4871 18.1706C22.2462 18.4581 22.0443 18.9281 22.161 19.1611C22.2777 19.394 22.662 19.6621 23.6407 19.4795L23.4615 17.5107L23.4643 17.5104Z" fill="#E6D89C"/>
<path fill-rule="evenodd" clip-rule="evenodd" d="M23.1457 17.9922C23.1457 17.9922 22.9903 18.2331 22.9903 18.6176C22.9903 19.0098 23.2117 19.6349 24.0273 19.6815C24.6525 19.7204 25.0718 18.7807 25.5262 18.4156C25.8718 18.1361 26.0815 18.1281 26.0815 18.1281C26.0815 18.1281 25.7282 17.7441 24.7846 17.2467C23.8525 16.7457 22.8078 16.6797 22.2407 17.4487C22.5088 17.4293 23.3748 17.2078 23.3748 17.2078L23.7982 17.3437L23.1457 17.9925V17.9922Z" fill="#252211"/>
<path fill-rule="evenodd" clip-rule="evenodd" d="M24.3651 18.5009C24.338 18.4428 24.3186 18.3649 24.4312 18.3457C24.5438 18.3265 24.5943 18.3378 24.6332 18.4225C24.6721 18.5073 24.71 18.5779 24.6524 18.613C24.5943 18.644 24.4427 18.613 24.3649 18.5004L24.3651 18.5009ZM24.1826 17.9533C24.1826 17.9533 24.1437 17.9804 24.1632 17.9261C24.1708 17.8604 24.2215 17.7436 24.3457 17.771C24.4699 17.7984 24.443 17.9341 24.4225 17.973C24.402 18.0119 24.2983 18.0777 24.2205 18.0498C24.2106 18.0473 24.2015 18.0425 24.1939 18.0357C24.1862 18.029 24.1802 18.0206 24.1764 18.0112C24.1726 18.0017 24.1711 17.9915 24.172 17.9813C24.1729 17.9712 24.1762 17.9614 24.1816 17.9528L24.1826 17.9533Z" fill="#6F674D"/>
<path fill-rule="evenodd" clip-rule="evenodd" d="M13.6704 18.2016C13.6704 18.2016 13.9776 18.432 14.3345 18.423C14.6878 18.4151 15.1422 18.0503 15.3518 17.8171C15.476 17.6812 15.5822 17.5375 15.6974 17.4249C15.7947 17.3279 15.8605 17.2813 15.9071 17.2152C15.9731 17.1384 16.043 16.9941 16.0781 16.9472C15.9926 17.0133 15.8684 17.13 15.7402 17.2076C15.616 17.2844 15.348 17.4287 15.2392 17.4677C15.1345 17.5066 14.047 18.0821 14.047 18.0821L13.6704 18.2016Z" fill="#AC924C"/>
<path fill-rule="evenodd" clip-rule="evenodd" d="M14.1401 15.3321C14.1401 15.3321 14.3109 15.2156 14.6411 15.1416C14.9596 15.0648 15.6004 15.0057 15.6004 15.0057L16.1285 15.2361L16.3382 16.0323L15.9542 16.8596L15.4649 17.1668L14.9094 16.2737L14.1414 15.3336L14.1401 15.3321Z" fill="#9F8E57"/>
<path fill-rule="evenodd" clip-rule="evenodd" d="M13.4489 16.0428L13.2661 16.1792C13.2661 16.1792 13.313 16.0937 13.3516 15.8336C13.3903 15.5735 13.5925 14.9404 13.8877 14.5754C14.1828 14.2103 14.1752 14.2298 14.1752 14.2298C14.148 14.2248 14.1201 14.2257 14.0933 14.2323C14.0665 14.239 14.0414 14.2513 14.0198 14.2684C14.0587 14.1824 14.3073 13.8752 14.5558 13.7216C14.8044 13.568 14.9014 13.5196 15.1615 13.6448C15.4216 13.77 15.4877 13.835 15.6781 13.8273C15.8686 13.8196 16.0314 13.6177 16.0314 13.6177C16.0314 13.6177 16.0703 13.7418 15.9267 14.0293C15.7831 14.3168 15.2161 14.903 15.2161 14.903L14.0354 15.7107L13.4489 16.0435V16.0428Z" fill="#EAC970"/>
<path fill-rule="evenodd" clip-rule="evenodd" d="M14.3223 15.2351C14.3223 15.2351 15.1768 15.3516 15.4369 15.1109C15.4446 15.1381 15.4759 15.1381 15.4759 15.1575C15.4738 15.1722 15.4669 15.1857 15.4564 15.1962C15.4847 15.1916 15.5133 15.1891 15.5419 15.1885C15.5761 15.1987 15.6113 15.2052 15.6469 15.2079C15.6755 15.2073 15.7041 15.2047 15.7324 15.2C15.7297 15.2193 15.7231 15.2379 15.7131 15.2546C15.703 15.2713 15.6898 15.2858 15.674 15.2973C15.7129 15.2973 15.7508 15.305 15.7508 15.3359C15.7508 15.3669 15.7585 15.4604 15.7119 15.4798C15.6733 15.4905 15.6322 15.4877 15.5954 15.4719C15.5985 15.5454 15.6185 15.6172 15.6538 15.6818C15.7306 15.8254 15.8944 15.989 16.1146 15.9419C16.1146 15.9419 16.2308 16.2214 15.7416 16.8428C15.6758 16.9283 15.6056 17.0447 15.5204 17.1418C15.4867 17.2152 15.461 17.292 15.4436 17.3709C15.4436 17.3709 16.271 17.0524 16.5078 16.3261C16.7487 15.596 16.7953 14.8777 16.7487 14.206C16.7407 14.0155 16.7098 13.8798 16.6632 13.7825C16.5467 13.5416 16.2203 13.5805 16.0885 13.7165C15.898 13.9069 15.5795 14.3805 15.1369 14.7067C14.6863 15.0328 14.6671 15.0907 14.3213 15.2351H14.3223Z" fill="#D7BC6B"/>
<path fill-rule="evenodd" clip-rule="evenodd" d="M13.2971 16.2836C13.2971 16.2836 13.134 16.3807 13.0485 16.7444C12.963 17.1172 13.1253 17.5716 13.2193 17.7152C13.3132 17.8588 13.5265 18.2513 13.9688 18.2707C14.0783 18.2701 14.1866 18.2477 14.2873 18.2047C14.4417 18.1339 14.5866 18.0438 14.7184 17.9366C14.9089 17.793 15.064 17.6689 15.0445 17.6571C14.998 17.6376 13.8718 16.7055 13.8718 16.7055L13.4484 16.233L13.2968 16.2842L13.2971 16.2836Z" fill="#585136"/>
<path fill-rule="evenodd" clip-rule="evenodd" d="M14.3618 17.8291C14.3618 17.8291 14.5909 17.8099 14.7268 17.7244C14.8628 17.6389 13.9307 16.7148 13.9307 16.7148L13.9967 17.7132L14.3618 17.8291Z" fill="#453A25"/>
<path fill-rule="evenodd" clip-rule="evenodd" d="M13.3708 16.2135C13.3708 16.2135 13.2543 16.4349 13.2543 16.4933C13.2349 16.6835 13.2932 17.2815 13.3398 17.4717C13.3864 17.6737 13.6388 17.9804 13.9652 17.9804C14.167 17.9804 14.4468 17.8563 14.4468 17.8253C14.4468 17.7864 14.1593 17.7485 14.0817 17.6038C14.0351 17.527 14.0157 17.3361 14.0049 17.143C13.9972 17.0189 13.9972 16.8829 14.0438 16.8358C14.1488 16.7194 14.168 16.3853 14.168 16.3853L14.5407 15.6928H14.0505L13.464 16.0579L13.3708 16.2135Z" fill="#84754B"/>
<path fill-rule="evenodd" clip-rule="evenodd" d="M13.2271 16.4273C13.2271 16.4273 13.6111 15.9186 13.9572 15.8019C14.3033 15.6851 14.4582 15.7553 14.4582 15.7553L14.2562 16.2719L13.9687 16.5903L13.9881 16.7534C13.9881 16.7534 13.9413 17.1845 14.2288 17.4835C14.5163 17.7825 14.7298 17.771 14.8542 17.771C14.9786 17.771 15.3357 17.666 15.5183 17.2349C15.6813 16.8312 15.8173 16.3133 15.4911 15.7942C15.1724 15.2776 14.6095 15.2576 14.5007 15.2576C14.3919 15.2576 13.5376 15.3004 13.2271 16.4265V16.4273Z" fill="#252211"/>
<path fill-rule="evenodd" clip-rule="evenodd" d="M23.0875 18.1553C22.9439 18.0892 23.0798 17.6855 23.2234 17.5611C23.367 17.4367 23.5496 17.2933 23.8683 17.2736C23.9845 17.2659 24.0971 17.3396 24.0779 17.4175C24.0508 17.5611 23.8488 17.7631 23.6663 17.9067C23.4139 18.1048 23.2506 18.229 23.0875 18.1553Z" fill="#F7F7E7"/>
<path fill-rule="evenodd" clip-rule="evenodd" d="M15.3204 15.9534C15.4253 15.9457 15.5612 16.0302 15.5884 16.1439C15.6155 16.268 15.5223 16.5166 15.3204 16.5166C15.1573 16.5166 15.0718 16.3146 15.0718 16.2565C15.0736 16.2087 15.087 16.1621 15.1107 16.1206C15.1184 16.1088 15.1378 15.9729 15.3204 15.9534Z" fill="#F8F6DE"/>
<path fill-rule="evenodd" clip-rule="evenodd" d="M13.8056 16.0428C13.8056 16.0428 13.5376 16.1669 13.4134 16.4268C13.3247 16.6186 13.2979 16.8333 13.3366 17.0412C13.3561 17.1382 13.4531 17.3788 13.5191 17.4643C13.5852 17.5498 13.6745 17.6082 13.7406 17.6003C13.8066 17.5923 13.9423 17.4177 13.9423 17.313C13.9423 17.2083 13.9502 16.7654 14.0782 16.5245C14.1909 16.2839 13.8064 16.043 13.8064 16.043L13.8056 16.0428Z" fill="#D4C38B"/>
<path fill-rule="evenodd" clip-rule="evenodd" d="M13.8448 16.0233C13.7982 16.0504 13.7206 16.0893 13.7398 16.1398C13.7593 16.1864 13.9223 16.2166 13.9807 16.3302C14.0468 16.4467 14.0468 16.5709 14.0273 16.6292C14.078 16.6051 14.1241 16.5722 14.1632 16.532C14.2487 16.4349 14.3534 16.3031 14.4428 16.3031C14.5012 16.3031 14.5593 16.3302 14.6138 16.3302C14.6993 16.3302 14.7845 16.3031 14.7963 16.2138C14.8155 16.0973 14.6333 15.9923 14.5283 16.0118C14.5477 15.935 14.5749 15.8216 14.4894 15.7437C14.4039 15.6659 14.1361 15.8021 14.0777 15.841C14.0194 15.8799 13.8448 16.0236 13.8448 16.0236V16.0233Z" fill="#E2D59D"/>
<path fill-rule="evenodd" clip-rule="evenodd" d="M20.0158 24.1825L20.5906 24.0128L20.7536 24.1293C20.7536 24.1293 20.8699 24.3779 21.0526 24.4088C20.9943 24.533 20.8427 24.6392 20.8507 24.7273C20.8586 24.8154 20.9362 24.8827 20.9362 24.8827C20.9362 24.8827 20.4196 25.737 21.4372 26.5979C21.1963 26.6949 20.8896 26.8283 20.7265 26.9051C20.8427 26.9322 21.0913 26.9819 21.1963 27.0761C21.3012 27.1703 21.3012 27.2003 21.3982 27.2586C21.4953 27.317 21.5534 27.3946 21.5342 27.4294C21.4681 27.3905 21.2467 27.2742 21.208 27.3828C21.1694 27.4913 20.2488 27.4488 20.2488 27.4488L18.6954 27.7478C18.6954 27.7478 18.7535 27.5924 18.5904 27.4488C18.4002 27.2781 18.1673 27.4565 17.9187 27.2663C17.5926 27.0177 17.5808 26.7302 17.4761 26.6217C17.5808 26.5557 17.7945 26.4586 18.3032 26.3913C18.2838 26.3524 18.2177 26.2359 18.2566 26.1312C18.3032 25.9953 18.4973 25.9098 18.4391 25.7472C18.5247 25.7277 18.5633 25.7277 18.7771 25.4597C18.979 25.1917 19.1032 25.1336 19.2586 25.1141C19.414 25.0947 19.5072 25.1141 19.7947 24.8461C19.9964 24.6559 19.9306 24.4928 19.9306 24.4928C19.9306 24.4928 20.0624 24.45 20.0161 24.182L20.0158 24.1825Z" fill="#CBAC5A"/>
<path fill-rule="evenodd" clip-rule="evenodd" d="M18.3188 24.2688C18.3265 24.2299 18.3577 24.2104 18.5673 24.2299C18.777 24.2493 20.1051 24.1057 20.4664 24.0863C20.8314 24.0591 22.1168 24.0783 22.7422 24.2104C23.3676 24.3425 24.0004 24.4979 24.3071 24.5755C24.6143 24.661 24.7111 24.6917 24.6993 24.7306C24.6916 24.7695 24.6225 24.8074 24.5828 24.7967C24.5442 24.789 23.5266 24.4782 23.2122 24.4127C22.8978 24.3471 21.8101 24.1718 21.2154 24.1823C20.6601 24.1902 20.4387 24.1746 19.9689 24.2289C19.4989 24.2872 18.7222 24.3648 18.4893 24.3338C18.2589 24.3067 18.3065 24.3067 18.3183 24.2678L18.3188 24.2688Z" fill="#D6BC6F"/>
<path fill-rule="evenodd" clip-rule="evenodd" d="M21.4446 27.3126C21.4446 27.3126 22.2408 27.7437 22.5283 28.2719C22.738 28.6641 22.4041 28.8584 22.4041 28.8584C22.4041 28.8584 22.8547 28.8584 22.7963 29.1069C22.7692 29.2621 22.0196 29.6814 21.5186 29.9028C21.01 30.1243 21.0294 30.1128 20.7808 30.1514C20.5399 30.1903 19.8797 30.0746 19.7438 30.2679C19.6078 30.4612 19.667 30.6604 19.7049 30.6913C19.7438 30.7185 20.0584 30.7574 20.0584 30.7574C20.0584 30.7574 19.9924 30.9399 19.3401 30.9594C18.6878 30.9788 18.5245 31.0252 18.4855 31.0953C18.4466 31.1611 18.6097 31.1224 18.909 31.1721C19.208 31.2187 19.6273 31.2489 19.6273 31.2489C19.6273 31.2489 19.4914 31.3654 19.1381 31.4586C18.7341 31.5633 18.101 31.6605 17.9108 31.777C18.0078 31.8431 18.1517 31.9401 18.218 31.9478C18.055 31.9867 17.8256 32.0722 17.7869 32.1032C17.845 32.1421 17.9229 32.1887 17.9229 32.1887C17.9229 32.1887 17.5965 32.5809 17.4062 32.6781C17.216 32.7754 16.1209 33.2838 15.744 33.1868C14.8043 32.9382 14.6878 31.9091 14.4587 31.8316C14.1131 31.7151 13.95 31.9478 13.643 31.7847C13.779 31.6877 13.853 31.6296 13.9966 31.5635C13.8412 31.4867 13.0374 30.977 13.0374 30.977C12.9533 30.7938 12.86 30.615 12.7578 30.4412C12.6024 30.1732 12.3738 29.8158 12.2023 29.5012C11.8295 28.81 11.8101 28.4915 11.4722 28.0993C11.5305 28.0225 11.7323 28.0333 11.7323 28.0333L14.5636 28.9654L19.584 29.1108L20.8896 27.2468L21.4449 27.3129L21.4446 27.3126Z" fill="#DFC677"/>
<path fill-rule="evenodd" clip-rule="evenodd" d="M14.0078 30.1553C14.0381 30.189 14.0734 30.2178 14.1125 30.2408C14.2098 30.3068 14.3534 30.3846 14.4504 30.5009C14.4893 30.4428 14.5864 30.3378 14.7576 30.5009C14.9289 30.6639 15.1416 30.5477 15.274 30.5864C15.4099 30.6332 15.4176 30.6524 15.4176 30.6524C15.4176 30.6524 15.4944 30.5864 15.6662 30.5165C15.7711 30.4776 15.8953 30.4504 16.0312 30.4118C16.1554 30.3846 16.2913 30.3457 16.3848 30.3457C16.4703 30.4038 16.777 30.7297 18.0081 30.2487C19.1693 29.7981 19.4371 29.7477 19.6314 29.8173C19.6508 29.7708 19.6703 29.6814 19.9693 29.6932C19.9693 29.569 19.7207 29.1456 19.7207 29.1456L18.3498 28.6758H17.6L15.3516 29.0875L14.1056 29.7984L14.0086 30.1568L14.0078 30.1553Z" fill="#C4A859"/>
<path fill-rule="evenodd" clip-rule="evenodd" d="M13.2583 29.367C13.2583 29.367 13.2854 29.5767 13.5962 29.7981C13.9034 30.0193 13.9999 30.1514 13.9999 30.1514C13.9999 30.1514 14.0583 30.0746 14.1049 29.9963C14.1515 29.9108 14.1904 29.8138 14.268 29.7866C14.4234 29.7206 14.7766 29.8447 14.8545 29.8253C14.9205 29.8061 14.9011 29.6701 14.9709 29.6701C15.134 29.6622 15.2387 29.7748 15.2971 29.7748C15.3555 29.7748 15.4988 29.7672 15.5183 29.7362C15.5377 29.7052 15.5454 29.3827 15.7668 29.2273C16.0077 29.0565 16.3029 29.1302 16.3812 29.1691C16.3812 29.2273 16.3889 29.3711 16.5443 29.3788C16.6997 29.3865 16.7151 29.3594 16.8515 29.4059C16.988 29.4525 17.1505 29.3983 17.2243 29.6271C17.2903 29.6079 17.4457 29.5885 17.4068 29.367C17.4836 29.3089 17.5507 29.27 17.714 29.0409C17.7529 28.9828 17.8187 28.9167 17.8694 28.8312C18.0053 28.8312 18.1684 28.8041 18.3857 28.9943C18.3197 29.0409 18.2808 29.0711 18.2616 29.1185C18.3184 29.1747 18.3703 29.2358 18.4167 29.301C18.4751 29.3778 18.514 29.472 18.5877 29.4915C18.7508 29.538 19.0188 29.472 19.3178 29.4915C19.6053 29.5109 19.8459 29.6156 19.9509 29.6817C19.9898 29.6625 19.9898 29.6545 20.0868 29.674C20.1839 29.6934 20.2576 29.7011 20.1529 29.577C20.211 29.6041 20.2771 29.6625 20.3354 29.6041C20.3938 29.5457 20.4401 29.4605 20.6032 29.441C20.7663 29.4216 20.8246 29.4487 20.8907 29.2779C20.9762 29.0683 20.681 29.0683 20.681 29.0683C20.681 29.0683 20.817 28.9439 20.9685 28.7808C21.151 28.61 21.3607 28.3886 21.4111 28.1167C21.4966 27.6157 21.0074 27.5499 21.0074 27.5499L18.6346 28.2801L15.7336 28.1362L13.2598 29.3673L13.2583 29.367Z" fill="#927D49"/>
<path fill-rule="evenodd" clip-rule="evenodd" d="M11.1265 22.5126C11.1265 22.5126 11.0497 22.6097 11.0024 22.8388C10.955 23.0679 10.9752 23.0408 10.9363 23.2038C10.8974 23.3669 10.4194 24.9902 10.5986 25.5378C10.7778 26.0854 11.0881 26.2874 11.2822 26.73C11.3211 26.827 11.359 26.8854 11.3792 26.9709C11.4452 27.2581 11.3871 27.4795 11.4647 27.767C11.4918 27.8641 11.562 27.9767 11.6667 28.0932C11.8971 28.3338 12.2726 28.5629 12.4347 28.726C12.6635 28.9669 12.9899 29.4564 13.4054 29.5027C13.6269 29.5299 13.9415 29.4367 14.2016 29.2815C14.432 29.1377 14.5743 28.9359 14.816 28.8207C14.9867 28.7352 15.1693 28.7043 15.3323 28.6653C15.6703 28.5993 15.9772 28.5885 16.1597 28.6264C16.4393 28.6848 17.0995 28.8868 17.4653 28.8868C17.7512 28.8822 18.0354 28.8431 18.3119 28.7703C18.8672 28.6072 19.5389 28.3274 19.9818 28.2033C20.2419 28.1265 20.4516 28.1062 20.6653 28.0596C21.0304 27.9741 21.3371 27.8577 21.5119 27.6362C21.3954 27.5003 21.2518 27.2906 20.4749 27.2983C19.5935 27.3178 18.5759 27.807 18.0749 27.8848C17.5739 27.9626 17.3565 28.0284 16.7972 27.8264C16.2488 27.6224 16.2306 27.4875 16.2306 27.4875C16.2306 27.4875 15.6549 27.0848 15.414 26.0582C15.1731 25.0317 15.414 24.2836 16.0394 23.5727C16.2025 23.3902 16.1636 23.2271 16.1636 23.2271C16.1636 23.2271 16.5752 22.6719 16.4626 22.1519C16.3384 21.6353 15.5423 21.7403 15.5423 21.7403L11.1268 22.5126H11.1265Z" fill="#6E6342"/>
<path fill-rule="evenodd" clip-rule="evenodd" d="M11.7903 24.2409C11.7561 24.3053 11.7399 24.3777 11.7437 24.4506C11.7514 24.5553 11.7826 24.6912 12.097 24.9981C12.365 25.2659 12.3066 25.5649 12.3066 25.5649C12.3066 25.5649 12.4416 25.5921 12.8076 25.4208C13.0951 25.2849 13.1916 25.5258 13.1916 25.5258C13.2753 25.4819 13.366 25.4529 13.4597 25.4403C13.5445 25.4324 13.6266 25.4062 13.7003 25.3635C13.7003 25.3635 14.0382 25.7091 14.3334 25.8721C14.6014 26.016 14.7568 26.113 14.8889 26.016C15.0131 25.9305 15.0131 25.7557 15.0051 25.6781C14.9743 25.6065 14.9353 25.5387 14.8889 25.4761C14.8034 25.3519 14.6675 25.2081 14.6585 25.0921C14.6391 24.8243 14.8605 24.5056 14.8136 24.428C14.7668 24.3505 14.5925 24.331 14.1614 24.4864C13.7149 24.6339 11.7885 24.2417 11.7885 24.2417L11.7903 24.2409Z" fill="#39331F"/>
<path fill-rule="evenodd" clip-rule="evenodd" d="M12.8076 25.9768C12.8076 25.9768 12.5864 25.7672 12.664 24.7496C12.7579 24.7482 12.8516 24.7573 12.9435 24.7767C12.9435 24.7767 13.0641 25.5652 12.8076 25.9768Z" fill="#292311"/>
<path fill-rule="evenodd" clip-rule="evenodd" d="M11.2311 21.7359C11.2619 21.7131 11.2905 21.6874 11.3166 21.6591C11.2398 21.8028 10.8852 22.3775 11.1727 23.2824C11.4602 24.1833 12.1823 24.855 13.0717 24.8863C13.961 24.9175 14.4285 24.4823 14.963 23.83C15.1727 23.5699 15.4136 23.2435 15.6271 23.0223C15.9455 22.6765 16.1941 22.5795 16.1941 22.2456C16.1941 21.5621 15.495 21.2552 14.4659 20.9485C13.4367 20.6418 12.5085 20.6797 12.027 20.8896C11.5572 21.1185 11.3552 21.3594 11.2308 21.7362L11.2311 21.7359Z" fill="#252211"/>
<path fill-rule="evenodd" clip-rule="evenodd" d="M14.5359 26.2835L14.6127 26.2446C14.6127 26.2446 14.6319 25.9374 14.7563 25.9456C14.8805 25.9651 14.9389 26.1284 14.9271 26.1865C14.9194 26.2446 14.8884 26.3419 14.764 26.3301C14.6009 26.3339 14.5352 26.2835 14.5352 26.2835H14.5359Z" fill="#3F3824"/>
<path fill-rule="evenodd" clip-rule="evenodd" d="M14.1904 24.9787C14.1904 24.9787 14.2672 24.9515 14.3612 25.0447C14.438 25.0447 14.7728 25.0058 14.8778 25.0719C14.9827 25.1379 15.0137 25.196 15.0137 25.196C15.0137 25.196 14.6215 25.2815 14.4078 25.196C14.1904 25.1223 14.1904 24.9787 14.1904 24.9787Z" fill="#2D2815"/>
<path fill-rule="evenodd" clip-rule="evenodd" d="M15.9185 25.0368C15.9185 25.0173 15.7089 24.8737 15.4874 24.8269C15.4485 24.8192 15.4406 24.8463 15.4106 24.8463C15.3912 24.8387 15.3835 24.7803 15.3835 24.7803L15.2576 24.8466C15.2576 24.8466 15.2381 24.8737 15.3041 24.9234C15.3623 24.97 15.4595 25.0089 15.4867 25.0865C15.5138 25.164 15.5138 25.1912 15.5256 25.2029C15.5333 25.2106 15.6692 25.2029 15.7353 25.164C15.8013 25.1251 15.9257 25.0616 15.9178 25.036L15.9185 25.0368Z" fill="#82764F"/>
<path fill-rule="evenodd" clip-rule="evenodd" d="M13.9575 25.8253C13.9575 25.8253 13.9962 25.5575 14.2565 25.5457C14.5243 25.5263 14.575 25.7864 14.575 25.7864L14.4196 25.9418C14.4196 25.9379 14.3031 25.7749 13.9588 25.8253H13.9575Z" fill="#2D2816"/>
<path fill-rule="evenodd" clip-rule="evenodd" d="M15.6465 24.6717C15.6465 24.6717 15.5026 24.8271 15.1844 24.8737C15.1573 24.8348 15.0989 24.7572 15.1844 24.6331C15.2699 24.5089 15.367 24.47 15.464 24.5087C15.5068 24.5156 15.5467 24.5346 15.5791 24.5635C15.6114 24.5924 15.6348 24.63 15.6465 24.6717Z" fill="#574F35"/>
<path fill-rule="evenodd" clip-rule="evenodd" d="M16.2328 24.8622C16.2407 24.8233 16.2136 24.8156 16.2328 24.7962C16.252 24.7767 16.3572 24.738 16.3767 24.7572C16.3843 24.7652 16.3767 24.7962 16.3767 24.834C16.3767 24.8719 16.3767 24.9108 16.3572 24.9388C16.3301 24.9777 16.2525 24.9971 16.2136 24.9856C16.1747 24.9741 16.167 24.9196 16.167 24.9088C16.1862 24.9011 16.2328 24.8817 16.2328 24.8622ZM16.8958 24.4429C16.8958 24.4234 16.9619 24.3845 17.0008 24.3845C17.0589 24.3845 17.0589 24.4311 17.0668 24.4429C17.086 24.4506 17.086 24.4349 17.1055 24.47C17.1249 24.5051 17.1523 24.567 17.1326 24.606C17.1129 24.6449 17.0356 24.6717 17.0164 24.6641C16.9893 24.6446 16.9038 24.47 16.8958 24.4429Z" fill="#82764F"/>
<path fill-rule="evenodd" clip-rule="evenodd" d="M15.561 24.9516C15.561 24.9516 15.6465 24.9707 15.763 25.068C15.7241 25.0952 15.6657 25.1261 15.6657 25.1261C15.6657 25.1261 15.6581 25.0368 15.561 24.9513V24.9516Z" fill="#6E6342"/>
<path fill-rule="evenodd" clip-rule="evenodd" d="M15.3712 24.097C15.3518 24.0778 15.4293 24.0312 15.4759 24.0389C15.5225 24.0466 15.542 24.0778 15.5924 24.0855C15.6429 24.0932 15.6508 24.066 15.6692 24.0466C15.6877 24.0271 15.7547 24.0389 15.7662 24.0466C15.7734 24.0551 15.7799 24.0642 15.7857 24.0737C15.7865 24.059 15.7904 24.0445 15.797 24.0313C15.8037 24.0181 15.813 24.0064 15.8244 23.9969C15.8393 23.986 15.8564 23.9785 15.8746 23.9752C15.8928 23.9718 15.9115 23.9726 15.9293 23.9775C15.937 24.0046 15.9759 24.1016 15.9682 24.1211C15.9605 24.1405 15.8441 24.1679 15.8244 24.1482C15.8438 24.1951 15.9293 24.2921 15.9408 24.3113C15.9524 24.3305 15.8553 24.3773 15.8167 24.3697C15.7624 24.3658 15.4283 24.1715 15.3702 24.0978L15.3712 24.097ZM15.8799 23.4524C15.8727 23.4329 15.859 23.4164 15.841 23.4058C15.8139 23.3981 15.7245 23.4058 15.7245 23.4524C15.7245 23.499 15.8013 23.7596 15.8876 23.8953C15.9849 24.0312 16.0507 24.1436 16.1167 24.1748C16.1374 24.1843 16.161 24.1855 16.1826 24.1783C16.2042 24.1711 16.2223 24.1559 16.2332 24.1359C16.2409 24.1165 16.2603 23.9729 16.2526 23.6349C16.245 23.297 16.2332 22.9709 16.2137 22.9514C16.1943 22.932 16.1167 22.9322 16.0896 22.9709C16.0624 23.0095 15.8876 23.3943 15.8796 23.4524H15.8799Z" fill="#585136"/>
<path fill-rule="evenodd" clip-rule="evenodd" d="M15.534 25.4408C15.534 25.4408 15.3981 25.3553 15.266 25.4136C15.1418 25.472 15.1495 25.7011 15.1495 25.7011C15.1774 25.7121 15.2076 25.716 15.2374 25.7126C15.2672 25.7092 15.2958 25.6986 15.3205 25.6817C15.406 25.6236 15.5146 25.5265 15.534 25.441V25.4408Z" fill="#574F35"/>
<path fill-rule="evenodd" clip-rule="evenodd" d="M15.7902 25.7477C15.7825 25.6709 15.7134 25.6709 15.7134 25.6312C15.7181 25.6123 15.7291 25.5954 15.7446 25.5835C15.76 25.5715 15.7791 25.5651 15.7986 25.5652C15.8375 25.5652 15.8754 25.6118 15.923 25.642C15.9696 25.6691 16.0395 25.7188 16.0472 25.7779C16.0549 25.8371 15.9704 25.9991 15.8765 25.9991C15.7825 25.9991 15.8104 25.8243 15.7909 25.7467L15.7902 25.7477ZM16.5397 25.6428C16.5397 25.6428 16.3844 25.6893 16.3959 25.6428C16.4074 25.5962 16.4427 25.5846 16.4932 25.5846C16.5188 25.5578 16.5532 25.5412 16.5902 25.5378C16.6113 25.5368 16.6321 25.5437 16.6483 25.5572C16.6483 25.5572 16.7533 25.5107 16.7842 25.5378C16.8152 25.5649 16.7922 25.5649 16.8114 25.5962C16.8358 25.6308 16.8519 25.6707 16.8582 25.7126C16.8582 25.7436 16.7417 25.8097 16.6483 25.7981C16.5397 25.7748 16.5589 25.6622 16.5397 25.6428ZM17.4445 25.4679C17.4445 25.4679 17.491 25.495 17.4524 25.5263C17.4253 25.5534 17.2893 25.6031 17.1726 25.6118C17.0561 25.6118 16.9514 25.631 16.9514 25.5923C16.9514 25.5537 17.0484 25.4758 17.1065 25.4564C17.1182 25.4418 17.133 25.43 17.1498 25.4219C17.1667 25.4139 17.1851 25.4097 17.2038 25.4098C17.2504 25.4098 17.4327 25.3903 17.4834 25.3827C17.53 25.3747 17.5689 25.4019 17.5415 25.4408C17.53 25.4679 17.4445 25.4679 17.4445 25.4679ZM17.7125 24.2688C17.7125 24.2688 17.6541 24.393 17.5883 24.393C17.5223 24.3853 17.5223 24.3658 17.5223 24.3464C17.5223 24.3192 17.5883 24.2493 17.5804 24.2299C17.5612 24.2299 17.5143 24.2299 17.5223 24.1833C17.5223 24.1444 17.5883 24.0978 17.6464 24.1065C17.6903 24.0704 17.745 24.05 17.8018 24.0484C17.8679 24.0484 17.926 24.0676 17.926 24.1065C17.926 24.1454 17.8492 24.2307 17.821 24.2504C17.7901 24.2813 17.7511 24.3016 17.7125 24.2696V24.2688ZM16.827 26.5638C16.827 26.5638 16.7502 26.5718 16.7502 26.6104C16.7502 26.6299 16.7694 26.6299 16.7968 26.6184C16.8126 26.6175 16.8282 26.6148 16.8434 26.6104C16.851 26.6184 16.851 26.657 16.9094 26.657C16.9573 26.6506 17.0035 26.6347 17.0453 26.6104C17.0919 26.5912 17.1309 26.5715 17.1309 26.5336C17.1114 26.4676 17.0725 26.4364 17.0144 26.4364C16.9846 26.4345 16.9549 26.4412 16.9289 26.4558C16.9289 26.4558 16.9094 26.4169 16.8434 26.4558C16.7773 26.4947 16.785 26.4947 16.8045 26.5142C16.8393 26.5452 16.8277 26.5654 16.8277 26.5654L16.827 26.5638ZM16.3882 26.9678C16.3882 26.9484 16.4852 26.9094 16.5124 26.9212C16.5395 26.9289 16.6171 27.0764 16.6171 27.092C16.6171 27.1114 16.52 27.158 16.4811 27.158C16.4422 27.158 16.3764 27.092 16.3764 27.0812C16.3764 27.0735 16.423 27.062 16.423 27.0541C16.4345 27.0349 16.3882 26.988 16.3882 26.9686V26.9678ZM16.081 26.4008C16.1005 26.3931 16.1005 26.3736 16.1276 26.3542C16.1361 26.3485 16.1458 26.3449 16.1559 26.3436C16.166 26.3422 16.1763 26.3432 16.186 26.3465C16.1928 26.3343 16.2023 26.3237 16.2137 26.3156C16.2251 26.3075 16.2382 26.3021 16.252 26.2996C16.2986 26.292 16.3375 26.2996 16.3288 26.3191C16.3288 26.3775 16.3677 26.4161 16.3677 26.4627C16.3677 26.5093 16.3406 26.5677 16.2436 26.6066C16.1465 26.6337 16.0144 26.6337 15.995 26.626C15.9755 26.6184 15.9561 26.5405 15.9755 26.5016C15.995 26.4627 16.0493 26.4202 16.0805 26.4008H16.081Z" fill="#82764F"/>
<path fill-rule="evenodd" clip-rule="evenodd" d="M16.2047 26.4271C16.2047 26.4271 16.1387 26.466 16.1387 26.4855C16.1328 26.5043 16.1302 26.524 16.131 26.5436C16.131 26.5551 16.2165 26.5359 16.228 26.5242C16.2319 26.5165 16.2047 26.4474 16.2047 26.4271Z" fill="#6E6342"/>
<path fill-rule="evenodd" clip-rule="evenodd" d="M15.6275 26.2446C15.6661 26.2525 15.7322 26.2446 15.7826 26.2641C15.8215 26.2835 15.8487 26.3224 15.8097 26.369C15.7708 26.4156 15.7329 26.4855 15.6467 26.4737C15.5496 26.466 15.4565 26.4156 15.4565 26.3767C15.4548 26.3521 15.4581 26.3274 15.4661 26.3041C15.4741 26.2807 15.4867 26.2592 15.5031 26.2408C15.542 26.2098 15.5612 26.2292 15.6272 26.2446H15.6275Z" fill="#585136"/>
<path fill-rule="evenodd" clip-rule="evenodd" d="M15.5808 26.2835C15.5808 26.2835 15.4566 26.3805 15.4254 26.4274C15.3865 26.474 15.1963 26.7146 15.1382 26.7651C15.1575 26.731 15.1795 26.6986 15.204 26.668C15.1271 26.7171 15.0696 26.7912 15.0409 26.8777C14.9943 27.0216 15.3012 27.0991 15.503 27.1575C15.7047 27.2159 15.7828 27.2343 15.7828 27.2343C15.7085 27.1227 15.6447 27.0044 15.5923 26.881C15.5155 26.6985 15.4758 26.679 15.5263 26.5935C15.5652 26.508 15.6235 26.4499 15.6235 26.3839C15.6002 26.3224 15.5808 26.2835 15.5808 26.2835Z" fill="#574F35"/>
<path fill-rule="evenodd" clip-rule="evenodd" d="M11.1533 26.5905C11.1816 26.5957 11.2106 26.5957 11.2388 26.5905C11.297 26.5825 11.9029 26.3601 12.536 26.4C13.0099 26.4286 13.4797 26.5058 13.9379 26.6304C14.734 26.8401 15.7242 27.2556 16.365 27.4926C16.5357 27.5584 16.7029 27.6751 16.8258 27.7215C17.3153 27.9119 17.3345 27.9119 17.622 27.9624C17.9599 28.009 18.3055 27.8963 18.6667 27.8187C19.1093 27.7215 19.8666 27.6749 20.5306 27.5779C20.7454 27.5481 20.9572 27.5 21.1637 27.4342C21.1637 27.4342 20.6356 27.9624 19.3694 28.1526C18.8576 28.2303 18.3375 28.2368 17.8239 28.172C17.42 28.1331 17.1522 28.0747 16.9502 28.0166C16.7211 27.9506 16.2511 27.7757 15.6725 27.6326C15.2685 27.5277 14.818 27.4501 14.3016 27.3531C13.0278 27.1199 11.6454 26.8521 11.1528 26.592L11.1533 26.5905Z" fill="#252211"/>
<path fill-rule="evenodd" clip-rule="evenodd" d="M9.72417 24.1905C9.41697 24.4506 9.09109 24.6991 8.77288 24.9398L7.81365 25.6768C7.4875 25.9174 7.16904 26.166 6.84264 26.4069C6.51624 26.6478 6.19035 26.8767 5.84424 27.0981C6.15144 26.838 6.47733 26.5971 6.80347 26.3603C7.12961 26.1235 7.46779 25.8913 7.78241 25.6512L8.74165 24.9131C9.07163 24.6725 9.39009 24.4239 9.72417 24.191V24.1905ZM8.02715 26.9089C8.02715 26.9089 8.37275 26.6214 8.80385 26.2177C9.33966 25.717 9.99605 25.076 10.2057 24.9597L8.02689 26.9092L8.02715 26.9089Z" fill="#CFB66C"/>
<path fill-rule="evenodd" clip-rule="evenodd" d="M8.02734 26.9087C8.19835 26.7379 8.38088 26.571 8.56341 26.4077L8.84296 26.167C8.92846 26.0902 9.02574 26.004 9.11099 25.9185C9.28174 25.7477 9.44891 25.5649 9.61966 25.3903C9.7043 25.3025 9.79378 25.2195 9.8877 25.1418C9.93465 25.1002 9.9868 25.0649 10.0428 25.0368C10.0897 25.0097 10.1401 24.96 10.2059 24.9513C10.1672 25.0097 10.1207 25.0368 10.0817 25.0872C10.0352 25.1261 9.99624 25.1727 9.95758 25.2114C9.87208 25.2969 9.77506 25.3745 9.68955 25.4523C9.50702 25.6077 9.31682 25.7595 9.13429 25.922C8.95176 26.0846 8.78101 26.26 8.59822 26.423C8.40034 26.5902 8.21781 26.7533 8.02734 26.9094V26.9087ZM10.3498 25.3553C10.3498 25.3553 9.08386 26.5943 8.8235 26.796L10.3498 25.3553Z" fill="#CFB66C"/>
<path fill-rule="evenodd" clip-rule="evenodd" d="M10.3495 25.3553C10.2356 25.4871 10.1135 25.6116 9.98395 25.728L9.59995 26.0931C9.47579 26.2172 9.35905 26.3416 9.22721 26.4658C9.09127 26.5823 8.96711 26.6962 8.82324 26.8037L9.19598 26.4387C9.32039 26.3145 9.45633 26.2098 9.58843 26.0854L9.96116 25.7203C10.0892 25.5923 10.2136 25.4679 10.3495 25.3553ZM10.4076 26.027C10.2909 26.3527 10.1534 26.6705 9.99598 26.9786C9.66983 27.6311 9.18062 28.4465 8.96686 28.8622L10.4076 26.027Z" fill="#CFB66C"/>
<path fill-rule="evenodd" clip-rule="evenodd" d="M10.4076 26.0273C10.4076 26.1709 10.3687 26.2953 10.3221 26.4195C10.2767 26.5437 10.2249 26.6656 10.167 26.7845C10.1086 26.901 10.0426 27.0254 9.97653 27.1381C9.91048 27.2507 9.83291 27.3669 9.77454 27.4837L9.38235 28.1749C9.24641 28.4053 9.11432 28.6369 8.9707 28.8584C9.06773 28.6098 9.19982 28.3768 9.32424 28.1477C9.46018 27.9173 9.58434 27.6869 9.70824 27.4486C9.76873 27.3298 9.82316 27.2081 9.87131 27.0838C9.92942 26.9594 9.98753 26.8429 10.0344 26.7302C10.0925 26.6061 10.1391 26.4893 10.1975 26.377C10.2632 26.2564 10.3178 26.1399 10.4071 26.0273H10.4076Z" fill="#CFB66C"/>
<path fill-rule="evenodd" clip-rule="evenodd" d="M11.7902 29.2116C11.7902 29.2116 11.4062 29.7203 11.4446 30.3649C11.5493 30.0273 11.6814 29.5107 11.7902 29.2116ZM12.1553 29.7216C12.1553 29.7216 12.0193 31.104 11.9067 31.7837C12.0659 30.998 12.0969 31.0641 12.1553 29.7216ZM14.6989 31.8653C14.6989 31.8653 14.1241 33.5549 14.1124 34.0244C14.2368 33.5416 14.4774 32.5553 14.6989 31.8641V31.8653Z" fill="#DEC270"/>
<path fill-rule="evenodd" clip-rule="evenodd" d="M16.043 29.1072C16.043 29.1072 16.9751 30.645 17.6742 31.9575C17.485 31.297 17.0498 30.0856 16.043 29.1072Z" fill="#CBAF59"/>
<path fill-rule="evenodd" clip-rule="evenodd" d="M18.5479 31.371C19.0596 32.2756 19.5211 33.2078 19.9303 34.1632C19.8527 33.503 19.6428 32.373 18.5479 31.371Z" fill="#E3C677"/>
<path fill-rule="evenodd" clip-rule="evenodd" d="M25.911 33.6384C26.0661 33.5414 26.3731 33.013 26.6411 32.8812C26.9089 32.7452 27.1108 32.7181 27.3517 32.45C27.5924 32.1702 27.6589 31.9995 28.1866 31.7783C28.9246 31.4596 28.417 31.0479 28.417 31.0479C28.4983 30.9681 28.5852 30.8942 28.6771 30.8268C28.8675 30.6831 29.0887 30.5083 29.0695 30.2013C29.0424 29.685 28.9453 28.9354 28.5219 28.5005C28.9336 28.415 29.7218 28.3569 30.2115 28.2327C30.7783 28.0888 31.0387 27.8868 31.0387 27.8868C31.0387 27.8868 30.7125 27.3316 31.2406 26.7725C31.7688 26.2134 32.1999 25.8793 32.5183 25.2539C32.1533 25.2073 31.5967 25.0132 30.1764 25.5529C30.2531 25.589 30.3271 25.6305 30.3979 25.6771C30.3979 25.6771 29.5242 25.918 29.2057 26.186C28.6502 26.6557 28.5803 27.0403 27.9784 27.3277C27.3766 27.6152 26.7706 27.5374 26.2699 27.7704C25.7692 28.0033 25.6952 28.2015 25.5124 28.287C25.5513 28.3336 25.5047 28.4111 25.5784 28.4772C25.5318 28.5432 25.26 28.9859 24.9843 28.9859C25.0114 29.0908 25.2444 29.1684 25.2444 29.1684C25.2444 29.1684 25.0736 29.2928 24.6387 29.3238C24.8598 29.5542 25.0698 29.8053 25.6483 30.1704C25.6017 30.2674 25.4074 30.4113 25.4852 30.5938C25.5708 30.7763 25.7924 31.0249 26.6774 31.2269C26.2269 31.2461 25.699 31.351 24.9878 31.254C24.2772 31.1685 24.1607 31.1181 23.7219 31.2269C23.7685 31.2735 23.8927 31.2735 24.0015 31.3976C23.885 31.4053 23.1549 31.3121 22.9063 31.6385C22.6462 31.9762 22.5336 32.5317 22.553 32.9044C22.4171 32.9705 22.285 33.087 22.351 33.3279C22.4171 33.5688 22.7627 33.6463 22.9841 33.7976C23.2053 33.9607 23.2248 34.0188 23.4347 33.9802C23.6559 33.9336 23.982 33.7124 24.1725 33.7124C24.3629 33.7124 24.4986 33.856 24.4986 33.856C24.4986 33.856 25.0152 33.6074 25.0657 33.654C25.1123 33.7006 25.0733 33.9996 25.1238 34.0462C25.175 34.0813 25.7569 33.7357 25.9123 33.6384H25.911Z" fill="#ECD592"/>
<path fill-rule="evenodd" clip-rule="evenodd" d="M37.2003 18.0971C34.7731 11.8292 28.773 10.668 28.773 10.668H11.6546L11.7206 17.0524H15.1298V31.3088H11.6543V37.6817H28.2992C32.3107 37.6817 35.5263 33.6504 35.5263 33.6504C40.6757 26.3419 37.2 18.0971 37.2 18.0971H37.2003ZM28.3885 29.3553C28.3885 29.3553 27.0829 31.2389 25.6624 31.2389H22.8208L22.7534 17.068H26.4002C26.4002 17.068 28.0898 17.4213 29.2702 20.7649C29.2702 20.7649 30.8351 25.5521 28.3885 29.3553Z" fill="white" fill-opacity="0.8"/>
</g>
<defs>
<clipPath id="clip0_124_209">
<rect width="48" height="48" fill="white"/>
</clipPath>
</defs>
</svg>
