<svg width="48" height="48" viewBox="0 0 48 48" fill="none" xmlns="http://www.w3.org/2000/svg">
<g clip-path="url(#clip0_124_178)">
<path d="M35.1457 4.22289C33.8966 5.45802 32.7521 6.79669 31.7348 8.22412L31.4132 8.12058C29.5581 7.5215 27.6357 7.1517 25.6983 7.02597C25.1149 6.98159 22.9382 6.98159 22.2276 7.02597C20.0808 7.16649 18.4351 7.48452 16.5651 8.12797C16.4903 8.15756 16.423 8.17974 16.3557 8.20193C15.301 6.7819 14.1266 5.45062 12.8325 4.23028C19.041 1.08699 26.3042 0.709791 32.8045 3.18745C33.5001 3.44631 34.1808 3.74954 34.8465 4.07497L35.1457 4.22289Z" fill="#F00500"/>
<path d="M46.725 32.2759C45.7825 34.9311 44.3687 37.3939 42.5361 39.5388C41.5412 40.6925 40.4416 41.7502 39.2598 42.7116C36.4921 44.9156 33.2607 46.491 29.8124 47.3193C25.9975 48.229 22.0181 48.229 18.2032 47.3193C14.7474 46.491 11.5235 44.9156 8.75581 42.7116C7.57395 41.7502 6.47437 40.6925 5.47951 39.5388C0.20602 33.3779 -1.39473 24.9169 1.29064 17.2916C1.79929 15.879 2.4351 14.5181 3.19807 13.2238C3.54964 12.6321 3.98349 11.9665 4.19293 11.6928C4.91103 14.7474 5.79368 17.4321 6.1228 18.401C6.10036 18.4528 6.07044 18.5119 6.04052 18.5637C4.29765 22.0546 3.35516 25.4198 3.13075 28.9995C3.13075 29.0438 3.12327 29.0956 3.12327 29.14C3.06343 30.2124 3.09335 30.7227 3.27287 31.3958C3.83388 33.5036 5.5618 35.826 8.2696 38.1039C12.7053 41.8315 18.7193 44.5237 23.2747 44.8343C28.0246 45.1523 35.0335 42.4084 39.7011 38.3998C40.4342 37.7563 41.1223 37.0759 41.7656 36.3511C42.2294 35.8186 42.9176 34.9015 42.8652 34.9015C42.8503 34.9015 42.8652 34.8867 42.8951 34.8719C42.9176 34.8571 42.94 34.8349 42.925 34.8201C42.9176 34.8127 42.9325 34.7905 42.955 34.7831C42.9774 34.7757 42.9924 34.7609 42.9849 34.7462C42.9774 34.7314 42.9849 34.7166 43.0148 34.7092C43.0373 34.7018 43.0447 34.6796 43.0372 34.6648C43.0298 34.65 43.0373 34.6352 43.0522 34.6352C43.0672 34.6352 43.0821 34.613 43.0821 34.5982C43.0821 34.5834 43.0971 34.5613 43.112 34.5613C43.127 34.5613 43.142 34.5465 43.142 34.5317C43.1644 34.4725 43.2018 34.4133 43.2392 34.3616C43.3514 34.1915 43.8002 33.4001 43.8601 33.267C44.2864 32.3129 44.5557 31.4623 44.6829 30.6118C44.7427 30.205 44.7801 29.458 44.7502 29.2805C44.7427 29.2509 44.7427 29.1992 44.7352 29.1178C44.7203 28.9699 44.7128 28.748 44.6978 28.5261C44.6829 28.1933 44.653 27.7274 44.6305 27.4981C44.3089 24.1403 43.4412 21.3964 41.7955 18.4898C41.7282 18.3788 41.6684 18.2679 41.631 18.1791C41.616 18.1569 41.6085 18.1347 41.6011 18.12C41.833 17.4321 42.7829 14.5551 43.5384 11.2639L43.5534 11.2787L43.6656 11.4266C43.8601 11.6854 44.3762 12.4546 44.6081 12.8244C45.6628 14.5255 46.4856 16.3523 47.069 18.2605C48.4229 22.8534 48.3107 27.7495 46.725 32.2759Z" fill="#F00500"/>
<path d="M37.0158 23.4377C36.9933 23.556 36.6418 23.911 36.2902 24.1699C35.2579 24.9169 33.4103 25.6121 31.5328 25.9449C30.4632 26.1372 29.3935 26.1668 29.0719 26.0115C28.8624 25.9079 28.8325 25.8266 28.9073 25.5603C29.0644 25.0056 29.573 24.3992 30.3659 23.8297C30.7699 23.5412 32.408 22.5576 33.171 22.1434C34.4276 21.4629 35.4449 21.0562 36.1331 20.96C36.35 20.9304 36.6118 20.923 36.6941 20.96C36.8288 21.0118 36.9784 21.4038 37.0382 21.8771C37.0681 22.1286 37.0532 23.238 37.0158 23.4377Z" fill="black"/>
<path d="M19.3926 25.8858C19.3477 25.9745 19.1233 26.0707 18.869 26.1076C18.6146 26.1446 17.8367 26.1224 17.3954 26.0707C15.8096 25.8636 14.1266 25.3828 12.8998 24.7912C12.2116 24.4583 11.7179 24.1255 11.3514 23.7631L11.142 23.5486L11.1195 23.2676C11.0821 22.7794 11.0896 22.0103 11.1495 21.7366C11.1869 21.5073 11.2691 21.2854 11.3813 21.0858C11.4412 21.0118 11.4412 21.0118 11.7105 21.0118C12.0396 21.0118 12.3164 21.0636 12.7652 21.2041C13.6852 21.4851 15.0541 22.1656 16.7222 23.1566C18.0985 23.9702 18.6146 24.3696 19.0111 24.9169C19.2804 25.2571 19.4599 25.7378 19.3926 25.8858Z" fill="black"/>
<path d="M29.9845 36.181C29.9845 36.2032 29.8947 36.5582 29.7825 36.9798C29.6703 37.4013 29.5805 37.7415 29.5805 37.7563C29.4983 37.7637 29.4235 37.7711 29.3412 37.7637H29.1018L28.7727 38.5329C28.5932 38.9545 28.4286 39.3465 28.4062 39.4056L28.3613 39.5092L28.2042 39.2577L28.0471 39.0063V36.9576L27.9873 36.9724C27.8601 37.0019 26.955 37.1203 26.5586 37.1573C24.9204 37.32 23.2748 37.283 21.6441 37.0537C21.3823 37.0167 21.1579 36.9871 21.1504 36.9945C21.143 37.0019 21.1504 37.4753 21.1654 38.0596L21.1878 39.1098L21.0607 39.3021C20.9934 39.4056 20.926 39.4944 20.926 39.5018C20.9036 39.524 20.8288 39.4056 20.6567 39.0654C20.4697 38.7104 20.3351 38.3332 20.2379 37.9412L20.1855 37.7267L19.9536 37.7415L19.7217 37.7637L19.6619 37.4901C19.632 37.3422 19.5946 37.1129 19.5796 36.9871L19.5572 36.7505L19.3627 36.5804C19.2505 36.4842 19.1383 36.3881 19.1158 36.3733C19.0784 36.3437 19.0635 36.2919 19.0635 36.2475V36.1588L19.9985 36.1662L20.9335 36.1736L20.9634 36.2697L20.9934 36.3659L21.315 36.3807C21.4945 36.3881 22.063 36.4029 22.5717 36.4177L23.5067 36.4398L23.746 36.07L23.9929 35.7002H24.3071L24.2996 34.9311L24.2921 34.1619L23.8807 33.9844C22.5567 33.4075 21.7788 32.7492 21.487 31.9505C21.4272 31.7878 21.4272 31.7286 21.4122 30.989C21.4048 30.2568 21.4048 30.1902 21.4571 30.0275C21.5618 29.6577 21.8536 29.3693 22.2276 29.2731C22.3547 29.2361 22.6913 29.2361 24.4567 29.2361L26.5361 29.2435L26.768 29.3545C27.0448 29.4876 27.1719 29.5838 27.329 29.7908C27.5085 30.0275 27.5609 30.2124 27.5609 30.6636C27.5609 31.307 27.516 31.8617 27.4487 32.0836C27.3515 32.3868 27.2019 32.6753 27.0149 32.9341C26.6409 33.4075 25.9602 33.8808 25.3393 34.0953L25.1598 34.1619L25.1673 34.9385L25.1747 35.715L25.3393 35.7298L25.5039 35.7446L25.7283 36.0774L25.9452 36.4103H26.9475C27.5011 36.4103 27.9873 36.4177 28.0322 36.4251C28.107 36.4398 28.1219 36.4324 28.1967 36.3067L28.2865 36.1736H29.1467C29.79 36.144 29.9845 36.1588 29.9845 36.181Z" fill="black"/>
<path d="M26.035 38.3036C25.8929 38.385 25.7957 38.4219 25.7732 38.4072C25.7508 38.3998 25.6461 38.311 25.5339 38.2297L25.3319 38.0669L25.1225 38.2888C24.6662 38.777 24.6512 38.7991 24.5166 38.8065C24.3071 38.8287 24.2623 38.7918 24.0079 38.4146C23.8733 38.2223 23.7686 38.0595 23.7686 38.0595C23.7686 38.0595 23.6713 38.0448 23.5591 38.0374L23.3497 38.0152L23.2524 38.2149L23.1552 38.4146L22.9832 38.3628C22.8485 38.3184 22.7139 38.2666 22.5867 38.2075L22.3623 38.0965V37.675L24.352 37.6824L26.3417 37.6897L26.3492 37.8894C26.3567 38.1261 26.3642 38.1187 26.035 38.3036Z" fill="black"/>
<path d="M44.7352 29.2805C44.7277 29.2509 44.7277 29.1992 44.7202 29.1178C42.925 28.9255 37.8011 28.8072 33.0437 32.6901C33.0437 32.6901 31.5103 25.7378 24.3294 25.7378C17.1485 25.7378 14.4855 32.6901 14.4855 32.6901C10.4612 28.4078 5.07554 28.7184 3.13071 28.9995C3.13071 29.0438 3.12322 29.0956 3.12322 29.14C3.06338 30.2124 3.0933 30.7227 3.27283 31.3958C3.83384 33.5036 5.56175 35.826 8.26956 38.1039C12.7053 41.8315 18.7193 44.5237 23.2747 44.8343C28.0246 45.1523 35.0335 42.4084 39.7011 38.3998C40.4341 37.7563 41.1223 37.0759 41.7656 36.3511C42.2294 35.8186 42.9175 34.9015 42.8652 34.9015C42.8502 34.9015 42.8652 34.8867 42.8951 34.8719C42.9175 34.8571 42.94 34.8349 42.925 34.8201C42.9175 34.8127 42.9325 34.7905 42.9549 34.7831C42.9774 34.7757 42.9923 34.761 42.9848 34.7462C42.9774 34.7314 42.9849 34.7166 43.0148 34.7092C43.0372 34.7018 43.0447 34.6796 43.0372 34.6648C43.0297 34.65 43.0372 34.6352 43.0522 34.6352C43.0671 34.6352 43.0821 34.613 43.0821 34.5982C43.0821 34.5834 43.097 34.5613 43.112 34.5613C43.127 34.5613 43.1419 34.5465 43.1419 34.5317C43.1644 34.4725 43.2018 34.4133 43.2392 34.3616C43.3514 34.1915 43.8002 33.4001 43.86 33.267C44.2864 32.3129 44.5557 31.4623 44.6828 30.6118C44.7277 30.205 44.7651 29.458 44.7352 29.2805ZM26.0349 38.3036C25.8927 38.385 25.7955 38.422 25.7731 38.4072C25.7506 38.3998 25.6459 38.311 25.5337 38.2297L25.3317 38.067L25.1223 38.2888C24.666 38.777 24.651 38.7992 24.5164 38.8066C24.307 38.8288 24.2621 38.7918 24.0078 38.4146C23.8731 38.2223 23.7684 38.0596 23.7684 38.0596C23.7684 38.0596 23.6712 38.0448 23.5589 38.0374L23.3495 38.0152L23.2523 38.2149L23.155 38.4146L22.983 38.3628C22.8483 38.3184 22.7137 38.2667 22.5865 38.2075L22.3621 38.0965V37.675L24.3518 37.6824L26.3416 37.6898L26.349 37.8895C26.3565 38.1261 26.364 38.1187 26.0349 38.3036ZM29.7749 36.9724C29.6627 37.3939 29.573 37.7341 29.573 37.7489C29.4907 37.7563 29.4159 37.7637 29.3336 37.7563H29.0942L28.7726 38.5329C28.5931 38.9545 28.4285 39.3465 28.4061 39.4056L28.3612 39.5092L28.2041 39.2577L28.047 39.0063V36.9576L27.9872 36.9724C27.86 37.0019 26.9549 37.1203 26.5585 37.1573C24.9203 37.32 23.2747 37.283 21.644 37.0537C21.3822 37.0167 21.1578 36.9871 21.1503 36.9945C21.1429 37.0019 21.1503 37.4753 21.1653 38.0596L21.1877 39.1098L21.0606 39.3021C20.9933 39.4056 20.9259 39.4944 20.9259 39.5018C20.9035 39.524 20.8287 39.4056 20.6567 39.0654C20.4697 38.7104 20.335 38.3332 20.2378 37.9412L20.1854 37.7267L19.9535 37.7415L19.7216 37.7637L19.6618 37.4901C19.6319 37.3422 19.5945 37.1129 19.5795 36.9871L19.5571 36.7505L19.3626 36.5804C19.2504 36.4842 19.1382 36.3881 19.1157 36.3733C19.0783 36.3437 19.0634 36.2919 19.0634 36.2475V36.1588L19.9984 36.1662L20.9334 36.1736L20.9633 36.2697L20.9933 36.3659L21.3149 36.3807C21.4944 36.3881 22.0629 36.4029 22.5716 36.4177L23.5066 36.4398L23.746 36.07L23.9928 35.7002H24.307L24.2995 34.9311L24.292 34.1619L23.8806 33.9844C22.5566 33.4075 21.7787 32.7492 21.4869 31.9505C21.4271 31.7878 21.4271 31.7286 21.4121 30.989C21.4047 30.2568 21.4047 30.1902 21.457 30.0275C21.5617 29.6577 21.8535 29.3693 22.2275 29.2731C22.3546 29.2361 22.6913 29.2361 24.4566 29.2361L26.536 29.2435L26.7679 29.3545C27.0447 29.4876 27.1718 29.5838 27.3289 29.7908C27.5084 30.0275 27.5608 30.2124 27.5608 30.6636C27.5608 31.307 27.5159 31.8617 27.4486 32.0836C27.3514 32.3868 27.2018 32.6753 27.0148 32.9341C26.6408 33.4075 25.9601 33.8808 25.3392 34.0953L25.1597 34.1619L25.1672 34.9385L25.1747 35.715L25.3392 35.7298L25.5038 35.7446L25.7282 36.0774L25.9451 36.4103H26.9474C27.501 36.4103 27.9872 36.4177 28.0321 36.4251C28.1069 36.4398 28.1218 36.4324 28.1966 36.3067L28.2864 36.1736H29.1466C29.8123 36.1736 30.0068 36.181 30.0068 36.2032C29.9844 36.1958 29.8871 36.5582 29.7749 36.9724Z" fill="white"/>
<path d="M44.6753 28.5261C44.6604 28.1933 44.6304 27.7274 44.608 27.4981C44.2864 24.1403 43.4187 21.3964 41.773 18.4898C41.7057 18.3788 41.6459 18.2679 41.6085 18.1791C41.5935 18.1569 41.586 18.1348 41.5785 18.12C41.8104 17.4321 42.7604 14.5551 43.5159 11.2639C44.5407 6.79669 45.1915 1.57512 43.2017 0.00717317C43.2017 0.00717317 39.7609 -0.244291 35.1531 4.22289C33.9039 5.45802 32.7595 6.7967 31.7422 8.22412L31.4205 8.12058C29.5655 7.5215 27.6431 7.1517 25.7057 7.02597C25.1223 6.98159 22.9455 6.98159 22.2349 7.02597C20.0881 7.16649 18.4425 7.48452 16.5725 8.12797C16.4977 8.15756 16.4304 8.17975 16.363 8.20193C15.3083 6.7819 14.134 5.45062 12.8399 4.23029C8.04513 -0.259082 4.47711 -0.000223275 4.47711 -0.000223275C2.36771 1.6195 3.0858 7.07774 4.1779 11.6928C4.89599 14.7474 5.77865 17.4321 6.10777 18.401C6.08533 18.4528 6.05542 18.5119 6.0255 18.5637C4.28262 22.0546 3.34013 25.4198 3.11572 28.9995C5.06804 28.7184 10.4463 28.4004 14.478 32.6901C14.478 32.6901 17.141 25.7378 24.3219 25.7378C31.5028 25.7378 33.0362 32.6901 33.0362 32.6901C37.7936 28.8072 42.9175 28.9329 44.7127 29.1178C44.7052 28.9699 44.6903 28.748 44.6753 28.5261ZM7.52152 15.6127C7.52152 15.6127 4.72395 8.69747 5.44204 4.74801C5.56172 4.08237 5.78613 3.49808 6.1377 3.05432C6.1377 3.05432 9.30927 3.36495 14.4257 8.98591C14.4257 8.98591 13.4533 9.45186 12.1517 10.4429C12.1517 10.4429 12.1442 10.4503 12.1368 10.4503C10.723 11.5227 8.91283 13.2238 7.52152 15.6127ZM19.3925 25.8858C19.3476 25.9745 19.1232 26.0707 18.8689 26.1076C18.6146 26.1446 17.8366 26.1224 17.3953 26.0707C15.8095 25.8636 14.1265 25.3828 12.8997 24.7911C12.2116 24.4583 11.7179 24.1255 11.3513 23.7631L11.1419 23.5486L11.1195 23.2676C11.0821 22.7794 11.0895 22.0103 11.1494 21.7366C11.1868 21.5073 11.2691 21.2854 11.3813 21.0858C11.4411 21.0118 11.4411 21.0118 11.7104 21.0118C12.0395 21.0118 12.3163 21.0636 12.7651 21.2041C13.6851 21.4851 15.054 22.1656 16.7221 23.1566C18.0984 23.9702 18.6146 24.3696 19.011 24.9169C19.2803 25.2571 19.4598 25.7378 19.3925 25.8858ZM37.0157 23.4377C36.9932 23.556 36.6417 23.911 36.2901 24.1699C35.2578 24.9169 33.4103 25.6121 31.5327 25.9449C30.4631 26.1372 29.3934 26.1668 29.0718 26.0115C28.8623 25.9079 28.8324 25.8266 28.9072 25.5603C29.0643 25.0056 29.5729 24.3992 30.3658 23.8297C30.7698 23.5412 32.4079 22.5576 33.1709 22.1434C34.4276 21.463 35.4448 21.0562 36.133 20.96C36.3499 20.9304 36.6117 20.923 36.694 20.96C36.8287 21.0118 36.9783 21.4038 37.0381 21.8771C37.068 22.1286 37.0531 23.238 37.0157 23.4377ZM35.774 10.4429L35.759 10.4355C34.5024 9.44446 33.5599 8.97851 33.5599 8.97851C38.5042 3.35756 41.5636 3.04693 41.5636 3.04693C41.9002 3.49808 42.1171 4.07497 42.2368 4.74061C42.9325 8.69007 40.2321 15.6127 40.2321 15.6127C39.1026 13.6232 37.5842 11.863 35.774 10.4429Z" fill="#FFA409"/>
<path d="M42.2445 4.7406C41.661 4.66664 38.9009 4.65185 35.7742 10.4429L35.7592 10.4355C34.5026 9.44446 33.5601 8.97851 33.5601 8.97851C38.5044 3.35755 41.5638 3.04692 41.5638 3.04692C41.9079 3.49808 42.1248 4.07496 42.2445 4.7406Z" fill="#FF9300"/>
<path d="M40.2401 15.6127C39.1031 13.6158 37.5921 11.8629 35.7744 10.4429C38.9011 4.65185 41.6538 4.66665 42.2447 4.74061C42.9404 8.69746 40.2401 15.6127 40.2401 15.6127Z" fill="#FF8300"/>
<path d="M42.3568 4.76279C42.3194 4.75539 42.282 4.748 42.2446 4.7406L42.3568 4.76279Z" fill="#FF8300"/>
<path d="M14.4257 8.97851C14.4257 8.97851 13.4533 9.44446 12.1517 10.4355C12.1517 10.4355 12.1442 10.4429 12.1368 10.4429C8.89787 4.64446 6.04794 4.66664 5.43457 4.7406C5.55425 4.07496 5.77866 3.49068 6.13023 3.04692C6.13771 3.04692 9.30927 3.35755 14.4257 8.97851Z" fill="#FF9300"/>
<path d="M12.1443 10.4429C10.7231 11.5227 8.91288 13.2164 7.52157 15.6127C7.52157 15.6127 4.724 8.69746 5.44209 4.74061C6.04798 4.66665 8.90539 4.65185 12.1443 10.4429Z" fill="#FF8300"/>
<path d="M5.44195 4.7406C5.40455 4.748 5.35967 4.75539 5.32227 4.76279L5.44195 4.7406Z" fill="#FF8300"/>
<path d="M32.6696 19.4512C32.6696 19.4512 30.276 19.5992 30.5752 17.7502C30.8744 15.9012 32.7444 15.6793 33.268 15.7532C33.7917 15.8272 35.8861 16.5668 35.5121 18.12C35.1381 19.6731 34.6145 19.3773 34.3153 19.4512C34.0161 19.5252 32.6696 19.4512 32.6696 19.4512Z" fill="white"/>
<path d="M15.0168 19.4512C15.0168 19.4512 12.6232 19.5992 12.9224 17.7502C13.2216 15.9012 15.0916 15.6793 15.6152 15.7532C16.1388 15.8272 18.2333 16.5668 17.8593 18.12C17.4852 19.6731 16.9616 19.3773 16.6624 19.4512C16.3632 19.5252 15.0168 19.4512 15.0168 19.4512Z" fill="white"/>
</g>
<defs>
<clipPath id="clip0_124_178">
<rect width="48" height="48" fill="white"/>
</clipPath>
</defs>
</svg>
