<svg width="48" height="56" viewBox="0 0 48 56" fill="none" xmlns="http://www.w3.org/2000/svg">
<circle cx="24" cy="32" r="23.5" fill="#A17609" stroke="#9E7409"/>
<path d="M34.3042 14.5225C34.2831 14.5167 34.2619 14.5109 34.2407 14.5051L34.3042 14.5225Z" fill="#FF8300"/>
<path d="M19.332 7.72055L17.601 8.11529C15.4423 6.08004 13.177 4.27444 10.8243 2.71379C10.5736 2.52717 10.3027 2.39926 10.0223 2.33517C9.96538 2.32436 9.9075 2.32949 9.85203 2.35023C9.79655 2.37098 9.74459 2.40693 9.69917 2.456C9.61056 2.5532 9.5526 2.69481 9.53762 2.85074C9.10613 6.98595 9.06056 11.1818 9.40202 15.3334L10.0454 19.2002L9.34144 20.2354C9.28773 20.234 9.23443 20.2488 9.18515 20.2787C9.13588 20.3086 9.09177 20.3529 9.05583 20.4086C8.81061 20.5295 8.68656 20.6825 8.68656 20.9242C8.5827 21.0289 8.49134 21.0289 8.41249 20.9242C7.73453 20.8718 7.07965 21.3391 7.11427 22.3582C7.15658 23.1906 7.14889 24.019 7.09119 24.8434L7.15177 25.0166C7.27871 25.1938 7.47296 25.2569 7.73453 25.2059C7.91724 26.7607 7.93359 28.3491 7.78357 29.971L5.74392 30.833C5.63237 30.8867 5.58237 30.829 5.59391 30.6598C5.76518 27.8383 6.18076 25.0561 6.83155 22.3743C7.25275 20.5295 7.74703 18.9586 8.3144 17.6616C8.3698 17.5455 8.39241 17.4048 8.37787 17.2668C7.90928 13.5288 7.78036 9.72324 7.99417 5.94019C8.08265 4.13029 8.28844 2.3647 8.61155 0.643422C8.64111 0.479152 8.70531 0.331055 8.79584 0.218306C8.88636 0.105557 8.99905 0.0333494 9.1193 0.0110318C9.20154 -0.00429578 9.28518 0.00532131 9.36452 0.0392274C9.86073 0.244653 10.3454 0.486332 10.8358 0.796485C13.8439 2.65671 16.6969 4.97185 19.3435 7.70041L19.332 7.72055ZM39.4227 29.7817L39.4342 25.3952C40.1054 25.1482 40.3362 24.0553 40.1266 22.1165C40.1134 21.9151 40.0602 21.7229 39.9731 21.5613C39.8859 21.3998 39.7683 21.2754 39.6333 21.2021C39.3334 21.0151 39.0226 20.8642 38.7043 20.751H38.5947C38.4624 20.5896 38.3056 20.4725 38.136 20.4086L37.8273 19.8044C37.9138 18.8176 38.1504 18.1288 38.5081 17.7502C38.5457 17.7135 38.5756 17.6636 38.5948 17.6056C38.6141 17.5476 38.622 17.4835 38.6178 17.4199C38.5761 16.7888 38.3585 16.2059 38.0119 15.7966C38.286 11.5672 38.3956 7.14858 37.8908 2.98769C37.8781 2.88883 37.8491 2.79547 37.806 2.71504C37.763 2.63462 37.707 2.56936 37.6427 2.52448C37.5775 2.47782 37.5053 2.45349 37.4321 2.45349C37.3588 2.45349 37.2866 2.47782 37.2215 2.52448C34.6135 4.19608 32.1526 6.09728 29.8764 8.16765L28.1455 7.59971C30.0245 5.67971 31.9863 3.94098 34.0307 2.3835C35.295 1.43182 36.6201 0.646989 37.9889 0.0392274C38.1024 -0.0107974 38.2239 -0.0130247 38.3383 0.0328219C38.4528 0.0786685 38.555 0.170558 38.6322 0.297017C38.6881 0.381538 38.7304 0.4818 38.7563 0.591058C38.9563 1.50406 39.1005 2.40767 39.189 3.30187C39.6692 8.03296 39.598 12.8413 38.9784 17.5407C38.9551 17.7067 38.9767 17.8789 39.039 18.0241C40.5968 21.758 41.4912 25.9632 41.6354 30.2812C41.6354 30.402 41.5864 30.4544 41.4883 30.4382L39.4227 29.7817Z" fill="#FCAF1E"/>
<path d="M17.6012 8.11514C16.4127 8.47766 15.3741 8.99726 14.4595 9.66993C12.9862 10.5833 11.6582 11.8979 10.5533 13.5368C9.98405 14.4525 9.60035 15.0513 9.40225 15.3332C9.05606 11.2247 9.10511 7.06384 9.52631 2.8506C9.54616 2.6924 9.60864 2.55081 9.70092 2.45493C9.7932 2.35904 9.90828 2.31614 10.0225 2.33502C10.3017 2.40547 10.572 2.53306 10.8245 2.71365C13.1773 4.27429 15.4426 6.07989 17.6012 8.11514ZM38.0151 15.7965L36.2091 12.8641C34.4116 10.5884 32.2362 8.97424 29.8795 8.1675C32.2303 6.04516 34.6835 4.15286 37.2217 2.50419C37.2869 2.46349 37.3578 2.44404 37.4292 2.44731C37.5005 2.45058 37.5704 2.47649 37.6335 2.52307C37.6966 2.56965 37.7513 2.63568 37.7934 2.71616C37.8355 2.79663 37.864 2.88944 37.8766 2.98755C38.3959 7.13232 38.2862 11.5671 38.0122 15.7965" fill="#C27627"/>
<path d="M28.1595 7.59971L29.8789 8.16766C32.2344 8.96971 34.4097 10.5783 36.2084 12.8481C34.9932 12.1279 33.7404 11.5381 32.4609 11.0839C31.9327 10.8798 31.3764 10.8632 30.8425 11.0356C30.8102 11.047 30.7801 11.068 30.7542 11.0972C30.7283 11.1264 30.7072 11.1631 30.6924 11.2047C30.6793 11.2459 30.6725 11.2905 30.6725 11.3356C30.6725 11.3807 30.6793 11.4253 30.6924 11.4666L32.3628 16.6264C32.1743 16.8385 32.1657 17.0923 32.3369 17.3877C32.4003 17.4884 32.585 17.6978 32.8937 17.9717C32.1485 18.2289 31.3712 18.2468 30.6203 18.0241L29.4317 17.9234C29.5202 16.7499 29.5039 15.9497 29.3827 15.5227C29.1807 14.8245 28.6941 13.7316 27.9229 12.244C27.6194 11.6026 27.2035 11.0803 26.7147 10.7264C26.226 10.3725 25.6806 10.1989 25.1303 10.2219C23.5891 10.1315 22.0457 10.1489 20.5057 10.2743C19.8614 10.3414 19.2306 10.5146 18.6132 10.7939C18.1709 10.9657 17.9074 11.4249 17.8227 12.1714C17.5586 14.0712 17.5003 16.0155 17.6496 17.9395L15.3879 18.2496C15.2753 18.2496 15.2378 18.3544 15.2638 18.4913L15.4859 20.461L15.3734 25.2583C15.3736 25.3941 15.3902 25.5289 15.4225 25.6571C15.4879 25.9659 15.5215 26.2639 15.5235 26.5513C15.4975 28.1423 15.4975 29.6609 15.4975 31.0747C15.4975 31.7151 15.3359 32.3193 15.4859 32.9074C15.5112 33.046 15.4978 33.1929 15.4484 33.3182C15.3973 33.4266 15.3239 33.5108 15.2378 33.5599C15.1994 33.5787 15.1869 33.6136 15.2003 33.6646C15.2148 33.717 15.2378 33.7331 15.2638 33.7533C15.3715 33.7909 15.4244 33.8875 15.4225 34.0433V37.6201C15.4225 37.7571 15.3734 37.8604 15.2753 37.9303L14.9782 38.1035L13.8531 37.7732L14.0752 26.7607C14.0752 26.5674 14.0012 26.4519 13.8531 26.4143C13.729 26.4143 13.6194 26.4143 13.5069 26.4667C13.3819 26.5204 13.3117 26.4519 13.2963 26.2613C13.1213 24.5856 13.0761 23.204 13.1607 22.1165C13.2097 21.3391 13.0251 20.892 12.5664 20.7873C12.5235 20.7777 12.4835 20.7515 12.4508 20.7116C12.4182 20.6717 12.3942 20.6197 12.3818 20.5617C12.2582 20.0468 12.2582 19.4896 12.3818 18.9747L13.3222 18.6806C14.0637 18.4752 14.5455 18.0241 15.0907 17.4038C15.1354 17.3523 15.1699 17.2856 15.1906 17.21C15.2113 17.1345 15.2176 17.0527 15.2089 16.9727C15.2001 16.8927 15.1767 16.8173 15.1408 16.7537C15.1049 16.6902 15.0578 16.6408 15.0042 16.6103C14.7094 16.406 14.3842 16.3023 14.0551 16.3079C13.7261 16.3135 13.4027 16.4282 13.1116 16.6425L14.4589 9.6862C15.3629 8.99607 16.4101 8.47915 17.6006 8.13543L19.3316 7.72055C22.1682 7.44673 25.0153 7.4575 27.8508 7.75278C27.9085 7.75815 27.9614 7.74741 28.0095 7.72055L28.1595 7.59971Z" fill="#FFDE41"/>
<path d="M14.4596 9.66968L13.1124 16.6421C11.9419 17.0872 10.8812 17.9719 10.0457 19.1998L9.40234 15.333C9.6014 15.0551 9.9851 14.467 10.5534 13.5365C11.6584 11.9012 12.9883 10.5961 14.4596 9.68579V9.66968Z" fill="#FDC90E"/>
<path d="M29.4315 17.9236L28.4794 18.0243C28.3242 17.8544 28.1342 17.7584 27.9371 17.7504C24.9376 17.6113 21.9356 17.6113 18.9361 17.7504C18.7892 17.769 18.6482 17.8397 18.5264 17.9558L17.6609 17.9397C17.4859 16.2963 17.5398 14.3736 17.8225 12.1716C17.909 11.4305 18.1802 10.9633 18.613 10.7941C19.2303 10.5 19.8506 10.3429 20.5055 10.2745C22.0454 10.1491 23.5888 10.1317 25.13 10.2221C26.3792 10.2906 27.1928 10.8424 27.9226 12.2441C28.69 13.7264 29.1862 14.8301 29.3824 15.5229C29.5065 15.9539 29.518 16.7474 29.4315 17.9397V17.9236Z" fill="#FFF073"/>
<path d="M36.2095 12.8484L38.0155 15.7968C38.3848 16.2802 38.5838 16.836 38.6213 17.4201C38.6271 17.4871 38.6193 17.555 38.5989 17.6162C38.5786 17.6774 38.5463 17.7295 38.5059 17.7665C38.1386 18.1263 37.9126 18.8057 37.828 19.8046C36.6422 17.9397 34.2795 15.676 32.3639 16.6266L30.6791 11.4708C30.666 11.4296 30.6592 11.385 30.6592 11.3399C30.6592 11.2948 30.666 11.2502 30.6791 11.209C30.6951 11.1655 30.7179 11.1277 30.7459 11.0984C30.7739 11.0691 30.8063 11.0491 30.8406 11.0398C31.3704 10.8631 31.9238 10.8798 32.4476 11.0881C33.6823 11.5232 34.9199 12.1072 36.2066 12.8524" fill="#FDC90E"/>
<path d="M12.3825 18.9911C11.9987 19.0141 11.6232 19.1558 11.2834 19.406C11.0179 19.4206 10.7571 19.5082 10.516 19.6638L9.3418 20.2357L10.0342 19.2005C10.8789 17.9724 11.9469 17.0883 13.1239 16.6428C13.7067 16.2118 14.3356 16.2118 15.0049 16.6106C15.0576 16.6432 15.1034 16.6942 15.1378 16.7587C15.1722 16.8233 15.1941 16.8991 15.2013 16.9789C15.2086 17.0587 15.2009 17.1398 15.1792 17.2143C15.1574 17.2888 15.1222 17.3541 15.0771 17.4041C14.5462 18.0244 14.0673 18.4755 13.323 18.6809L12.3825 18.975V18.9911ZM37.8277 19.8047L38.1363 20.4089C38.0767 20.4975 37.9777 20.4908 37.8392 20.3888C37.4699 19.8209 36.8381 19.7 36.4429 19.5107C36.198 19.3967 35.9459 19.3158 35.6899 19.269L34.7494 18.9589C34.5448 18.8445 34.3265 18.7857 34.1061 18.7857C33.668 18.6276 33.2563 18.3512 32.8944 17.972C32.6926 17.8094 32.5056 17.6133 32.3376 17.388C32.1684 17.0926 32.177 16.8388 32.3636 16.6267C34.2792 15.6761 36.6419 17.9398 37.8277 19.8047Z" fill="#343228"/>
<path d="M28.4799 18.0237L28.1827 19.9934L27.9866 20.2673C27.6904 20.3506 27.3644 20.3908 27.0086 20.3882C24.4891 20.3613 21.9667 20.368 19.4414 20.4083C19.2471 20.411 19.1077 20.3532 19.0231 20.2351C18.9139 20.0736 18.8145 19.8998 18.7259 19.7155C18.7644 19.3019 18.698 18.7152 18.5269 17.9553C18.6498 17.8449 18.7907 17.7798 18.9365 17.766C21.9357 17.6049 24.9381 17.5996 27.9375 17.7498C28.1354 17.7519 28.3268 17.8485 28.4799 18.0237Z" fill="#FE0246"/>
<path d="M17.6491 17.94H18.5146C18.6954 18.7134 18.7656 19.3055 18.7252 19.7163C18.3997 20.8261 18.2558 22.0233 18.304 23.2207C18.3061 23.3144 18.2868 23.4066 18.249 23.484C18.2111 23.5615 18.1567 23.6202 18.0934 23.6517C18.0489 23.6667 18.0024 23.6667 17.9578 23.6517C17.6607 23.6033 17.5135 23.7564 17.4991 24.1713C17.4876 24.9124 17.3635 26.2779 17.8742 26.7612C17.9322 26.814 17.9803 26.8855 18.0144 26.9696C18.0485 27.0537 18.0677 27.148 18.0703 27.2446L18.1944 36.0296C18.1944 36.1705 18.1569 36.2712 18.0934 36.376C17.8935 36.6753 17.6494 36.9104 17.3779 37.0648C17.3091 36.9083 17.2666 36.732 17.2539 36.5492C17.1697 33.8346 17.1533 31.1168 17.2049 28.4006C17.2049 27.7803 17.1673 27.1761 17.0548 26.6041C16.8517 25.5402 16.8607 24.419 17.0808 23.3616C17.2914 22.4272 17.2049 21.4604 17.2049 20.4937C17.2049 20.3407 17.1414 20.2521 17.0433 20.2359C16.519 20.1091 15.9799 20.1872 15.4854 20.4615L15.2489 18.4918C15.2354 18.3522 15.2816 18.2716 15.3873 18.2502L17.6491 17.94Z" fill="#F88E05"/>
<path d="M29.4323 17.9232L30.6065 18.0239L30.5343 19.8889C30.5343 20.0258 30.4709 20.0983 30.3843 20.0983H29.2852L28.1831 19.9936L28.4803 18.0239L29.4323 17.9232Z" fill="#F76D04"/>
<path d="M32.8942 17.9714C33.2548 18.3541 33.6501 18.628 34.1059 18.7851C34.294 19.3322 34.3507 19.9496 34.2674 20.5453C34.2415 20.6823 34.1434 20.7507 33.9703 20.787L33.2404 20.5977L31.3623 20.2875C31.2383 20.2875 31.2008 20.3399 31.2267 20.5091C31.3739 21.3751 31.4114 22.237 31.3133 23.0467C31.2994 23.1872 31.3123 23.3303 31.3508 23.4615C31.5064 23.9451 31.5764 24.4739 31.5548 25.0033C31.5332 25.5326 31.4207 26.0469 31.2267 26.5027C31.1797 26.6183 31.154 26.7484 31.1517 26.8813L31.2758 37.789C30.6447 37.6947 30.0535 37.3124 29.5938 36.7014C29.5753 33.8014 29.5753 30.9011 29.5938 28.0011C29.5977 27.362 29.6515 26.7645 29.7554 26.2086C29.8766 25.548 29.9179 24.8337 29.8795 24.0657C29.865 23.7032 29.7064 23.5139 29.5333 23.2722C29.4588 23.1727 29.4145 23.0373 29.4092 22.8936L29.2852 20.1143L30.3843 20.0982C30.4709 20.0982 30.5209 20.0284 30.5343 19.8887L30.6209 18.0238C31.3623 18.2494 32.1297 18.2333 32.8942 17.9714Z" fill="#FCAF1E"/>
<path d="M34.1054 18.7856C34.3258 18.7857 34.5441 18.8445 34.7487 18.9588C34.7641 19.7644 34.7352 20.5633 34.6622 21.3555C34.5793 22.1456 34.5302 22.9418 34.515 23.74C34.515 27.2081 34.4141 30.6802 34.2669 34.1483C34.2294 34.5793 34.316 35.6346 34.4891 37.2901L33.7851 37.7412L33.6236 37.705C33.6098 36.1052 33.5771 34.5059 33.5255 32.9077C33.5101 32.2337 33.539 31.5771 33.612 30.938C33.7101 30.0733 33.7592 29.4235 33.7592 28.9885C33.7967 26.2253 33.8573 23.4984 33.9698 20.7875C34.1429 20.7513 34.241 20.6828 34.2669 20.5459C34.3442 19.9499 34.2878 19.3352 34.1054 18.7856Z" fill="#D3D743"/>
<path d="M12.3817 18.9906C12.2564 19.4996 12.2564 20.0524 12.3817 20.5615C12.4067 20.6984 12.4683 20.7736 12.5664 20.787C13.028 20.8918 13.2097 21.3389 13.1607 22.1163C13.0741 23.2038 13.1232 24.5854 13.2847 26.261C13.3107 26.4302 13.3828 26.5188 13.5069 26.4665C13.622 26.4125 13.7451 26.4 13.8646 26.4302C14.0031 26.4517 14.0733 26.5672 14.0752 26.7766L13.853 37.7729L13.8155 37.8253L12.826 37.3782L12.2836 36.9633C12.288 36.912 12.2835 36.86 12.2704 36.8116C12.2574 36.7632 12.2362 36.7199 12.2086 36.6854C12.1386 36.5926 12.0912 36.4714 12.073 36.339C11.8821 35.2425 11.7786 34.12 11.7644 32.9918C11.7644 32.1459 12.0846 31.8357 12.4798 31.3524L12.4942 31.3161C12.4955 31.3026 12.4944 31.2889 12.4908 31.2762C12.4873 31.2636 12.4815 31.2523 12.4741 31.2436L12.4567 31.2315L12.4192 31.2477C12.1327 31.5028 11.8894 31.5605 11.6893 31.4209C11.643 31.3899 11.6043 31.3405 11.5782 31.2788C11.552 31.2171 11.5395 31.146 11.5422 31.0745C11.4826 29.3397 11.3672 27.6144 11.196 25.8985C11.1326 25.3628 11.2566 25.0325 11.5653 24.7224C11.6064 24.6744 11.6391 24.6139 11.6606 24.5454C11.6821 24.4769 11.692 24.4023 11.6893 24.3276L11.4787 21.6853C11.4716 21.5857 11.4468 21.4902 11.4066 21.4073C11.2699 21.1135 11.187 20.7772 11.1654 20.4281C11.1437 20.0789 11.184 19.7277 11.2826 19.4054C11.6232 19.1556 11.9977 19.0088 12.3817 18.9745V18.9906Z" fill="#E8DA26"/>
<path d="M34.7496 18.9588L35.6901 19.2689C35.7074 21.4467 35.6247 23.6164 35.442 25.7781C35.3958 26.2883 35.4122 27.1275 35.491 28.2956C35.592 29.7819 35.491 32.6981 35.1823 37.0846L34.7236 37.2215L34.4899 37.29C34.3169 35.6305 34.239 34.5832 34.2563 34.1482C34.4149 30.6962 34.5015 27.208 34.5015 23.74C34.5015 23.1519 34.565 22.3584 34.663 21.3554C34.7361 20.5659 34.765 19.767 34.7496 18.9588Z" fill="#BDD467"/>
<path d="M35.6889 19.2685C35.9341 19.3209 36.1822 19.3894 36.4303 19.5102C36.8371 19.6834 37.4574 19.8204 37.8382 20.3722C37.6708 20.9221 37.6035 21.5212 37.642 22.1163C37.8382 25.6716 37.8545 29.2283 37.691 32.7864C37.6276 33.6134 37.6362 34.4351 37.717 35.2515L35.1812 37.0842C35.4898 32.6977 35.5908 29.7815 35.4898 28.2791C35.415 27.4496 35.3947 26.6123 35.4293 25.7777C35.6158 23.6182 35.6977 21.4435 35.6745 19.2685H35.6889Z" fill="#89BE9B"/>
<path d="M11.2943 19.4052C11.0942 20.1518 11.1356 20.8191 11.4183 21.4071L11.4789 21.6851L11.678 24.3274C11.6862 24.4029 11.6789 24.48 11.6569 24.5499C11.635 24.6198 11.5992 24.6795 11.5539 24.7221C11.2568 25.0323 11.1327 25.3626 11.1818 25.8983C11.3693 27.6585 11.4789 29.3825 11.5568 31.0742C11.5568 31.2313 11.603 31.3361 11.6895 31.4206C11.8895 31.5603 12.1328 31.5025 12.4194 31.2474H12.48V31.3522C12.0847 31.8355 11.753 32.1457 11.7645 32.9916C11.7645 34.1315 11.8741 35.2351 12.0732 36.3589C12.0847 36.4798 12.1338 36.6006 12.1973 36.6852C12.2291 36.7152 12.2542 36.7573 12.2695 36.8065C12.2849 36.8558 12.2898 36.9101 12.2838 36.9631L10.4403 35.7185L10.4663 34.0428C10.4663 33.5273 10.4547 32.9754 10.4028 32.4397C10.2791 30.9384 10.2501 29.4247 10.3163 27.9163C10.3644 26.5549 10.3932 25.1854 10.4028 23.8078C10.4028 22.4423 10.4403 21.0446 10.5153 19.663C10.7565 19.5075 11.0173 19.4199 11.2827 19.4052H11.2943Z" fill="#D3D743"/>
<path d="M10.5159 19.6638C10.4409 21.0454 10.4034 22.4431 10.3919 23.8086C10.3919 25.1902 10.3688 26.5718 10.3053 27.9171C10.2476 29.4343 10.2803 30.9421 10.4034 32.4405C10.4553 32.9776 10.4765 33.5119 10.4669 34.0436L10.4409 35.7193L9.87259 35.3729C9.88979 34.6409 9.83544 33.9092 9.71103 33.1978C9.59341 32.6152 9.54373 32.01 9.5639 31.4053C9.61583 30.2238 9.61968 29.0436 9.57544 27.8647L9.63891 22.5317C9.63891 21.8228 9.63891 21.1864 9.58987 20.6305C9.58987 20.4936 9.5264 20.409 9.42831 20.3889C9.30426 20.3889 9.1802 20.3889 9.05615 20.4251C9.09102 20.3664 9.13464 20.3191 9.18397 20.2864C9.2333 20.2537 9.28715 20.2364 9.34176 20.2358L10.5159 19.6638Z" fill="#BDD467"/>
<path d="M18.715 19.7159L19.0237 20.2355C19.1083 20.3537 19.2477 20.4114 19.442 20.4087C21.9653 20.3684 24.4877 20.3617 27.0092 20.3886C27.363 20.394 27.6929 20.3537 27.9987 20.2677L28.0737 27.1394C28.0738 27.219 28.052 27.2955 28.0128 27.3533C27.9736 27.411 27.92 27.4455 27.8631 27.4496C27.8171 27.4489 27.7715 27.461 27.7289 27.4852C27.6863 27.5094 27.6476 27.5452 27.615 27.5906C27.5839 27.6289 27.5598 27.677 27.5447 27.731C27.5297 27.7849 27.5241 27.8431 27.5284 27.9007C27.6669 29.3508 27.6015 30.778 27.3323 32.1824L26.4033 29.6247C26.3907 29.5879 26.3742 29.5539 26.3543 29.524L25.8956 28.8835C25.8751 28.8526 25.8608 28.8147 25.8541 28.7737C25.8474 28.7327 25.8484 28.6899 25.8571 28.6496C25.8659 28.6093 25.882 28.5729 25.9039 28.544C25.9259 28.5151 25.9528 28.4947 25.9821 28.4848L26.3802 28.3317C26.5399 28.2834 26.5764 28.1572 26.4899 27.9531C26.227 27.41 25.988 26.8451 25.7744 26.2613C25.5782 25.7487 25.2912 25.3149 24.9407 25.0013C24.5902 24.6876 24.188 24.5047 23.7724 24.47C23.3569 24.4352 22.9419 24.5498 22.5671 24.8028C22.1923 25.0558 21.8702 25.4387 21.6316 25.9149C21.3114 26.5514 21.0143 27.2442 20.7662 27.9853C20.7046 28.1545 20.7373 28.2807 20.8642 28.3639L21.1383 28.5371C21.2595 28.6258 21.2826 28.7265 21.2249 28.8835L19.4074 33.8218C19.2173 34.5097 18.9937 35.1786 18.738 35.8237C18.5 36.3557 18.2042 36.8327 17.861 37.2375C17.509 37.6436 17.1854 38.0954 16.8946 38.5869L15.103 38.1881C15.931 38.031 16.6869 37.6685 17.3792 37.0643C17.6507 36.91 17.8948 36.6749 18.0947 36.3756C18.155 36.2805 18.1861 36.156 18.1813 36.0292L18.0572 27.2442C18.0559 27.149 18.0385 27.0556 18.0064 26.9716C17.9743 26.8876 17.9284 26.8154 17.8726 26.7608C17.3648 26.2775 17.4889 24.912 17.5004 24.1708C17.5148 23.756 17.662 23.6029 17.9476 23.6512C17.9929 23.6647 18.0399 23.6636 18.0849 23.648C18.1299 23.6324 18.1717 23.6027 18.2073 23.5612C18.2429 23.5197 18.2712 23.4674 18.2902 23.4083C18.3092 23.3493 18.3183 23.2849 18.3168 23.2202C18.262 22.0239 18.4034 20.8276 18.7265 19.7159H18.715Z" fill="#F76D04"/>
<path d="M28.1831 19.9933L29.2967 20.1141L29.4092 22.8773C29.4092 23.0465 29.4582 23.1673 29.5332 23.272C29.7063 23.5137 29.865 23.703 29.8794 24.0656C29.9179 24.8309 29.8765 25.5452 29.7554 26.2084C29.6536 26.7956 29.5994 27.3968 29.5938 28.0009C29.5753 30.9009 29.5753 33.8012 29.5938 36.7013C29.287 36.5794 29.0231 36.3041 28.8524 35.9279C28.5255 35.1976 28.2362 34.4358 27.9869 33.6481L27.332 32.1819C27.6004 30.787 27.6671 29.3314 27.5282 27.9002C27.5224 27.8439 27.5262 27.7865 27.5392 27.7326C27.5522 27.6787 27.5742 27.6299 27.6032 27.59C27.6358 27.5447 27.6745 27.5089 27.7171 27.4847C27.7597 27.4605 27.8053 27.4484 27.8513 27.449C27.9102 27.449 27.9667 27.4164 28.0084 27.3582C28.0501 27.3 28.0735 27.2211 28.0735 27.1389L27.9869 20.2672L28.1831 19.9933Z" fill="#F88E05"/>
<path d="M17.3798 37.0642C16.6874 37.6684 15.9315 38.0309 15.1035 38.188L14.9795 38.1034L15.2766 37.9302C15.3747 37.8604 15.4238 37.757 15.4238 37.62V34.0432C15.4257 33.8875 15.3728 33.7908 15.2651 33.7532C15.2382 33.7505 15.217 33.721 15.2016 33.6646C15.2016 33.6122 15.2016 33.58 15.2391 33.5599C15.3252 33.5107 15.3986 33.4265 15.4497 33.3182C15.4795 33.2591 15.4985 33.1909 15.505 33.1192C15.5115 33.0476 15.5054 32.9749 15.4872 32.9073C15.3372 32.3192 15.5103 31.6989 15.5103 31.0746C15.5026 29.6568 15.5074 28.149 15.5247 26.5512C15.5214 26.248 15.4874 25.9469 15.4238 25.657C15.3915 25.5289 15.3749 25.3941 15.3747 25.2582L15.4988 20.4609C15.9897 20.1896 16.5246 20.1116 17.0451 20.2354C17.1432 20.2515 17.2067 20.3401 17.2067 20.4932C17.2067 21.4599 17.2932 22.4266 17.0826 23.3611C16.8625 24.4184 16.8535 25.5396 17.0566 26.6036C17.1682 27.1782 17.2182 27.777 17.2067 28.4C17.1567 31.0263 17.1682 33.7478 17.2413 36.5647C17.2413 36.6694 17.2932 36.8426 17.3653 37.0642H17.3798Z" fill="#FCAF1E"/>
<path d="M33.2402 20.5981C33.3527 21.7904 33.2546 22.9102 32.9575 23.9977C32.8565 24.3442 32.894 24.9806 33.0556 25.9473C33.1796 26.5877 33.2027 27.2443 33.1537 27.9008C33.1035 28.8767 33.0958 29.856 33.1306 30.8332C33.1614 31.7516 33.1691 32.7129 33.1537 33.7172C33.1306 34.7363 33.1537 35.8238 33.2546 36.9799C33.2713 37.2543 33.308 37.5256 33.3643 37.7895L32.5478 38.0312L31.2871 37.7895L31.1515 26.8818C31.1493 26.7505 31.1701 26.6206 31.2121 26.5031C31.4108 26.0498 31.5261 25.5349 31.5477 25.0043C31.5694 24.4737 31.4967 23.9439 31.3362 23.462C31.3026 23.3289 31.2946 23.1859 31.3131 23.0471C31.4051 22.2016 31.3757 21.339 31.2265 20.5095C31.1977 20.3404 31.2429 20.2665 31.3621 20.288L33.2402 20.5981Z" fill="#FFDE41"/>
<path d="M9.05564 20.4087C9.17887 20.3806 9.30456 20.3806 9.4278 20.4087C9.52588 20.4087 9.58935 20.4933 9.58935 20.6303C9.62397 21.1861 9.64994 21.8226 9.6384 22.5315C9.62686 24.5992 9.6057 26.6709 9.57493 28.7466C9.60102 29.6325 9.59717 30.5197 9.56339 31.4051C9.53742 31.9207 9.58935 32.545 9.71052 33.1975C9.83457 33.9226 9.88361 34.6677 9.87207 35.3928L9.62397 35.3565C9.3246 34.9638 8.9531 34.6947 8.55077 34.5791C8.51025 34.4654 8.4527 34.3652 8.38202 34.2853C8.31134 34.2054 8.22918 34.1476 8.14111 34.1159C8.16003 34.0312 8.16881 33.9428 8.16708 33.8541C8.29113 33.9226 8.37768 33.8742 8.40076 33.7332C8.46188 33.3952 8.48331 33.0456 8.46423 32.6981C8.33658 30.0693 8.37713 27.43 8.58539 24.8113C8.87389 23.619 8.89697 22.322 8.68637 20.9082C8.68637 20.6827 8.81042 20.5296 9.05564 20.4087Z" fill="#AAD182"/>
<path d="M37.8421 20.3719C37.9632 20.4927 38.0729 20.4927 38.1363 20.4081C38.3325 20.4967 38.4854 20.6108 38.595 20.7505C38.2979 21.6487 38.445 23.1673 38.4335 24.1541C38.4335 24.3434 38.4595 24.5166 38.5345 24.6375C38.6306 24.8389 38.7412 24.9369 38.8662 24.9315C39.149 24.9127 39.3384 25.0671 39.4346 25.3947V29.7812C39.4721 29.9342 39.5096 30.0752 39.5096 30.2122C39.4372 30.7011 39.4245 31.2036 39.4721 31.6985C39.4372 31.7514 39.4105 31.8137 39.3936 31.8816C39.3767 31.9495 39.37 32.0215 39.374 32.0932C39.4339 32.5237 39.4211 32.9678 39.3365 33.3902C39.2095 33.5594 39.1441 33.7313 39.1403 33.9058C39.0345 34.0055 38.9553 34.1514 38.9153 34.3207C38.8826 34.4603 38.9114 34.5758 39.0018 34.6671L39.1893 34.8564C38.813 34.9781 38.4696 35.2479 38.1998 35.6338C38.0171 35.3599 37.8517 35.2323 37.7036 35.2511C37.6341 34.4323 37.6341 33.6049 37.7036 32.786C37.8498 29.228 37.8296 25.6713 37.643 22.116C37.6073 21.5259 37.6756 20.9326 37.8421 20.388V20.3719Z" fill="#5879AE"/>
<path d="M33.2407 20.5981L33.9822 20.7713C33.8646 23.5076 33.7905 26.2473 33.76 28.9883C33.76 29.4233 33.711 30.0732 33.6129 30.9378C33.5397 31.5891 33.5107 32.2486 33.5263 32.9075C33.5783 34.4972 33.611 36.0963 33.6244 37.7048C33.5873 37.7422 33.5452 37.7689 33.5007 37.7834C33.4561 37.7979 33.4099 37.7999 33.3648 37.7894C33.3085 37.5255 33.2718 37.2542 33.2552 36.9798C33.1683 35.8913 33.1346 34.7959 33.1542 33.701C33.1801 32.7142 33.1542 31.7474 33.1311 30.817C33.0967 29.8451 33.1044 28.8713 33.1542 27.9007C33.2033 27.2466 33.1701 26.5854 33.0561 25.9472C32.8926 24.9805 32.8599 24.3306 32.958 23.9977C33.2552 22.9101 33.3532 21.7903 33.2407 20.5981Z" fill="#E8DA26"/>
<path d="M38.7081 20.7514C38.9889 20.8427 39.3014 20.9931 39.6457 21.2026C39.9226 21.3771 40.0881 21.6819 40.1419 22.1169C40.3381 24.0557 40.1025 25.1486 39.4351 25.3957C39.3389 25.0681 39.1495 24.9137 38.8668 24.9325C38.584 23.7241 38.535 22.3425 38.7081 20.7514ZM8.41338 20.9448L8.37587 21.0455C8.36055 21.1012 8.36055 21.1629 8.37587 21.2187C8.6836 22.564 8.62109 23.8073 8.18835 24.9486L7.74407 25.2064C7.47289 25.2587 7.27383 25.2064 7.14978 25.0009C7.12103 24.9535 7.09975 24.8981 7.08732 24.8384C7.0749 24.7788 7.0716 24.7161 7.07765 24.6545C7.12829 23.8913 7.13986 23.1241 7.11227 22.3586C7.07765 21.3234 7.73542 20.8723 8.41338 20.9448Z" fill="#FE0246"/>
<path d="M8.40005 20.9441C8.4866 21.0286 8.58469 21.0286 8.68566 20.9078C8.90107 22.3203 8.86741 23.6213 8.58469 24.8109C8.44702 24.812 8.31152 24.859 8.18945 24.9479C8.62219 23.7918 8.68566 22.5633 8.36255 21.218C8.34722 21.1622 8.34722 21.1005 8.36255 21.0448L8.40005 20.9441Z" fill="#2E241C"/>
<path d="M27.3316 32.1826L27.9865 33.6488L27.6403 33.9227C27.4297 34.1644 27.2941 34.2006 27.2076 34.0274L26.3536 31.9893C26.2651 31.9033 26.2325 31.8228 26.2555 31.7476C26.5642 30.5392 26.3536 29.6611 25.6122 29.0569C25.4589 28.9407 25.2917 28.8643 25.1189 28.8314C24.8208 28.7454 24.6717 28.6071 24.6717 28.4165H24.8592C24.9939 28.3977 25.0179 28.3171 24.9313 28.1748C24.5101 27.4337 24.0918 25.7943 23.1398 26.5878C22.7446 26.914 22.6205 27.623 22.3349 28.1063C22.2445 28.246 22.2657 28.344 22.3984 28.4004C22.5304 28.4311 22.6656 28.4187 22.7936 28.3641C22.7676 28.7105 22.5715 28.8314 22.1762 28.7468C22.0785 28.7231 21.9779 28.7413 21.8877 28.7991C20.9126 29.4731 20.6414 30.5204 21.0742 31.9409C21.0626 32.0215 21.0261 32.0618 20.9646 32.0618C20.9261 32.0564 20.8876 32.0671 20.8492 32.094C20.5895 32.7492 20.3222 33.3991 20.0471 34.0435C19.9971 34.1859 19.9231 34.2154 19.825 34.1322L19.4038 33.822L21.2213 28.8837C21.2848 28.7266 21.2473 28.6259 21.1348 28.5373L20.8636 28.3641C20.7366 28.2836 20.704 28.1573 20.7655 27.9855C21.0155 27.2443 21.304 26.5542 21.631 25.9151C21.8701 25.4398 22.1923 25.0579 22.567 24.8056C22.9417 24.5533 23.3564 24.4391 23.7716 24.4738C24.1869 24.5085 24.5888 24.691 24.9393 25.0039C25.2897 25.3169 25.577 25.7498 25.7737 26.2615C25.9959 26.8657 26.2411 27.4175 26.4892 27.9533C26.5777 28.1466 26.5363 28.2728 26.3652 28.3319L25.9815 28.485C25.9544 28.4997 25.9291 28.5201 25.9065 28.5454C25.8842 28.5748 25.8679 28.6119 25.8593 28.6529C25.8507 28.694 25.85 28.7375 25.8574 28.779C25.8671 28.8165 25.8807 28.8518 25.8978 28.8837L26.3536 29.5242C26.3767 29.5403 26.393 29.5738 26.4027 29.6249L27.3316 32.1826Z" fill="black"/>
<path d="M8.5738 24.8109C8.36374 27.4241 8.32704 30.0589 8.46417 32.6815C8.48326 33.0291 8.46182 33.3787 8.4007 33.7167C8.3632 33.8899 8.29107 33.9222 8.16702 33.8537C8.06316 33.6818 7.94777 33.6133 7.82083 33.6483L7.69678 32.4399C7.74582 32.4399 7.77179 32.3029 7.78333 31.9726C7.85758 31.4668 7.8615 30.9458 7.79487 30.438C7.86987 30.2809 7.85833 30.1278 7.79487 29.9707C7.93582 28.3863 7.91542 26.7821 7.73428 25.2057L8.1901 24.9479C8.31217 24.859 8.44767 24.812 8.58534 24.8109H8.5738Z" fill="#89BE9B"/>
<path d="M24.6713 28.4159C24.0634 28.1342 23.4086 28.1159 22.7932 28.3635C22.6652 28.4181 22.5299 28.4305 22.3979 28.3998C22.271 28.346 22.2498 28.248 22.3345 28.1057C22.6201 27.6224 22.7441 26.8973 23.1394 26.5872C24.0914 25.7937 24.4982 27.433 24.9309 28.1742C25.0175 28.3192 24.9934 28.3944 24.8588 28.3998L24.6713 28.4159Z" fill="#FFDE41"/>
<path d="M24.6718 28.4163C24.6718 28.6056 24.8218 28.7627 25.1305 28.8312C25.3021 28.8713 25.4684 28.9474 25.6238 29.0568C26.3652 29.661 26.5643 30.5592 26.2556 31.7474C26.0075 31.9569 26.019 32.2147 25.8459 32.4926C25.7228 32.6698 25.5998 32.6631 25.4767 32.4725C25.4187 32.392 25.3429 32.3414 25.2617 32.3289C25.1804 32.3165 25.0986 32.343 25.0295 32.404C24.9847 32.4368 24.9469 32.4854 24.9199 32.545C24.7359 32.9103 24.6019 33.32 24.5246 33.7534C24.314 34.7885 23.1889 34.9255 22.8658 33.9064C22.7539 33.5305 22.6218 33.1669 22.4706 32.8189C22.2859 32.3892 22.0388 32.3033 21.7291 32.5611C21.6407 32.6416 21.5589 32.6296 21.4839 32.5248L21.0742 31.9408C20.6415 30.5202 20.9137 29.473 21.8907 28.799C21.98 28.742 22.0795 28.7238 22.1763 28.7466C22.5715 28.8312 22.7677 28.6942 22.7937 28.3639C23.4082 28.1142 24.063 28.1344 24.6718 28.4163Z" fill="#836042"/>
<path d="M39.5086 30.2126L41.5252 30.8531C41.6233 30.8853 41.6838 30.9739 41.6838 31.127L41.7473 32.2508C41.7608 32.3743 41.7194 32.42 41.6233 32.3877L39.4711 31.699C39.4235 31.2041 39.4362 30.7016 39.5086 30.2126ZM7.79451 30.4382C7.86915 30.9451 7.86521 31.4683 7.78297 31.9729C7.7695 31.8735 7.73681 31.8332 7.68488 31.852C6.99227 32.121 6.3071 32.426 5.6308 32.7664C5.5558 32.8026 5.53271 32.7664 5.53271 32.6818L5.5558 31.3526C5.55772 31.2989 5.57887 31.2693 5.61926 31.2639L7.79451 30.4382Z" fill="#FCAF1E"/>
<path d="M20.9647 32.0612C21.5821 33.3179 23.0649 35.5454 24.3631 34.5464C25.1594 33.9181 25.8402 33.044 26.3537 31.9887L27.2192 34.0268C27.2923 34.1987 27.4327 34.1638 27.6404 33.9221C27.8741 34.768 28.1338 35.5816 28.4424 36.359C28.7521 37.1378 29.3704 37.8735 30.2975 38.5663C25.8575 39.5449 21.3355 39.5517 16.894 38.5865C17.1825 38.1192 17.5143 37.6681 17.8605 37.2371C18.2557 36.7376 18.5529 36.2704 18.726 35.8233C18.9952 35.1654 19.2222 34.4981 19.4068 33.8214L19.8251 34.1316C19.9232 34.2 19.9982 34.1839 20.0473 34.0429C20.3223 33.3985 20.5906 32.7486 20.8522 32.0934C20.8913 32.07 20.9337 32.059 20.9762 32.0612H20.9647Z" fill="#F8C137"/>
<path d="M39.3618 32.0939L41.4995 32.8189C41.6842 32.8713 41.7707 33.0445 41.7592 33.3023L41.7476 33.9427C41.7332 34.1844 41.6467 34.2851 41.4736 34.2005L39.3387 33.3909C39.4223 32.9682 39.4342 32.5241 39.3733 32.0939H39.3618ZM7.69673 32.4564L7.82078 33.6487L5.71766 34.6476C5.59361 34.7 5.54456 34.6476 5.54456 34.4784L5.52148 33.4916C5.52148 33.3197 5.57918 33.2163 5.69458 33.1814L7.69673 32.4403V32.4564Z" fill="#FCAF1E"/>
<path d="M27.9868 33.6486C28.232 34.426 28.5292 35.1833 28.8523 35.9284C29.023 36.3047 29.2869 36.5799 29.5937 36.7018C30.0565 37.316 30.6521 37.6985 31.2872 37.7894L32.5479 38.031L30.2861 38.5668C29.5359 38.0861 28.8972 37.3214 28.4426 36.3594C28.1368 35.5729 27.8689 34.7588 27.6406 33.9225L27.9868 33.6486Z" fill="#E69A22"/>
<path d="M39.1393 33.922L41.4386 34.788C41.5367 34.8404 41.5973 34.925 41.5973 35.082C41.6261 35.7856 41.5319 36.5335 41.3145 37.3256L39.1883 34.8565L39.0008 34.6672C38.9104 34.5759 38.8816 34.4604 38.9143 34.3208C38.9565 34.1575 39.0355 34.0176 39.1393 33.922ZM8.14067 34.1153C8.31376 34.1664 8.45032 34.3208 8.55033 34.5786L6.02601 37.5834C5.80848 36.9018 5.68328 36.1698 5.65674 35.4244C5.65674 35.2875 5.71732 35.1827 5.81541 35.1505L8.14067 34.1153Z" fill="#FCAF1E"/>
<path d="M8.55057 34.5789C8.96985 34.7024 9.32758 34.9615 9.62376 35.3563C8.80204 36.278 8.03326 37.288 7.32447 38.3773C6.99748 38.9438 6.70781 39.5505 6.45899 40.1898C6.16057 41.7542 6.26155 43.4147 6.7446 44.8864C7.05233 45.8505 7.44756 46.409 7.93031 46.5621C8.70924 46.8199 9.94688 46.836 10.3046 45.5229C10.3366 45.387 10.402 45.2714 10.4892 45.1966C11.3201 44.5078 11.6403 44.387 11.9981 42.7113L12.803 37.7408C12.8116 37.7046 12.8127 37.6656 12.806 37.6285C12.7994 37.5914 12.7853 37.5577 12.7655 37.5314C12.7049 37.4267 12.7164 37.3783 12.826 37.3783L13.8156 37.8254L13.4578 42.9168C13.3637 44.6635 12.8942 46.3299 12.1106 47.698C11.9115 48.0605 11.8019 48.2176 11.7528 48.1652C11.0085 48.1598 10.2825 48.2578 9.57472 48.4592C9.22138 48.5809 8.86147 48.6617 8.49864 48.7009C8.00532 48.7009 7.63316 48.6324 7.39948 48.4592C6.61586 47.926 5.93646 47.1355 5.41946 46.1555C4.90246 45.1755 4.56325 44.0352 4.43088 42.8322C4.37895 42.4374 4.24721 42.3622 4.03564 42.6066C4.11065 42.1071 4.11065 41.6077 4.25778 41.1565C4.68668 39.8622 5.27617 38.6713 6.02625 37.5837L8.55057 34.5789ZM39.1886 34.8568L41.3148 37.326C42.0187 38.3276 42.513 39.1332 42.7976 39.7427C43.2881 40.7739 43.5439 41.9527 43.565 43.2793C43.291 43.5411 43.0342 44.0728 42.7601 44.8341C42.3274 46.1472 41.1042 48.0282 39.93 48.3747C39.4418 48.5241 38.9441 48.6051 38.4443 48.6163C38.2481 48.6163 37.8529 48.5116 37.247 48.2699C36.781 48.0971 36.2908 48.0971 35.8248 48.2699L35.3314 47.5771C34.5973 46.1081 34.1571 44.3923 34.0563 42.6066C33.7895 41.0133 33.698 39.3726 33.7851 37.7408L34.489 37.2897L34.7371 37.2212C34.8621 39.3238 35.1795 41.2975 35.6892 43.1423C35.754 43.5706 35.8893 43.9719 36.0844 44.3145C36.8749 45.4383 37.9625 45.7323 39.0386 46.0425C39.209 46.0933 39.3853 46.0933 39.5558 46.0427C39.7263 45.992 39.8872 45.8918 40.0281 45.7484C40.1781 45.6115 40.3368 45.2328 40.5214 44.6609C40.6805 44.1475 40.8587 43.646 41.0551 43.1584C41.3898 42.3327 41.3898 41.366 41.0292 40.2261C40.7726 39.3685 40.3937 38.5928 39.9156 37.9463C39.3644 37.1388 38.7868 36.3673 38.1846 35.6342C38.4544 35.2483 38.7979 34.9785 39.1742 34.8568H39.1886Z" fill="#0193CF"/>
<path d="M37.7041 35.2514C37.8522 35.2326 38.0176 35.3601 38.2003 35.634C38.7966 36.3698 39.3735 37.1405 39.9313 37.9461C40.4275 38.6711 40.7939 39.431 41.0305 40.2259L39.6342 41.9861C38.4975 43.3838 37.0608 42.9689 35.676 43.1421C35.1691 41.2373 34.8489 39.2456 34.724 37.221L35.1827 37.0841L37.7041 35.2514ZM9.62504 35.3561L9.87315 35.3923L10.4415 35.7186L12.2965 36.9632L12.8273 37.3781C12.7177 37.3781 12.7062 37.4265 12.7696 37.5473C12.8042 37.5903 12.8158 37.648 12.8042 37.7205L11.9993 42.7111C10.805 43.1059 9.54715 42.9609 8.41337 42.2963C8.05798 42.0044 7.73036 41.6512 7.43826 41.245C7.13993 40.839 6.8077 40.4847 6.44873 40.1896C6.82089 39.3276 7.10361 38.7235 7.32575 38.3771C8.03737 37.2868 8.8038 36.2798 9.62504 35.3561Z" fill="#C9EBF4"/>
<path d="M33.6237 37.7051L33.7853 37.7413C33.6968 39.3606 33.7872 40.9825 34.0565 42.6071C33.5977 43.0381 33.2775 43.4691 33.116 43.9363L31.2754 45.7167C29.3908 47.6252 27.1752 48.7962 24.8578 49.1085C22.5404 49.4208 20.2054 48.8631 18.0941 47.493C17.3527 47.0258 16.1525 45.9906 14.5341 44.3512L13.458 42.9173L13.8302 37.8259L13.8417 37.7736L14.9784 38.12C15.023 38.1289 15.0655 38.1524 15.1024 38.1884L16.894 38.5872C21.3316 39.5445 25.8482 39.5445 30.2858 38.5872L32.5476 38.0313L33.3641 37.7897C33.4525 37.8138 33.5352 37.7856 33.6122 37.7051H33.6237Z" fill="#1D140E"/>
<path d="M30.4861 41.5558C30.4861 40.7945 30.5582 40.1581 30.7169 39.6022L32.142 39.3444C32.2805 39.3149 32.3343 39.3954 32.3036 39.5861C32.0973 40.9328 31.7818 42.2423 31.3631 43.4892C31.164 44.041 31.04 44.0048 30.9678 43.4207C30.8929 42.7616 30.7284 42.1286 30.4832 41.5558M16.6845 39.6385C17.6077 40.24 17.8096 40.9019 17.2904 41.6242C16.9067 41.4671 16.6211 41.7451 16.4595 42.454C16.3625 42.8465 16.293 43.2512 16.2518 43.6624C16.2133 44.0249 16.1306 44.041 16.0037 43.7107C15.5165 42.4323 15.1823 41.0513 15.0141 39.6223C14.9891 39.4532 15.0382 39.378 15.1613 39.3968L16.6845 39.6385Z" fill="#D7C8AE"/>
<path d="M16.6863 39.6383C21.3515 40.3188 26.0553 40.3066 30.7186 39.6021C30.544 40.2235 30.4635 40.8886 30.4821 41.5556C26.0681 42.1397 21.6686 42.1759 17.2921 41.6241C17.8114 40.8991 17.6124 40.2425 16.6719 39.6383H16.6863Z" fill="#F3ECD9"/>
<path d="M6.44741 40.1901C6.82053 40.5016 7.15038 40.8467 7.43695 41.2253C7.88123 41.8134 8.20434 42.1598 8.40051 42.2967C9.53429 42.9614 10.7892 43.1023 11.9865 42.7116C11.6403 44.3873 11.3201 44.5081 10.5036 45.1969C10.411 45.268 10.3401 45.3841 10.3046 45.5231C9.94684 46.8363 8.7092 46.8201 7.93027 46.5624C7.43695 46.3892 7.05325 45.8534 6.74456 44.8867C6.26001 43.4161 6.15502 41.7566 6.44741 40.1901ZM41.0291 40.2264C41.3753 41.3663 41.4013 42.333 41.0551 43.1587C40.807 43.7629 40.6339 44.2664 40.5099 44.6612C40.3368 45.2492 40.18 45.6118 40.0396 45.7487C39.8973 45.8943 39.7344 45.9958 39.5618 46.0465C39.3892 46.0972 39.2108 46.0959 39.0385 46.0428C37.9625 45.7326 36.8748 45.4386 36.0844 44.3148C35.8854 43.9755 35.7496 43.5729 35.6891 43.1426C37.0624 42.9694 38.4962 43.3843 39.6328 41.9866L41.0291 40.2264Z" fill="#04BAEA"/>
<path d="M27.5043 42.4334C28.4073 42.381 29.2843 42.381 30.1613 42.4334C30.2594 42.4334 30.3344 42.5019 30.4094 42.6066C30.7412 43.1262 30.9027 43.7304 30.5681 44.387C30.082 45.3648 29.3717 46.0823 28.5544 46.4211C26.6244 47.2508 24.4116 47.9396 22.4095 47.5086C21.37 47.2929 20.3388 47.0052 19.3197 46.6466C18.2916 46.3237 17.367 45.5417 16.6858 44.4192C16.6279 44.3221 16.5972 44.199 16.5992 44.0728C16.6377 42.851 17.0656 42.2763 17.883 42.3488C19.4178 42.4858 20.9757 42.6428 22.5451 42.6066C24.2501 42.5744 25.9089 42.5019 27.5043 42.4334Z" fill="#2E241C"/>
<path d="M11.7535 48.1654C10.1975 50.3083 8.51178 50.7916 6.6962 49.6154C4.69021 48.3265 3.80357 45.9903 4.03629 42.6068C4.24785 42.3624 4.37959 42.4376 4.43152 42.8324C4.80656 45.4747 5.79321 47.3356 7.40012 48.4594C7.64823 48.6326 8.0175 48.7011 8.49928 48.7011C8.73585 48.7011 9.09454 48.6205 9.57536 48.4594C10.2928 48.2446 11.0188 48.1466 11.7535 48.1654Z" fill="#04BAEA"/>
<path d="M34.0566 42.6063C34.1691 44.4189 34.5874 46.0583 35.3317 47.5607C32.8867 49.9008 30.2859 51.9065 27.5654 53.5503C26.6295 54.12 25.6617 54.5821 24.6719 54.9319C24.5478 54.948 24.4988 54.8795 24.4872 54.7264C24.4872 54.6902 24.4872 54.6378 24.5103 54.6056L24.5738 54.5371L29.5185 51.4799C29.5551 51.4583 29.5877 51.4253 29.6137 51.3834C29.6397 51.3415 29.6585 51.2918 29.6686 51.2382C29.676 51.1323 29.6532 51.0266 29.6051 50.9442C29.4089 50.638 29.182 50.5629 28.9242 50.7186C28.8926 50.7346 28.8579 50.7346 28.8262 50.7186C28.7924 50.7108 28.7617 50.6866 28.7396 50.6501C28.5829 50.3208 28.3518 50.0742 28.0831 49.9494C27.8144 49.8246 27.5235 49.8288 27.2568 49.9613C24.9315 50.8233 22.6812 50.8757 20.555 50.0661C20.1206 49.8981 19.6669 49.8502 19.2193 49.9251C18.3538 50.097 17.8596 50.8743 17.7365 52.2573C15.7741 50.9574 13.8924 49.4323 12.1108 47.6976C12.8917 46.355 13.3446 44.7612 13.4696 42.9164L14.5342 44.3504C15.5604 45.7656 16.7417 46.9431 18.0336 47.8386C19.8753 49.1868 21.9346 49.8505 24.0132 49.7659C26.0919 49.6812 28.1199 48.851 29.9022 47.3553C31.1158 46.4047 32.1871 45.2647 33.1161 43.9355C33.2776 43.4884 33.6007 43.0373 34.0566 42.6063Z" fill="#E69A22"/>
<path d="M43.5654 43.279C43.602 45.5749 43.1077 47.319 42.0826 48.5113C40.04 50.8905 37.9533 50.8099 35.8223 48.2696C36.2892 48.0961 36.7805 48.0961 37.2474 48.2696C37.8533 48.5113 38.2485 48.616 38.4591 48.616C38.9399 48.6107 39.4342 48.5301 39.942 48.3744C41.1046 48.028 42.3278 46.1469 42.7605 44.8499C43.0346 44.0725 43.2914 43.5408 43.5654 43.2991V43.279Z" fill="#04BAEA"/>
<path d="M33.1157 43.9358C32.1868 45.265 31.1155 46.405 29.9019 47.3556C28.1196 48.8513 26.0916 49.6815 24.0129 49.7662C21.9343 49.8508 19.875 49.1871 18.0333 47.8389C16.7429 46.948 15.5648 45.7699 14.5454 44.3507C16.1523 45.9901 17.3409 47.0253 18.0939 47.4925C20.2051 48.8626 22.5402 49.4203 24.8576 49.108C27.175 48.7957 29.3905 47.6247 31.2752 45.7162L33.1157 43.9358Z" fill="#FFF073"/>
<path d="M24.6717 54.9162C24.1524 55.2102 23.7341 55.2948 23.3995 55.2102C21.4125 54.6468 19.5014 53.6505 17.7363 52.2577C17.8594 50.8748 18.3537 50.0974 19.2192 49.9255C19.6404 49.845 20.0856 49.892 20.5549 50.0665C22.6955 50.8761 24.9314 50.8238 27.2682 49.9457C27.8855 49.7147 28.3808 49.9497 28.7539 50.6505C28.7539 50.6868 28.7885 50.719 28.826 50.7392H28.927C29.1886 50.5673 29.4145 50.6358 29.605 50.9446C29.6427 51.004 29.6645 51.0799 29.6666 51.1592C29.6687 51.2386 29.651 51.3165 29.6165 51.3796C29.5927 51.4208 29.5633 51.455 29.5299 51.4803L24.5852 54.5375C24.5589 54.5535 24.5366 54.5801 24.5212 54.6138C24.5058 54.6475 24.4979 54.6869 24.4986 54.7268C24.4986 54.9 24.5621 54.9484 24.6717 54.9162Z" fill="#D98D24"/>
</svg>
