<svg width="48" height="48" viewBox="0 0 48 48" fill="none" xmlns="http://www.w3.org/2000/svg">
<g clip-path="url(#clip0_124_357)">
<path d="M23.5 48C36.2025 48 46.5 37.7025 46.5 25C46.5 12.2975 36.2025 2 23.5 2C10.7975 2 0.5 12.2975 0.5 25C0.5 37.7025 10.7975 48 23.5 48Z" fill="#FDDE00"/>
<path d="M12.3056 18.2617C12.3056 18.2617 11.1196 19.7621 11.5149 26.5453C11.5149 26.5453 8.91844 33.1938 9.79891 36.5898C10.6794 39.977 14.1114 39.8063 14.1114 39.8063C14.1114 39.8063 19.6188 44.6488 23.8415 40.3813C28.0731 36.1047 20.3196 19.5465 20.3196 19.5465L19.3493 13.8234C19.3493 13.8234 18.2891 14.659 18.4239 20.1664C18.5587 25.6738 16.2677 21.7926 16.2677 21.7926L12.3056 18.2617Z" fill="#3C2D0C"/>
<path d="M12.7455 24.2543L11.29 28.3512L10.76 31.2172C10.76 31.2172 8.95411 37.6051 16.4022 37.5152C16.4022 37.5152 22.215 42.7172 26.0065 39.2312L27.0217 38.1262L28.7826 35.3949L31.6936 26.716C31.6936 26.716 30.7682 20.7684 24.9104 18.3066C24.9104 18.3066 24.4252 18.0461 23.5447 18.3965C23.5447 18.3965 21.119 12.934 19.5826 13.5988C19.5826 13.5988 18.2619 14.2996 19.4029 19.6812L17.3365 20.6066C17.3365 20.6066 15.0725 16.3121 12.9791 17.1746C11.0295 17.9562 12.7455 24.2543 12.7455 24.2543Z" fill="#E78C19"/>
<path d="M20.2744 16.2762L20.4541 18.657C20.4541 18.657 20.5888 20.0226 22.0353 19.5375C22.4486 19.4027 22.808 19.1152 22.772 18.648C22.7451 18.2976 22.5025 17.9742 22.3408 17.6777C22.0443 17.1117 21.8017 16.5098 21.4513 15.9617C21.2716 15.6832 20.9033 15.0633 20.499 15.1351C20.499 15.1351 20.1935 15.0453 20.2744 16.2762Z" fill="#EFB99D"/>
<path d="M13.9136 18.9535C13.9406 18.9356 14.5336 18.1898 15.7644 20.0047C16.9953 21.8195 16.8695 21.5859 16.8695 21.5859C16.8695 21.5859 17.5343 22.3137 16.1777 23.2481C15.8812 23.4637 15.5578 23.6434 15.2164 23.7871C15.0008 23.868 14.7761 23.9129 14.5515 23.9129C14.291 23.9039 14.1742 23.7691 14.1113 23.5266C13.9047 22.7359 13.6711 21.9453 13.5543 21.1367C13.4644 20.5078 13.2847 19.3578 13.9136 18.9535Z" fill="#EFB99D"/>
<path d="M28.2166 22.6102C28.2166 23.0414 27.5877 23.3918 26.8061 23.3918C26.0244 23.3918 25.3955 23.0414 25.3955 22.6102C25.3955 22.1789 26.0424 21.541 26.815 21.541C27.5877 21.541 28.2166 22.1789 28.2166 22.6102Z" fill="#FBFBFB"/>
<path d="M20.0818 25.9848C20.4997 25.2463 20.4534 24.4298 19.9784 24.161C19.5033 23.8922 18.7795 24.2729 18.3616 25.0113C17.9437 25.7498 17.9901 26.5663 18.4651 26.8351C18.9401 27.1039 19.6639 26.7232 20.0818 25.9848Z" fill="#FBFBFB"/>
<path d="M22.0804 29.5551L25.9347 27.5516C25.9347 27.5516 30.7323 25.0449 31.9003 26.9766C33.0683 28.9082 31.9003 31.8641 31.9003 31.8641C31.9003 31.8641 31.3972 35.3231 27.8663 35.6285L25.9706 35.8891L23.5448 35.952C23.5448 35.952 19.6456 36.1766 16.7796 34.0563L15.8722 32.9512C15.8722 32.9512 14.0484 30.4445 15.3241 28.6387C16.5999 26.8328 20.9663 29.627 20.9663 29.627C20.9663 29.627 21.5773 29.9594 22.0804 29.5551Z" fill="#FBFBFB"/>
<path d="M30.8224 19.5645C31.3334 19.5645 31.7478 19.1501 31.7478 18.6391C31.7478 18.128 31.3334 17.7137 30.8224 17.7137C30.3113 17.7137 29.897 18.128 29.897 18.6391C29.897 19.1501 30.3113 19.5645 30.8224 19.5645Z" fill="#E72D36"/>
<path d="M28.774 17.2914C29.2851 17.2914 29.6994 16.8771 29.6994 16.366C29.6994 15.8549 29.2851 15.4406 28.774 15.4406C28.2629 15.4406 27.8486 15.8549 27.8486 16.366C27.8486 16.8771 28.2629 17.2914 28.774 17.2914Z" fill="#E72D36"/>
<path d="M25.4947 16.5637C26.0058 16.5637 26.4201 16.1494 26.4201 15.6383C26.4201 15.1272 26.0058 14.7129 25.4947 14.7129C24.9836 14.7129 24.5693 15.1272 24.5693 15.6383C24.5693 16.1494 24.9836 16.5637 25.4947 16.5637Z" fill="#E72D36"/>
<path d="M26.2223 9.07968C26.4199 11.8109 26.0246 14.2816 25.3598 14.2816C24.6949 14.2816 23.8145 11.6133 23.8145 9.07968C23.8145 8.03749 24.3625 7.86679 25.0273 7.86679C25.7012 7.86679 26.1504 8.03749 26.2223 9.07968Z" fill="#E72D36"/>
<path d="M32.3498 10.7777C31.3435 13.3203 29.915 15.3777 29.3221 15.0902C28.7291 14.8027 29.0885 12.0176 30.1935 9.73555C30.6517 8.79219 31.2178 8.88203 31.8107 9.16953C32.4037 9.46602 32.7361 9.80742 32.3498 10.7777Z" fill="#E72D36"/>
<path d="M36.7341 15.7371C34.5149 17.3453 32.2149 18.3156 31.8645 17.7496C31.5141 17.1836 33.32 15.0363 35.4673 13.6977C36.3567 13.1496 36.788 13.527 37.1384 14.084C37.4798 14.65 37.5786 15.1172 36.7341 15.7371Z" fill="#E72D36"/>
<path d="M21.901 26.8688C21.8201 26.8777 21.7392 26.8867 21.6584 26.8957C21.6674 26.9227 21.6764 26.9496 21.6764 26.9856C21.6764 27.2641 21.2361 27.4977 20.6881 27.5156C20.6881 27.5426 20.6791 27.5606 20.6881 27.5875C20.715 27.9289 21.308 28.1625 21.9998 28.1086C22.7006 28.0547 23.2486 27.7313 23.2217 27.3899C23.1857 27.0484 22.6017 26.8149 21.901 26.8688Z" fill="black"/>
<path d="M26.7701 25.6648C26.6892 25.6738 26.6084 25.6828 26.5275 25.6918C26.5365 25.7187 26.5455 25.7457 26.5455 25.7816C26.5455 26.0602 26.1053 26.2937 25.5572 26.3117C25.5572 26.3387 25.5482 26.3566 25.5572 26.3836C25.5842 26.725 26.1771 26.9586 26.8689 26.9047C27.5697 26.8508 28.1178 26.5273 28.0908 26.1859C28.0639 25.8445 27.4709 25.6109 26.7701 25.6648Z" fill="black"/>
<path d="M28.3697 27.0934C28.3697 27.0934 26.4381 27.6594 26.5549 28.7465C26.6717 29.8336 28.9986 30.3996 28.9986 30.3996C28.9986 30.3996 29.6276 30.6512 29.9869 30.0492C30.3463 29.4563 30.8764 28.6477 30.7326 27.4887C30.7326 27.4887 30.6877 26.6262 28.3697 27.0934Z" fill="black"/>
</g>
<defs>
<clipPath id="clip0_124_357">
<rect width="46" height="46" fill="white" transform="translate(0.5 2)"/>
</clipPath>
</defs>
</svg>
