<svg width="50" height="50" viewBox="0 0 50 50" fill="none" xmlns="http://www.w3.org/2000/svg">
<g clip-path="url(#clip0_124_376)">
<path d="M1.3779 22.2339L25.1031 9.54024L31.3487 9.4153C31.3487 9.4153 37.8709 10.2049 43.0504 15.2424C43.0555 15.2474 43.0605 15.2474 43.0605 15.2524C44.4786 16.6367 45.7961 18.3758 46.837 20.5647C46.9074 20.7097 46.9778 20.8596 47.0432 21.0095C47.0432 21.0095 54.6465 33.2034 44.9663 43.8181C35.2862 54.4278 12.2096 49.3453 5.27511 38.1959C5.22482 38.1209 5.17454 38.041 5.12425 37.961C4.05817 36.2569 3.26364 34.5677 2.68032 33.0035C1.94111 31.0245 1.52876 29.2504 1.30247 27.926C1.046 26.4118 1.38292 22.2339 1.3779 22.2339Z" fill="#F7F5F8"/>
<path d="M11.003 21.0045C9.42898 25.4473 11.3952 30.4948 15.3226 25.982C20.9145 18.3358 31.4847 16.8216 35.6937 17.3613C40.8481 18.3508 44.871 23.5282 46.1483 23.6282C47.4256 23.7281 46.8372 20.5647 46.8372 20.5647C46.9076 20.7096 46.978 20.8596 47.0434 21.0095C47.0434 21.0095 54.6467 33.2034 44.9665 43.8181C35.2864 54.4278 12.2098 49.3453 5.28034 38.1909C5.23005 38.1159 5.17976 38.036 5.12948 37.956C4.0634 36.2519 3.26887 34.5627 2.68555 32.9985C5.37085 28.5907 12.2652 17.4163 11.003 21.0045Z" fill="#DCC4D4"/>
<path d="M34.2302 9.18041C36.7144 6.75662 40.7625 3.32333 43.8149 1.56421C45.2832 0.714638 46.5203 0.254868 47.2394 0.479756C47.3802 0.519736 47.4959 0.589701 47.5964 0.684653C48.7882 1.84407 48.3206 9.15042 47.7775 14.6727C47.4255 18.2009 47.0433 21.0045 47.0433 21.0045C46.2638 19.3453 45.4341 17.7211 42.9298 15.1074C41.8889 14.0929 40.8278 13.2384 39.7517 12.5237C37.9414 11.3243 36.1059 10.5197 34.3057 10.01C34.0643 9.94003 33.8229 9.88006 33.5815 9.82009C33.7827 9.62019 33.9989 9.40529 34.2302 9.18041Z" fill="#EFAD93"/>
<path d="M43.8148 1.56921C43.3069 5.24238 43.2013 11.6092 47.7773 14.6777C47.4253 18.2059 47.0432 21.0095 47.0432 21.0095C46.2637 19.3503 45.434 17.7261 42.9297 15.1124C41.8888 14.0979 40.8277 13.2434 39.7516 12.5287C37.9413 11.3293 36.1058 10.5247 34.3056 10.015L34.2251 9.18541C36.7143 6.75662 40.7624 3.32833 43.8148 1.56921Z" fill="#D68C72"/>
<path d="M2.57005 0.744629C5.06929 -0.0449758 13.2912 7.56622 18.4455 11.5642C18.4455 11.5642 25.546 7.86607 33.5868 9.82009C33.964 9.91004 34.3462 10.015 34.7334 10.1349C32.39 10.05 28.9303 9.98001 27.4468 10.2449C25.0934 10.6697 16.5447 13.1934 12.8084 19.1504C9.07211 25.1024 9.22297 32.084 9.31348 35.1524C9.38389 37.5962 7.58362 39.1254 4.87317 37.5512C2.63542 33.8381 1.69506 30.2149 1.30282 27.926C1.24751 27.4213 1.19219 26.9015 1.12682 26.3768C1.08659 26.077 1.05642 25.7771 1.02122 25.4823C-0.618126 11.1644 0.126116 1.51424 2.57005 0.744629Z" fill="#964C49"/>
<path d="M47.2394 0.47976C45.1676 2.08895 40.7977 6.15192 39.7517 12.5237C37.7 11.1644 35.6131 10.3148 33.5815 9.82009C37.0111 6.33183 44.886 -0.249876 47.2394 0.47976Z" fill="#964C49"/>
<path d="M33.5566 9.83009C34.4618 8.74563 35.5027 7.76612 36.5236 6.7916C38.0774 5.35732 39.6966 3.98801 41.4265 2.76862C42.5881 1.95402 43.79 1.1944 45.1075 0.629685C45.8014 0.364818 46.5256 0.0699651 47.305 0.284858C47.4659 0.324838 47.5112 0.55972 47.3704 0.654673C44.9566 2.42879 42.8546 4.71264 41.5874 7.45128L41.2203 8.27087L40.9035 9.11045C40.4861 10.2649 40.2247 11.4693 39.9481 12.6587C39.8777 12.7686 39.7268 12.7936 39.6212 12.7236C39.1535 12.4138 38.6808 12.1189 38.1981 11.8391C36.7398 10.9945 35.1558 10.3598 33.5566 9.83009ZM33.6069 9.81509C35.2915 10.075 36.9007 10.6847 38.4043 11.4643C38.9071 11.7241 39.3999 12.019 39.8777 12.3288L39.5156 12.4888C40.0738 8.83558 42.1205 5.62219 44.494 2.86857C45.2935 1.94903 46.1635 1.08946 47.1089 0.314843L47.1743 0.684658C45.4293 0.334833 41.5572 3.4033 40.0688 4.47776C37.9869 6.06697 35.9503 7.74613 33.9941 9.49026C33.8835 9.58521 33.7276 9.73014 33.6069 9.81509Z" fill="#3A0101"/>
<path d="M33.5415 9.83509C34.0343 9.20041 34.6227 8.64569 35.1758 8.07098C38.007 5.28737 40.9739 2.6237 44.499 0.714653C45.4393 0.274872 46.968 -0.464758 47.9034 0.39981C48.3358 0.864578 48.4565 1.56923 48.5521 2.13894C48.9342 5.31235 48.5772 8.49077 48.2554 11.6442C47.8983 14.7776 47.5363 17.9011 47.2396 21.0395C47.2346 21.0995 47.1943 21.1644 47.134 21.1944C47.0384 21.2444 46.9177 21.2044 46.8675 21.1095C45.7964 18.9256 44.2727 17.0215 42.583 15.2874C41.1247 13.8631 39.4904 12.6087 37.7002 11.6242C36.3928 10.8796 34.9546 10.3248 33.5415 9.83509ZM33.622 9.81011C38.7965 10.6397 43.6944 14.3229 46.2439 18.8606C46.616 19.5302 46.9328 20.2299 47.2295 20.9246L46.8473 20.9845C47.6419 16.3368 47.9335 11.6092 47.9788 6.90156C47.9838 5.35733 47.9939 3.77312 47.7475 2.26388C47.672 1.85408 47.5916 1.46428 47.4106 1.13944C47.2999 0.944538 47.1541 0.874573 46.9077 0.85958C46.2439 0.844588 45.4997 1.18442 44.8811 1.48427C44.1972 1.8141 43.5284 2.20891 42.8747 2.6287C39.7569 4.65268 36.8504 7.0115 34.0544 9.45528C33.9388 9.56023 33.7477 9.73015 33.622 9.81011Z" fill="#3A0101"/>
<path d="M18.5109 11.1144C18.5109 11.1144 17.1179 11.8741 16.082 13.0735C17.7314 11.7541 19.4462 11.1144 19.4462 11.1144H18.5109Z" fill="#3A0101"/>
<path d="M2.58499 0.779615C-0.658499 2.19391 0.377406 15.7971 0.684154 19.1404C0.865186 21.2544 1.11662 23.3633 1.37308 25.4723C1.41834 26.3019 1.54406 27.1614 1.69994 27.986C2.49447 32.1439 4.16399 36.1969 6.77889 39.5502C14.9555 49.6152 36.7648 53.8031 45.6404 42.7536C50.3271 37.1414 50.835 30.005 48.029 23.3983C47.6871 22.6137 47.3099 21.8341 46.8724 21.1144C46.3796 20.05 45.8013 19.0305 45.1275 18.076C43.1462 15.3423 40.7073 13.2684 37.5543 11.6492C31.6557 8.70065 24.4798 9.13544 18.551 11.7791C18.4705 11.8191 18.3649 11.8141 18.2895 11.7541C15.7601 9.71515 13.3363 7.56122 10.8219 5.50725C9.23791 4.25788 4.50091 0.264872 2.58499 0.779615ZM2.55985 0.704653C4.48079 0.159925 9.253 4.11295 10.9477 5.35233C13.5173 7.33134 16.0065 9.4203 18.5912 11.3743L18.3297 11.3493C18.8376 11.0845 19.3455 10.8646 19.8685 10.6547C25.5811 8.36082 32.3245 8.15093 37.8661 11.0345C39.8021 11.999 41.889 13.6232 43.2065 15.0125C44.6296 16.3268 46.3997 18.8906 47.2093 20.9046C49.0951 24.3328 50.1109 28.2609 49.9902 32.1739C49.8896 36.107 48.371 39.925 45.922 42.9835C38.6757 52.2139 24.0071 51.1894 14.4124 46.4718C10.8773 44.7276 7.56839 42.3089 5.31052 39.0305C2.65036 35.0675 0.920501 30.1799 0.684154 25.5222C0.0807147 19.1954 -0.31655 12.7986 0.332148 6.46177C0.543352 4.94253 0.940616 1.28936 2.55985 0.704653Z" fill="#3A0101"/>
<path d="M2.84163 3.44329C3.38472 3.66817 5.25539 5.57222 7.31211 8.04099C8.9766 10.04 10.7618 12.4138 12.0592 14.5627C12.8889 15.937 6.7841 26.087 5.68282 28.001C4.67206 29.7551 2.43934 23.4033 1.85601 16.7067C1.8007 16.107 1.76549 15.5123 1.74035 14.9125C1.44869 7.6112 1.85601 3.03849 2.84163 3.44329Z" fill="#EFAD93"/>
<path d="M16.4739 32.1439C16.831 27.891 19.124 23.8281 22.3876 21.8191C26.1591 19.7201 29.3825 18.7506 32.5757 18.7656C33.3401 18.7706 34.1095 18.8306 34.8788 18.9455C35.6331 19.0605 36.3925 19.2254 37.1669 19.4403C40.4858 20.3648 47.6567 23.8481 46.5453 33.5732C46.5101 33.8631 46.4699 34.1479 46.4196 34.4328C44.8054 43.6732 34.6073 49.7351 23.504 44.3478C18.0027 41.6792 16.0817 36.7966 16.4739 32.1439Z" fill="#894544"/>
<path d="M32.0077 16.8116C32.4955 16.9565 33.627 17.3763 34.8288 16.7616C36.0307 16.1469 36.4983 17.5162 35.8597 17.8661C35.1356 18.2609 34.9344 18.7156 34.8741 18.9505C34.1047 18.8356 33.3403 18.7756 32.571 18.7706C32.3648 18.4008 31.2937 18.3508 30.9014 17.7161C30.5092 17.0765 31.52 16.6617 32.0077 16.8116Z" fill="#E3746D"/>
<path d="M19.4461 15.6922C19.7579 15.4023 20.0797 15.1474 20.4066 14.9275C23.3232 12.9285 26.5063 13.5132 26.9841 14.7426C27.5171 16.107 25.1838 16.5767 23.7557 17.1714C22.4532 17.7111 20.9346 18.7007 19.7981 19.3453C18.9634 19.8201 18.3247 20.11 18.1336 19.9001C17.676 19.4053 17.2234 17.7361 19.4461 15.6922Z" fill="white"/>
<path d="M38.9119 13.6182C40.5915 14.2379 41.8587 15.2824 42.6834 16.1519C43.2567 16.7566 43.6087 17.2764 43.7344 17.5112C44.0412 18.081 43.0958 18.2109 41.9141 17.7761C41.8638 17.7561 41.8084 17.7361 41.7531 17.7161C40.4809 17.2664 37.514 16.4368 36.6692 16.067C35.4572 15.5372 36.0657 12.5687 38.9119 13.6182Z" fill="white"/>
<path d="M20.4067 14.9275C23.3234 12.9285 26.5065 13.5132 26.9842 14.7426C27.5173 16.107 25.184 16.5767 23.7558 17.1714C22.4534 17.7112 20.9347 18.7007 19.7983 19.3453C18.6216 17.6362 19.4261 16.032 20.4067 14.9275Z" fill="#3A0101"/>
<path d="M38.9119 13.6182C40.5915 14.2379 41.8587 15.2824 42.6834 16.1519C42.7136 16.6967 42.5477 17.3363 41.7531 17.7161C40.4809 17.2664 37.514 16.4368 36.6692 16.067C35.4572 15.5372 36.0657 12.5687 38.9119 13.6182Z" fill="#3A0101"/>
<path d="M25.3649 13.7081C21.7292 12.7586 18.5058 15.4923 17.8722 17.4063C17.2386 19.3203 17.8471 20 17.8722 19.4353C17.8974 18.8706 17.8722 17.991 18.7774 16.7916C19.6876 15.5922 22.5992 14.2679 22.5992 14.2679C22.5992 14.2679 23.9921 14.6177 25.3649 13.7081Z" fill="#3A0101"/>
<path d="M43.7246 17.0615C42.6987 15.8071 40.999 14.7027 40.999 14.7027C40.999 14.7027 41.2555 15.5522 41.9092 15.987C42.5629 16.4268 43.7849 17.7761 43.7849 17.7761C43.7849 17.7761 44.0816 17.6112 43.7246 17.0615Z" fill="#3A0101"/>
<path d="M25.3646 14.7027C24.9372 14.7476 21.6132 15.2074 22.0859 14.5177C22.5586 13.8281 23.8309 13.9031 24.8769 13.983C26.0033 14.068 25.7921 14.6627 25.3646 14.7027Z" fill="white"/>
<path d="M40.4104 15.7171C39.7668 15.4073 38.6655 14.8476 38.8264 14.4178C38.9873 13.988 40.2244 14.7376 40.9636 15.1174C41.8939 15.5922 41.0541 16.027 40.4104 15.7171Z" fill="white"/>
<path d="M22.388 21.8191C26.1595 19.7201 29.3828 18.7506 32.576 18.7656C33.3404 18.7706 34.1098 18.8306 34.8792 18.9455C35.6335 19.0605 36.3928 19.2254 37.1672 19.4403C40.4861 20.3648 47.657 23.8481 46.5457 33.5682C46.5105 33.8581 46.4702 34.1429 46.42 34.4278C43.2217 37.7361 38.1076 39.8801 32.3347 39.8751C25.3297 39.8751 19.2803 36.7166 16.4692 32.1439C16.8263 27.891 19.1193 23.8281 22.388 21.8191Z" fill="#623538"/>
<path d="M23.4843 44.3828C23.2781 44.2779 22.73 43.983 22.5289 43.8781C22.3126 43.7531 21.8349 43.4533 21.6136 43.3133C21.327 43.1184 21.0353 42.8786 20.7437 42.6837C20.1 42.1489 19.4714 41.5842 18.9384 40.9345C16.3738 37.976 15.5491 33.7631 16.4241 29.98C17.1733 26.6417 19.0641 23.4633 21.9757 21.5742C25.717 19.4103 30.1272 17.926 34.4971 18.5657C37.8462 19.0205 41.1148 20.4598 43.4582 22.9285C45.8468 25.3573 46.9179 28.8156 46.8123 32.1739C46.7922 34.1029 46.4251 36.037 45.6909 37.8261C43.8454 42.3888 39.5207 45.7121 34.6479 46.3768C30.8362 46.9615 26.9189 46.042 23.4843 44.3828ZM23.5195 44.3078C28.7041 46.8566 34.7837 46.9365 39.7269 43.7981C42.8698 41.7991 45.2383 38.5907 46.0831 34.9475C46.7167 32.2139 46.6966 29.2404 45.5953 26.6267C44.1521 23.1034 40.7829 20.6896 37.1774 19.7251C31.8319 18.2709 27.1049 19.5502 22.4333 22.3038C18.1992 25.1374 16.1676 30.7296 16.9169 35.6871C17.1934 37.4163 17.8773 39.0954 18.8982 40.5197C19.0591 40.7196 19.2803 41.0145 19.4413 41.2144C19.7731 41.5692 20.1905 42.034 20.5677 42.3438L20.8292 42.5837L21.1108 42.7986C21.4276 43.0635 21.9254 43.3933 22.2774 43.6132C22.6143 43.8381 23.1625 44.1079 23.5195 44.3078Z" fill="#3A0101"/>
<path d="M31.4043 17.4613C31.9022 17.2114 32.8124 18.1659 32.8124 18.1659C31.6809 18.086 30.9015 17.7161 31.4043 17.4613Z" fill="#C95755"/>
<path d="M35.6885 17.3613C35.2711 17.1364 34.728 18.1659 34.728 18.1659C35.2611 18.051 36.1059 17.5862 35.6885 17.3613Z" fill="#C95755"/>
<path d="M7.31171 8.04099C8.9762 10.04 10.7614 12.4138 12.0588 14.5627C12.8885 15.937 6.78371 26.087 5.6774 28.001C4.66664 29.7551 2.43391 23.4033 1.85059 16.7067C6.75856 19.5053 7.44749 13.0535 7.31171 8.04099Z" fill="#D68C72"/>
<path d="M12.034 14.5777C10.2086 11.5842 7.8753 8.94552 5.52692 6.36182C4.74245 5.52723 3.94792 4.65267 3.0679 3.93303C2.94721 3.84308 2.82653 3.74812 2.72595 3.70814C2.58012 3.83308 2.46446 4.16292 2.40412 4.3978C2.00685 6.06696 1.96662 7.82608 1.91131 9.55022C1.89119 10.7096 1.88617 11.8791 1.89622 13.0435C1.88617 16.5417 2.1728 20.045 3.08299 23.4333C3.34951 24.4328 4.33512 27.7761 5.28051 28.0959C5.36097 28.091 5.41126 28.036 5.46155 27.961L5.5068 27.8861C5.67778 27.5312 9.18276 21.4743 9.46939 20.9495C10.1131 19.7451 12.4966 15.7471 12.034 14.5777ZM12.0843 14.5477C12.5922 15.4923 10.2941 19.985 9.77111 21.1094C8.61452 23.4733 7.29701 25.7621 5.91915 28.001C5.81858 28.2059 5.56212 28.5307 5.25034 28.4908C3.70151 28.2759 2.46446 21.5742 2.18286 20.05C1.54925 16.5917 1.38833 13.0635 1.39839 9.55022C1.43861 8.10594 1.38833 4.37781 2.27337 3.33833C2.66058 2.93353 3.09304 3.21339 3.41991 3.48825C3.8926 3.87306 4.30495 4.29285 4.7173 4.71764C7.54341 7.69615 9.93203 11.0645 12.0843 14.5477Z" fill="#3A0101"/>
</g>
<defs>
<clipPath id="clip0_124_376">
<rect width="50" height="50" fill="white"/>
</clipPath>
</defs>
</svg>
